# 3ds Max Wavefront OBJ Exporter v0.97b - (c)2007 guruware
# File Created: 20.06.2017 14:57:40

mtllib knobbase.mtl

#
# object Cylinder020
#

v  -0.0378 0.4860 1.1734
v  -0.0378 0.0000 1.2701
v  0.2710 0.0000 1.3075
v  0.2710 0.5003 1.2080
v  -0.0378 0.8981 0.8981
v  0.2710 0.9245 0.9245
v  -0.0378 1.1734 0.4860
v  0.2710 1.2080 0.5003
v  -0.0378 1.2701 0.0000
v  0.2710 1.3075 0.0000
v  -0.0378 1.1734 -0.4861
v  0.2710 1.2080 -0.5004
v  -0.0378 0.8981 -0.8981
v  0.2710 0.9245 -0.9246
v  -0.0378 0.4860 -1.1734
v  0.2710 0.5003 -1.2080
v  -0.0378 0.0000 -1.2701
v  0.2710 0.0000 -1.3076
v  -0.0378 -0.4861 -1.1734
v  0.2710 -0.5004 -1.2080
v  -0.0378 -0.8981 -0.8981
v  0.2710 -0.9246 -0.9246
v  -0.0378 -1.1734 -0.4861
v  0.2710 -1.2080 -0.5004
v  -0.0378 -1.2701 0.0000
v  0.2710 -1.3075 0.0000
v  -0.0378 -1.1734 0.4860
v  0.2710 -1.2080 0.5003
v  -0.0378 -0.8981 0.8981
v  0.2710 -0.9246 0.9245
v  -0.0378 -0.4861 1.1734
v  0.2710 -0.5004 1.2080
v  -0.0558 0.3354 0.8096
v  -0.0558 0.6197 0.6197
v  -0.0558 0.8097 0.3353
v  -0.0558 -0.3354 0.8096
v  -0.0558 0.8764 0.0000
v  -0.0558 0.8097 -0.3354
v  -0.0558 0.3354 -0.8097
v  -0.0558 0.6197 -0.6197
v  -0.0558 0.0000 -0.8764
v  -0.0558 -0.3354 -0.8097
v  -0.0558 -0.8097 -0.3354
v  -0.0558 -0.6197 -0.6197
v  -0.0558 -0.8764 0.0000
v  -0.0558 -0.8097 0.3353
v  -0.0558 -0.6197 0.6197
v  -0.0558 0.0000 0.8764
v  -0.1906 0.4473 1.0799
v  -0.1906 0.0000 1.1689
v  -0.1906 0.8265 0.8265
v  -0.1906 1.0799 0.4473
v  -0.1906 1.1689 0.0000
v  -0.1906 1.0799 -0.4474
v  -0.1906 0.8265 -0.8266
v  -0.1906 0.4473 -1.0800
v  -0.1906 0.0000 -1.1689
v  -0.1906 -0.4473 -1.0800
v  -0.1906 -0.8266 -0.8266
v  -0.1906 -1.0799 -0.4474
v  -0.1906 -1.1689 0.0000
v  -0.1906 -1.0799 0.4473
v  -0.1906 -0.8266 0.8265
v  -0.1906 -0.4473 1.0799
v  -0.2710 0.0000 1.0022
v  -0.2710 0.3835 0.9259
v  -0.2710 0.7087 0.7087
v  -0.2710 0.9259 0.3835
v  -0.2710 1.0022 0.0000
v  -0.2710 0.9259 -0.3836
v  -0.2710 0.7087 -0.7087
v  -0.2710 0.3835 -0.9260
v  -0.2710 0.0000 -1.0023
v  -0.2710 -0.3836 -0.9260
v  -0.2710 -0.7087 -0.7087
v  -0.2710 -0.9260 -0.3836
v  -0.2710 -1.0023 0.0000
v  -0.2710 -0.9260 0.3835
v  -0.2710 -0.7087 0.7087
v  -0.2710 -0.3836 0.9259
v  -0.2710 0.3354 0.8096
v  -0.2710 0.0000 0.8764
v  -0.2710 0.6197 0.6197
v  -0.2710 0.8097 0.3353
v  -0.2710 0.8764 0.0000
v  -0.2710 0.8097 -0.3354
v  -0.2710 0.6197 -0.6197
v  -0.2710 0.3354 -0.8097
v  -0.2710 0.0000 -0.8764
v  -0.2710 -0.3354 -0.8097
v  -0.2710 -0.6197 -0.6197
v  -0.2710 -0.8097 -0.3354
v  -0.2710 -0.8764 0.0000
v  -0.2710 -0.8097 0.3353
v  -0.2710 -0.6197 0.6197
v  -0.2710 -0.3354 0.8096
# 96 vertices

vn -0.3366 0.3604 0.8700
vn -0.3366 0.0000 0.9417
vn -0.1204 0.0000 0.9927
vn -0.1204 0.3799 0.9172
vn -0.3366 0.6658 0.6658
vn -0.1204 0.7020 0.7020
vn -0.3366 0.8700 0.3604
vn -0.1204 0.9172 0.3799
vn -0.3366 0.9417 -0.0000
vn -0.1204 0.9927 -0.0000
vn -0.3366 0.8700 -0.3604
vn -0.1204 0.9172 -0.3799
vn -0.3366 0.6658 -0.6658
vn -0.1204 0.7020 -0.7020
vn -0.3366 0.3604 -0.8700
vn -0.1204 0.3799 -0.9172
vn -0.3366 0.0000 -0.9417
vn -0.1204 0.0000 -0.9927
vn -0.3366 -0.3604 -0.8700
vn -0.1204 -0.3799 -0.9172
vn -0.3366 -0.6658 -0.6658
vn -0.1204 -0.7020 -0.7020
vn -0.3366 -0.8700 -0.3604
vn -0.1204 -0.9172 -0.3799
vn -0.3366 -0.9417 -0.0000
vn -0.1204 -0.9927 -0.0000
vn -0.3366 -0.8700 0.3604
vn -0.1204 -0.9172 0.3799
vn -0.3366 -0.6658 0.6658
vn -0.1204 -0.7020 0.7020
vn -0.3366 -0.3604 0.8700
vn -0.1204 -0.3799 0.9172
vn -1.0000 0.0000 -0.0000
vn -0.7372 0.2586 0.6243
vn -0.7372 0.0000 0.6757
vn -0.7372 0.4778 0.4778
vn -0.7372 0.6243 0.2586
vn -0.7372 0.6757 -0.0000
vn -0.7372 0.6243 -0.2586
vn -0.7372 0.4778 -0.4778
vn -0.7372 0.2586 -0.6243
vn -0.7372 0.0000 -0.6757
vn -0.7372 -0.2586 -0.6243
vn -0.7372 -0.4778 -0.4778
vn -0.7372 -0.6243 -0.2586
vn -0.7372 -0.6757 -0.0000
vn -0.7372 -0.6243 0.2586
vn -0.7372 -0.4778 0.4778
vn -0.7372 -0.2586 0.6243
vn -0.9685 0.0000 0.2492
vn -0.9685 0.0953 0.2302
vn -0.9685 0.1762 0.1762
vn -0.9685 0.2302 0.0953
vn -0.9685 0.2492 -0.0000
vn -0.9685 0.2302 -0.0953
vn -0.9685 0.1762 -0.1762
vn -0.9685 0.0953 -0.2302
vn -0.9685 0.0000 -0.2492
vn -0.9685 -0.0953 -0.2302
vn -0.9685 -0.1762 -0.1762
vn -0.9685 -0.2302 -0.0953
vn -0.9685 -0.2492 -0.0000
vn -0.9685 -0.2302 0.0953
vn -0.9685 -0.1762 0.1762
vn -0.9685 -0.0953 0.2302
vn 0.0000 -0.3827 -0.9239
vn 0.0000 0.0000 -1.0000
vn 0.0000 -0.7071 -0.7071
vn 0.0000 -0.9239 -0.3827
vn 0.0000 -1.0000 -0.0000
vn 0.0000 -0.9239 0.3827
vn 0.0000 -0.7071 0.7071
vn 0.0000 -0.3827 0.9239
vn 0.0000 0.0000 1.0000
vn 0.0000 0.3827 0.9239
vn 0.0000 0.7071 0.7071
vn 0.0000 0.9239 0.3827
vn 0.0000 1.0000 -0.0000
vn 0.0000 0.9239 -0.3827
vn 0.0000 0.7071 -0.7071
vn 0.0000 0.3827 -0.9239
# 81 vertex normals

vt 0.8125 0.5697 1.0000
vt 0.7500 0.5697 1.0000
vt 0.7500 0.0000 1.0000
vt 0.8125 0.0000 1.0000
vt 0.8750 0.5697 1.0000
vt 0.8750 0.0000 1.0000
vt 0.9375 0.5697 1.0000
vt 0.9375 0.0000 1.0000
vt 1.0000 0.5697 1.0000
vt 1.0000 0.0000 1.0000
vt 0.0625 0.5697 1.0000
vt 0.0000 0.5697 1.0000
vt 0.0000 0.0000 1.0000
vt 0.0625 0.0000 1.0000
vt 0.1250 0.5697 1.0000
vt 0.1250 0.0000 1.0000
vt 0.1875 0.5697 1.0000
vt 0.1875 0.0000 1.0000
vt 0.2500 0.5697 1.0000
vt 0.2500 0.0000 1.0000
vt 0.3125 0.5697 1.0000
vt 0.3125 0.0000 1.0000
vt 0.3750 0.5697 1.0000
vt 0.3750 0.0000 1.0000
vt 0.4375 0.5697 1.0000
vt 0.4375 0.0000 1.0000
vt 0.5000 0.5697 1.0000
vt 0.5000 0.0000 1.0000
vt 0.5625 0.5697 1.0000
vt 0.5625 0.0000 1.0000
vt 0.6250 0.5697 1.0000
vt 0.6250 0.0000 1.0000
vt 0.6875 0.5697 1.0000
vt 0.6875 0.0000 1.0000
vt 0.3456 0.8728 0.2500
vt 0.2147 0.7853 0.2500
vt 0.1272 0.6544 0.2500
vt 0.6544 0.8728 0.2500
vt 0.0965 0.5000 0.2500
vt 0.1272 0.3456 0.2500
vt 0.3456 0.1272 0.2500
vt 0.2147 0.2147 0.2500
vt 0.5000 0.0965 0.2500
vt 0.6544 0.1272 0.2500
vt 0.8728 0.3456 0.2500
vt 0.7853 0.2147 0.2500
vt 0.9035 0.5000 0.2500
vt 0.8728 0.6544 0.2500
vt 0.7853 0.7853 0.2500
vt 0.5000 0.9035 0.2500
vt 0.8125 1.0000 1.0000
vt 0.7500 1.0000 1.0000
vt 0.8750 1.0000 1.0000
vt 0.9375 1.0000 1.0000
vt 1.0000 1.0000 1.0000
vt 0.0625 1.0000 1.0000
vt 0.0000 1.0000 1.0000
vt 0.1250 1.0000 1.0000
vt 0.1875 1.0000 1.0000
vt 0.2500 1.0000 1.0000
vt 0.3125 1.0000 1.0000
vt 0.3750 1.0000 1.0000
vt 0.4375 1.0000 1.0000
vt 0.5000 1.0000 1.0000
vt 0.5625 1.0000 1.0000
vt 0.6250 1.0000 1.0000
vt 0.6875 1.0000 1.0000
vt 0.5000 1.0000 0.2500
vt 0.3087 0.9619 0.2500
vt 0.1464 0.8536 0.2500
vt 0.0381 0.6913 0.2500
vt 0.0000 0.5000 0.2500
vt 0.0381 0.3087 0.2500
vt 0.1464 0.1464 0.2500
vt 0.3087 0.0381 0.2500
vt 0.5000 0.0000 0.2500
vt 0.6913 0.0381 0.2500
vt 0.8536 0.1464 0.2500
vt 0.9619 0.3087 0.2500
vt 1.0000 0.5000 0.2500
vt 0.9619 0.6913 0.2500
vt 0.8536 0.8536 0.2500
vt 0.6913 0.9619 0.2500
# 83 texture coords

g Cylinder020
usemtl _knobbasedefault
s 1
f 1/1/1 2/2/2 3/3/3 4/4/4 
f 5/5/5 1/1/1 4/4/4 6/6/6 
f 7/7/7 5/5/5 6/6/6 8/8/8 
f 9/9/9 7/7/7 8/8/8 10/10/10 
f 11/11/11 9/12/9 10/13/10 12/14/12 
f 13/15/13 11/11/11 12/14/12 14/16/14 
f 15/17/15 13/15/13 14/16/14 16/18/16 
f 17/19/17 15/17/15 16/18/16 18/20/18 
f 19/21/19 17/19/17 18/20/18 20/22/20 
f 21/23/21 19/21/19 20/22/20 22/24/22 
f 23/25/23 21/23/21 22/24/22 24/26/24 
f 25/27/25 23/25/23 24/26/24 26/28/26 
f 27/29/27 25/27/25 26/28/26 28/30/28 
f 29/31/29 27/29/27 28/30/28 30/32/30 
f 31/33/31 29/31/29 30/32/30 32/34/32 
f 2/2/2 31/33/31 32/34/32 3/3/3 
f 33/35/33 34/36/33 35/37/33 36/38/33 
f 35/37/33 37/39/33 38/40/33 39/41/33 
f 38/40/33 40/42/33 39/41/33 
f 39/41/33 41/43/33 42/44/33 43/45/33 
f 42/44/33 44/46/33 43/45/33 
f 43/45/33 45/47/33 46/48/33 36/38/33 
f 46/48/33 47/49/33 36/38/33 
f 43/45/33 36/38/33 35/37/33 39/41/33 
f 48/50/33 33/35/33 36/38/33 
f 1/1/1 49/51/34 50/52/35 2/2/2 
f 5/5/5 51/53/36 49/51/34 1/1/1 
f 7/7/7 52/54/37 51/53/36 5/5/5 
f 9/9/9 53/55/38 52/54/37 7/7/7 
f 11/11/11 54/56/39 53/57/38 9/12/9 
f 13/15/13 55/58/40 54/56/39 11/11/11 
f 15/17/15 56/59/41 55/58/40 13/15/13 
f 17/19/17 57/60/42 56/59/41 15/17/15 
f 19/21/19 58/61/43 57/60/42 17/19/17 
f 21/23/21 59/62/44 58/61/43 19/21/19 
f 23/25/23 60/63/45 59/62/44 21/23/21 
f 25/27/25 61/64/46 60/63/45 23/25/23 
f 27/29/27 62/65/47 61/64/46 25/27/25 
f 29/31/29 63/66/48 62/65/47 27/29/27 
f 31/33/31 64/67/49 63/66/48 29/31/29 
f 2/2/2 50/52/35 64/67/49 31/33/31 
f 65/50/50 50/68/35 49/69/34 66/35/51 
f 66/35/51 49/69/34 51/70/36 67/36/52 
f 67/36/52 51/70/36 52/71/37 68/37/53 
f 68/37/53 52/71/37 53/72/38 69/39/54 
f 69/39/54 53/72/38 54/73/39 70/40/55 
f 70/40/55 54/73/39 55/74/40 71/42/56 
f 71/42/56 55/74/40 56/75/41 72/41/57 
f 72/41/57 56/75/41 57/76/42 73/43/58 
f 73/43/58 57/76/42 58/77/43 74/44/59 
f 74/44/59 58/77/43 59/78/44 75/46/60 
f 75/46/60 59/78/44 60/79/45 76/45/61 
f 76/45/61 60/79/45 61/80/46 77/47/62 
f 77/47/62 61/80/46 62/81/47 78/48/63 
f 78/48/63 62/81/47 63/82/48 79/49/64 
f 79/49/64 63/82/48 64/83/49 80/38/65 
f 80/38/65 64/83/49 50/68/35 65/50/50 
f 66/35/51 81/35/33 82/50/33 65/50/50 
f 67/36/52 83/36/33 81/35/33 66/35/51 
f 68/37/53 84/37/33 83/36/33 67/36/52 
f 69/39/54 85/39/33 84/37/33 68/37/53 
f 70/40/55 86/40/33 85/39/33 69/39/54 
f 71/42/56 87/42/33 86/40/33 70/40/55 
f 72/41/57 88/41/33 87/42/33 71/42/56 
f 73/43/58 89/43/33 88/41/33 72/41/57 
f 74/44/59 90/44/33 89/43/33 73/43/58 
f 75/46/60 91/46/33 90/44/33 74/44/59 
f 76/45/61 92/45/33 91/46/33 75/46/60 
f 77/47/62 93/47/33 92/45/33 76/45/61 
f 78/48/63 94/48/33 93/47/33 77/47/62 
f 79/49/64 95/49/33 94/48/33 78/48/63 
f 80/38/65 96/38/33 95/49/33 79/49/64 
f 65/50/50 82/50/33 96/38/33 80/38/65 
s 2
f 81/35/66 33/35/66 48/50/67 82/50/67 
f 83/36/68 34/36/68 33/35/66 81/35/66 
f 84/37/69 35/37/69 34/36/68 83/36/68 
f 85/39/70 37/39/70 35/37/69 84/37/69 
f 86/40/71 38/40/71 37/39/70 85/39/70 
f 87/42/72 40/42/72 38/40/71 86/40/71 
f 88/41/73 39/41/73 40/42/72 87/42/72 
f 89/43/74 41/43/74 39/41/73 88/41/73 
f 90/44/75 42/44/75 41/43/74 89/43/74 
f 91/46/76 44/46/76 42/44/75 90/44/75 
f 92/45/77 43/45/77 44/46/76 91/46/76 
f 93/47/78 45/47/78 43/45/77 92/45/77 
f 94/48/79 46/48/79 45/47/78 93/47/78 
f 95/49/80 47/49/80 46/48/79 94/48/79 
f 96/38/81 36/38/81 47/49/80 95/49/80 
f 82/50/67 48/50/67 36/38/81 96/38/81 
# 85 polygons - 4 triangles

