# 3ds Max Wavefront OBJ Exporter v0.97b - (c)2007 guruware
# File Created: 20.06.2017 14:56:55

mtllib knobhead.mtl

#
# object Object029
#

v  -0.4126 0.2341 0.5653
v  -0.4126 0.4326 0.4326
v  -0.4126 0.0000 0.0001
v  -0.4744 0.0000 0.8765
v  0.4744 0.0000 0.8765
v  0.4744 0.3354 0.8097
v  -0.4744 0.3354 0.8097
v  0.4744 0.6197 0.6198
v  -0.4744 0.6197 0.6198
v  0.4744 0.8097 0.3354
v  -0.4744 0.8097 0.3354
v  0.4744 0.8764 0.0001
v  -0.1046 0.8764 0.0001
v  -0.3662 0.8764 0.0001
v  -0.4744 0.8764 0.0001
v  -0.1046 1.8466 -0.7648
v  -0.3662 1.8466 -0.7648
v  -0.3662 1.9133 -0.4294
v  -0.1046 1.9133 -0.4294
v  -0.1046 1.6566 -1.0492
v  -0.3662 1.6566 -1.0492
v  -0.1046 0.6197 -0.6196
v  0.4744 0.6197 -0.6196
v  0.4744 0.3354 -0.8096
v  -0.4744 0.3354 -0.8096
v  -0.4744 0.6197 -0.6196
v  -0.3662 0.6197 -0.6196
v  0.4744 0.0000 -0.8763
v  -0.4744 0.0000 -0.8763
v  0.4744 -0.3354 -0.8096
v  -0.4744 -0.3354 -0.8096
v  0.4744 -0.6197 -0.6196
v  -0.4744 -0.6197 -0.6196
v  0.4744 -0.8097 -0.3353
v  -0.4744 -0.8097 -0.3353
v  0.4744 -0.8764 0.0001
v  -0.4744 -0.8764 0.0001
v  0.4744 -0.8097 0.3354
v  -0.4744 -0.8097 0.3354
v  0.4744 -0.6197 0.6198
v  -0.4744 -0.6197 0.6198
v  0.4744 -0.3354 0.8097
v  -0.4744 -0.3354 0.8097
v  -0.3662 0.8097 -0.3353
v  -0.4744 0.8097 -0.3353
v  0.4744 0.8097 -0.3353
v  -0.1046 0.8097 -0.3353
v  -0.4744 0.0000 0.6895
v  -0.4744 0.2638 0.6370
v  -0.4744 0.4875 0.4876
v  -0.4744 0.6369 0.2639
v  -0.4744 0.6894 0.0001
v  -0.4744 0.6369 -0.2638
v  -0.4744 0.4875 -0.4874
v  -0.4744 0.2638 -0.6369
v  -0.4744 0.0000 -0.6894
v  -0.4744 -0.2639 -0.6369
v  -0.4744 -0.4875 -0.4874
v  -0.4744 -0.6370 -0.2638
v  -0.4744 -0.6895 0.0001
v  -0.4744 -0.6370 0.2639
v  -0.4744 -0.4875 0.4876
v  -0.4744 -0.2639 0.6370
v  -0.4126 0.0000 0.6118
v  -0.4126 0.5652 0.2342
v  -0.4126 0.6117 0.0001
v  -0.4126 0.5652 -0.2340
v  -0.4126 0.4326 -0.4325
v  -0.4126 0.2341 -0.5651
v  -0.4126 0.0000 -0.6117
v  -0.4126 -0.2341 -0.5651
v  -0.4126 -0.4326 -0.4325
v  -0.4126 -0.5652 -0.2340
v  -0.4126 -0.6118 0.0001
v  -0.4126 -0.5652 0.2342
v  -0.4126 -0.4326 0.4326
v  -0.4126 -0.2341 0.5653
# 77 vertices

vn -0.9309 -0.1398 0.3375
vn -0.9309 0.0000 0.3653
vn -0.9309 0.1398 0.3375
vn 0.0000 0.0000 1.0000
vn 0.0000 0.3827 0.9239
vn 0.0000 0.7071 0.7071
vn 0.0000 0.9239 0.3827
vn 0.0000 1.0000 -0.0000
vn 0.0000 0.9978 0.0662
vn 0.0000 0.9239 -0.3827
vn 0.0000 0.9808 -0.1951
vn 0.0000 0.8315 -0.5556
vn 0.0000 0.6588 -0.7523
vn 0.0000 0.7071 -0.7071
vn 0.0000 0.3827 -0.9239
vn 0.0000 0.0000 -1.0000
vn 0.0000 -0.3827 -0.9239
vn 0.0000 -0.7071 -0.7071
vn 0.0000 -0.9239 -0.3827
vn 0.0000 -1.0000 -0.0000
vn 0.0000 -0.9239 0.3827
vn 0.0000 -0.7071 0.7071
vn 0.0000 -0.3827 0.9239
vn 1.0000 0.0000 -0.0000
vn -1.0000 0.0000 -0.0000
vn -0.9564 0.0000 -0.2920
vn -0.9564 -0.1117 -0.2698
vn -0.9564 -0.2065 -0.2065
vn -0.9564 -0.2698 -0.1117
vn -0.9564 -0.2920 -0.0000
vn -0.9564 -0.2698 0.1117
vn -0.9564 -0.2065 0.2065
vn -0.9564 -0.1117 0.2698
vn -0.9564 0.0000 0.2920
vn -0.9564 0.1117 0.2698
vn -0.9564 0.2065 0.2065
vn -0.9564 0.2698 0.1117
vn -0.9564 0.2920 -0.0000
vn -0.9564 0.2698 -0.1117
vn -0.9564 0.2065 -0.2065
vn -0.9564 0.1117 -0.2698
vn -0.9309 0.0000 -0.3653
vn -0.9309 -0.1398 -0.3375
vn -0.9309 -0.2583 -0.2583
vn -0.9309 -0.3375 -0.1398
vn -0.9309 -0.3653 -0.0000
vn -0.9309 -0.3375 0.1398
vn -0.9309 -0.2583 0.2583
vn -0.9309 0.2583 0.2583
vn -0.9309 0.3375 0.1398
vn -0.9309 0.3653 -0.0000
vn -0.9309 0.3375 -0.1398
vn -0.9309 0.2583 -0.2583
vn -0.9309 0.1398 -0.3375
# 54 vertex normals

vt 0.3456 0.8728 0.2500
vt 0.2147 0.7853 0.2500
vt 0.5000 0.5000 0.2500
vt 0.5000 0.9035 0.2500
vt 0.1272 0.6544 0.2500
vt 0.0965 0.5000 0.2500
vt 0.1272 0.3456 0.2500
vt 0.2147 0.2147 0.2500
vt 0.3456 0.1272 0.2500
vt 0.5000 0.0965 0.2500
vt 0.6544 0.1272 0.2500
vt 0.7853 0.2147 0.2500
vt 0.8728 0.3456 0.2500
vt 0.9035 0.5000 0.2500
vt 0.8728 0.6544 0.2500
vt 0.7853 0.7853 0.2500
vt 0.6544 0.8728 0.2500
# 17 texture coords

g Object029
usemtl _knobheaddefault
s 1
f 1/1/1 2/2/2 3/3/3 
s 2
f 4/4/4 5/4/4 6/1/5 7/1/5 
f 7/1/5 6/1/5 8/2/6 9/2/6 
f 9/2/6 8/2/6 10/5/7 11/5/7 
f 10/5/7 12/6/8 13/6/9 14/6/9 
f 11/5/7 10/5/7 14/6/9 15/6/8 
s 1
f 16/7/10 17/7/10 18/6/11 19/6/11 
f 20/8/12 21/8/12 17/7/10 16/7/10 
s 2
f 22/8/13 23/8/14 24/9/15 25/9/15 
f 25/9/15 26/8/14 27/8/13 22/8/13 
f 25/9/15 24/9/15 28/10/16 29/10/16 
f 29/10/16 28/10/16 30/11/17 31/11/17 
f 31/11/17 30/11/17 32/12/18 33/12/18 
f 33/12/18 32/12/18 34/13/19 35/13/19 
f 35/13/19 34/13/19 36/14/20 37/14/20 
f 37/14/20 36/14/20 38/15/21 39/15/21 
f 39/15/21 38/15/21 40/16/22 41/16/22 
f 41/16/22 40/16/22 42/17/23 43/17/23 
f 43/17/23 42/17/23 5/4/4 4/4/4 
f 44/7/10 45/7/10 15/6/8 14/6/9 
f 13/6/9 12/6/8 46/7/10 47/7/10 
f 27/8/13 26/8/14 45/7/10 44/7/10 
f 47/7/10 46/7/10 23/8/14 22/8/13 
s 4
f 18/6/5 14/6/5 13/6/5 19/6/5 
s 8
f 19/6/24 13/6/24 47/7/24 16/7/24 
f 20/8/24 16/7/24 47/7/24 22/8/24 
s 4
f 20/8/17 22/8/17 27/8/17 21/8/17 
s 8
f 21/8/25 27/8/25 44/7/25 17/7/25 
f 18/6/25 17/7/25 44/7/25 14/6/25 
s 1
f 48/4/26 4/4/25 7/1/25 49/1/27 
f 49/1/27 7/1/25 9/2/25 50/2/28 
f 50/2/28 9/2/25 11/5/25 51/5/29 
f 51/5/29 11/5/25 15/6/25 52/6/30 
f 52/6/30 15/6/25 45/7/25 53/7/31 
f 53/7/31 45/7/25 26/8/25 54/8/32 
f 54/8/32 26/8/25 25/9/25 55/9/33 
f 55/9/33 25/9/25 29/10/25 56/10/34 
f 56/10/34 29/10/25 31/11/25 57/11/35 
f 57/11/35 31/11/25 33/12/25 58/12/36 
f 58/12/36 33/12/25 35/13/25 59/13/37 
f 59/13/37 35/13/25 37/14/25 60/14/38 
f 60/14/38 37/14/25 39/15/25 61/15/39 
f 61/15/39 39/15/25 41/16/25 62/16/40 
f 62/16/40 41/16/25 43/17/25 63/17/41 
f 63/17/41 43/17/25 4/4/25 48/4/26 
f 64/4/42 48/4/26 49/1/27 1/1/43 
f 1/1/43 49/1/27 50/2/28 2/2/44 
f 2/2/44 50/2/28 51/5/29 65/5/45 
f 65/5/45 51/5/29 52/6/30 66/6/46 
f 66/6/46 52/6/30 53/7/31 67/7/47 
f 67/7/47 53/7/31 54/8/32 68/8/48 
f 68/8/48 54/8/32 55/9/33 69/9/1 
f 69/9/1 55/9/33 56/10/34 70/10/2 
f 70/10/2 56/10/34 57/11/35 71/11/3 
f 71/11/3 57/11/35 58/12/36 72/12/49 
f 72/12/49 58/12/36 59/13/37 73/13/50 
f 73/13/50 59/13/37 60/14/38 74/14/51 
f 74/14/51 60/14/38 61/15/39 75/15/52 
f 75/15/52 61/15/39 62/16/40 76/16/53 
f 76/16/53 62/16/40 63/17/41 77/17/54 
f 77/17/54 63/17/41 48/4/26 64/4/42 
f 66/6/25 67/7/25 3/3/25 
f 73/13/25 74/14/25 3/3/25 
f 3/3/25 75/15/25 76/16/25 
f 2/2/25 65/5/25 3/3/25 
f 3/3/25 70/10/25 71/11/25 
f 69/9/25 70/10/25 3/3/25 
f 3/3/25 74/14/25 75/15/25 
f 65/5/25 66/6/25 3/3/25 
f 3/3/25 72/12/25 73/13/25 
f 71/11/25 72/12/25 3/3/25 
f 3/3/25 64/4/25 1/1/25 
f 77/17/25 64/4/25 3/3/25 
f 3/3/25 68/8/25 69/9/25 
f 76/16/25 77/17/25 3/3/25 
f 3/3/25 67/7/25 68/8/25 
# 60 polygons - 16 triangles

