# 3ds Max Wavefront OBJ Exporter v0.97b - (c)2007 guruware
# File Created: 07.04.2017 02:47:42

#
# object Box001
#

v  8.2510 19.2096 186.1660
v  8.2510 19.2096 164.1681
v  61.3617 19.2096 164.1681
v  61.3617 19.2096 186.1660
v  -10.0204 21.4062 179.8176
v  79.6375 21.4062 179.8177
v  79.6375 21.4062 170.5165
v  -10.0204 21.4062 170.5165
v  -10.0204 19.2096 179.8176
v  -10.0204 19.2096 170.5165
v  63.8759 19.2096 196.8380
v  79.6375 19.2096 196.8380
v  79.6375 21.4062 196.8380
v  61.3617 19.2096 196.8380
v  8.2510 19.2096 196.8380
v  5.7368 19.2096 196.8380
v  -10.0204 19.2096 196.8379
v  -10.0204 21.4062 196.8379
v  79.6375 19.2096 170.5165
v  79.6375 19.2096 179.8177
v  5.7368 19.2096 153.4962
v  -10.0204 19.2096 153.4962
v  -10.0204 21.4062 153.4962
v  8.2510 19.2096 153.4962
v  61.3617 19.2096 153.4962
v  63.8759 19.2096 153.4962
v  79.6375 19.2096 153.4962
v  79.6375 21.4062 153.4962
v  5.7368 19.2096 164.1681
v  5.7368 19.2096 186.1660
v  5.7368 0.2537 185.3119
v  5.7368 0.2537 165.0222
v  8.2510 0.2537 165.0222
v  8.2510 0.2537 185.3119
v  63.8759 19.2096 186.1660
v  63.8759 19.2096 164.1681
v  63.8759 0.2537 165.0222
v  63.8759 0.2537 185.3119
v  61.3617 0.2537 185.3119
v  61.3617 0.2537 165.0222
# 40 vertices

vn 0.0000 -1.0000 -0.0000
vn 0.0000 1.0000 -0.0000
vn -1.0000 0.0000 -0.0000
vn -0.0000 -0.0000 1.0000
vn -0.0000 0.0000 1.0000
vn 0.0000 -0.0000 1.0000
vn 1.0000 0.0000 0.0000
vn 0.0000 -0.0000 -1.0000
vn 0.0000 0.0000 -1.0000
vn -0.0000 -0.0000 -1.0000
vn -0.0000 -0.0517 0.9987
vn 0.0000 -0.0517 -0.9987
# 12 vertex normals

vt 0.6183 0.8320 0.0000
vt 0.7679 0.8320 0.0000
vt 0.7679 0.3993 0.0000
vt 0.6183 0.3993 0.0000
vt 0.1873 0.9430 0.0000
vt 0.1873 0.0969 0.0000
vt 0.2710 0.0969 0.0000
vt 0.2710 0.9430 0.0000
vt 0.1873 0.9641 0.0000
vt 0.2710 0.9641 0.0000
vt 0.1888 0.0399 0.0000
vt 0.0200 0.0399 0.0000
vt 0.0200 0.0194 0.0000
vt 0.2157 0.0399 0.0000
vt 0.7844 0.0399 0.0000
vt 0.8113 0.0399 0.0000
vt 0.9800 0.0399 0.0000
vt 0.9800 0.0194 0.0000
vt 0.2710 0.0654 0.0000
vt 0.1873 0.0654 0.0000
vt 0.1887 0.0399 0.0000
vt 0.2156 0.0399 0.0000
vt 0.7843 0.0399 0.0000
vt 0.8112 0.0399 0.0000
vt 0.5457 0.8320 0.0000
vt 0.5457 0.3993 0.0000
vt 0.8404 0.3993 0.0000
vt 0.8404 0.8320 0.0000
vt 0.0297 0.9430 0.0000
vt 0.0297 0.0969 0.0000
vt 0.1783 0.0969 0.0000
vt 0.1783 0.9430 0.0000
vt 0.4250 0.0969 0.0000
vt 0.4250 0.9430 0.0000
vt 0.2763 0.9430 0.0000
vt 0.2763 0.0969 0.0000
vt 0.0297 0.9641 0.0000
vt 0.1783 0.9641 0.0000
vt 0.4250 0.9641 0.0000
vt 0.2763 0.9641 0.0000
vt 0.4250 0.0654 0.0000
vt 0.2763 0.0654 0.0000
vt 0.0297 0.0654 0.0000
vt 0.1783 0.0654 0.0000
vt 0.6614 0.9808 0.0000
vt 0.7247 0.9808 0.0000
vt 0.7679 0.8524 0.0000
vt 0.6183 0.8524 0.0000
vt 0.9329 0.6799 0.0000
vt 0.9329 0.5197 0.0000
vt 0.9590 0.5197 0.0000
vt 0.9590 0.6799 0.0000
vt 0.7247 0.2505 0.0000
vt 0.6614 0.2505 0.0000
vt 0.6183 0.3789 0.0000
vt 0.7679 0.3789 0.0000
vt 0.5457 0.9808 0.0000
vt 0.5457 0.8524 0.0000
vt 0.5457 0.2505 0.0000
vt 0.5457 0.3789 0.0000
vt 0.8404 0.2505 0.0000
vt 0.8404 0.3789 0.0000
vt 0.8404 0.9808 0.0000
vt 0.8404 0.8524 0.0000
vt 0.9590 0.9017 0.0000
vt 0.9329 0.9017 0.0000
vt 0.5967 0.0686 0.0000
vt 0.7975 0.0686 0.0000
vt 0.7897 0.2192 0.0000
vt 0.6045 0.2192 0.0000
vt 0.9329 0.2979 0.0000
vt 0.9590 0.2979 0.0000
# 72 texture coords

g Box001
s 2
f 1/1/1 2/2/1 3/3/1 4/4/1 
s 4
f 5/5/2 6/6/2 7/7/2 8/8/2 
s 8
f 9/9/3 5/5/3 8/8/3 10/10/3 
s 16
f 11/11/4 12/12/5 13/13/4 14/14/6 
f 15/15/5 14/14/6 13/13/4 16/16/5 
f 17/17/5 16/16/5 13/13/4 18/18/5 
s 32
f 19/19/7 7/7/7 6/6/7 20/20/7 
s 64
f 21/21/8 22/12/9 23/13/8 24/22/10 
f 25/23/9 24/22/10 23/13/8 26/24/9 
f 27/17/9 26/24/9 23/13/8 28/18/9 
s 2
f 15/25/1 1/1/1 4/4/1 14/26/1 
f 25/27/1 3/3/1 2/2/1 24/28/1 
s 4
f 18/29/2 13/30/2 6/31/2 5/32/2 
f 28/33/2 23/34/2 8/35/2 7/36/2 
s 8
f 17/37/3 18/29/3 5/32/3 9/38/3 
f 23/34/3 22/39/3 10/40/3 8/35/3 
s 32
f 27/41/7 28/33/7 7/36/7 19/42/7 
f 13/30/7 12/43/7 20/44/7 6/31/7 
s 2
f 9/45/1 10/46/1 29/47/1 30/48/1 
f 31/49/1 32/50/1 33/51/1 34/52/1 
f 19/53/1 20/54/1 35/55/1 36/56/1 
f 37/51/1 38/52/1 39/49/1 40/50/1 
f 17/57/1 9/45/1 30/48/1 16/58/1 
f 16/58/1 30/48/1 1/1/1 15/25/1 
f 20/54/1 12/59/1 11/60/1 35/55/1 
f 35/55/1 11/60/1 14/26/1 4/4/1 
f 27/61/1 19/53/1 36/56/1 26/62/1 
f 26/62/1 36/56/1 3/3/1 25/27/1 
f 10/46/1 22/63/1 21/64/1 29/47/1 
f 29/47/1 21/64/1 24/28/1 2/2/1 
s off
f 1/65/11 30/66/11 31/49/11 34/52/11 
f 30/67/3 29/68/3 32/69/3 31/70/3 
f 29/71/12 2/72/12 33/51/12 32/50/12 
f 2/67/7 1/68/7 34/69/7 33/70/7 
f 35/65/11 4/66/11 39/49/11 38/52/11 
f 4/67/3 3/68/3 40/69/3 39/70/3 
f 3/71/12 36/72/12 37/51/12 40/50/12 
f 36/67/7 35/68/7 38/69/7 37/70/7 
# 38 polygons

