# 3ds Max Wavefront OBJ Exporter v0.97b - (c)2007 guruware
# File Created: 12.05.2017 11:47:48

mtllib bathroomtoiletlid.mtl

#
# object Object011
#

v  333.5106 18.2822 116.3221
v  330.5951 18.2822 115.2609
v  329.7590 18.2822 116.2114
v  333.0327 18.2822 117.4029
v  328.2183 18.2822 113.2666
v  327.0903 18.2822 113.9720
v  326.6670 18.2822 110.5797
v  325.3484 18.2822 110.9550
v  326.1282 18.2822 107.5242
v  324.7434 18.2822 107.5242
v  326.6670 18.2822 104.4687
v  325.3484 18.2822 104.0933
v  328.2183 18.2822 101.7817
v  327.0903 18.2822 101.0763
v  330.5951 18.2822 99.7874
v  329.7590 18.2822 98.8370
v  333.5106 18.2822 98.7262
v  333.0327 18.2822 97.6455
v  345.8028 18.2822 97.6455
v  344.5620 18.2822 97.6455
v  344.5620 18.2822 98.7262
v  345.8028 18.2822 98.7262
v  344.5620 18.2822 117.4029
v  344.5620 18.2822 116.3221
v  345.8028 18.2822 117.4029
v  345.8028 18.2822 116.3221
v  333.0231 16.8733 117.5940
v  344.7755 16.8733 117.5940
v  344.7755 18.0474 117.5940
v  333.0231 18.0474 117.5940
v  346.0403 16.8733 117.5940
v  346.0403 18.0474 117.5940
v  346.0403 16.8733 116.4924
v  346.0403 18.0474 116.4924
v  346.0403 16.8733 98.5560
v  346.0403 18.0474 98.5560
v  346.0403 16.8733 97.4543
v  346.0403 18.0474 97.4543
v  344.7755 16.8733 97.4543
v  344.7755 18.0474 97.4543
v  333.0231 16.8733 97.4543
v  333.0231 18.0474 97.4543
v  329.6860 16.8733 98.6689
v  329.6860 18.0474 98.6689
v  326.9657 16.8733 100.9515
v  326.9657 18.0474 100.9515
v  325.1901 16.8733 104.0269
v  325.1901 18.0474 104.0269
v  324.5734 16.8733 107.5242
v  324.5734 18.0474 107.5242
v  325.1901 16.8733 111.0214
v  325.1901 18.0474 111.0214
v  326.9657 16.8733 114.0968
v  326.9657 18.0474 114.0968
v  329.6860 16.8733 116.3795
v  329.6860 18.0474 116.3795
v  333.1475 17.6169 98.1598
v  344.7755 17.6169 98.1598
v  344.7755 17.6169 116.8885
v  333.1475 17.6169 116.8885
v  333.1475 16.8733 116.8885
v  344.7755 16.8733 116.8885
v  330.0443 16.8733 115.7590
v  327.5145 16.8733 113.6363
v  325.8633 16.8733 110.7764
v  325.2898 16.8733 107.5242
v  325.8633 16.8733 104.2720
v  327.5145 16.8733 101.4120
v  330.0443 16.8733 99.2893
v  333.1475 16.8733 98.1598
v  344.7755 16.8733 98.1598
v  345.3347 16.8733 98.1598
v  345.3347 16.8733 98.5560
v  345.3347 16.8733 116.4924
v  345.3347 16.8733 116.8885
v  327.5145 17.6169 113.6363
v  327.5145 17.6169 101.4120
v  330.0443 17.6169 99.2893
v  330.0443 17.6169 115.7590
v  325.8633 17.6169 110.7764
v  325.8633 17.6169 104.2720
v  325.2898 17.6169 107.5242
v  345.3347 17.6169 98.1598
v  345.3347 17.6169 98.5560
v  345.3347 17.6169 116.4924
v  345.3347 17.6169 116.8885
# 86 vertices

vn -0.0000 1.0000 0.0000
vn -0.0000 1.0000 -0.0000
vn 0.0000 1.0000 -0.0000
vn -0.0000 -0.0000 1.0000
vn 1.0000 0.0000 -0.0000
vn 0.0000 -0.0000 -1.0000
vn -0.3420 -0.0000 -0.9397
vn -0.6428 -0.0000 -0.7660
vn -0.8660 -0.0000 -0.5000
vn -0.9848 -0.0000 -0.1736
vn -0.9848 -0.0000 0.1736
vn -0.8660 -0.0000 0.5000
vn -0.6428 -0.0000 0.7660
vn -0.3420 -0.0000 0.9397
vn -0.0000 0.6313 0.7755
vn 0.7031 0.7111 0.0000
vn 0.7031 0.7111 -0.0000
vn 0.0000 0.6313 -0.7755
vn -0.2698 0.6145 -0.7413
vn -0.5147 0.5990 -0.6134
vn -0.7011 0.5871 -0.4048
vn -0.8019 0.5805 -0.1414
vn -0.8019 0.5805 0.1414
vn -0.7011 0.5871 0.4048
vn -0.5147 0.5990 0.6134
vn -0.2698 0.6145 0.7413
vn 0.0000 -1.0000 -0.0000
vn 0.0000 -1.0000 0.0000
vn 0.0000 0.0000 -1.0000
vn 0.3420 0.0000 -0.9397
vn 0.6428 0.0000 -0.7660
vn 0.8660 0.0000 -0.5000
vn 0.9848 0.0000 -0.1736
vn 0.9848 0.0000 0.1736
vn 0.8660 0.0000 0.5000
vn 0.6428 0.0000 0.7660
vn 0.3420 0.0000 0.9397
vn 0.0000 0.0000 1.0000
vn -1.0000 0.0000 -0.0000
# 39 vertex normals

vt 0.9924 0.4132 0.2500
vt 0.9330 0.2500 0.2500
vt 0.8214 0.1170 0.2500
vt 0.6710 0.0302 0.2500
vt 0.5000 0.0000 0.2500
vt 0.3290 0.0302 0.2500
vt 0.1786 0.1170 0.2500
vt 0.0670 0.2500 0.2500
vt 0.0076 0.4132 0.2500
vt 0.0076 0.5868 0.2500
vt 0.0076 0.5000 0.2500
vt 0.9924 0.5000 0.2500
vt 0.9924 0.5868 0.2500
# 13 texture coords

g Object011
usemtl Material__80
s off
f 1/1/1 2/2/1 3/2/1 4/1/1 
f 2/2/1 5/3/1 6/3/1 3/2/1 
f 5/3/1 7/4/1 8/4/1 6/3/1 
f 7/4/1 9/5/1 10/5/1 8/4/1 
f 9/5/2 11/6/2 12/6/2 10/5/2 
f 11/6/2 13/7/2 14/7/2 12/6/2 
f 13/7/2 15/8/2 16/8/2 14/7/2 
f 15/8/2 17/9/2 18/9/2 16/8/2 
f 19/10/3 20/11/3 21/11/3 22/10/3 
f 1/1/1 4/1/1 23/12/1 24/12/1 
f 20/11/2 18/9/2 17/9/2 21/11/2 
f 25/13/1 26/13/1 24/12/1 23/12/1 
s 1
f 21/10/3 24/11/3 26/13/3 22/9/3 
s off
f 1/1/3 15/8/3 2/2/3 
f 27/1/4 28/12/4 29/12/4 30/1/4 
f 28/12/4 31/13/4 32/13/4 29/12/4 
f 31/13/5 33/13/5 34/13/5 32/13/5 
f 33/13/5 35/9/5 36/9/5 34/13/5 
f 35/10/5 37/10/5 38/10/5 36/10/5 
f 37/10/6 39/11/6 40/11/6 38/10/6 
f 39/11/6 41/9/6 42/9/6 40/11/6 
f 41/9/7 43/8/7 44/8/7 42/9/7 
f 43/8/8 45/7/8 46/7/8 44/8/8 
f 45/7/9 47/6/9 48/6/9 46/7/9 
f 47/6/10 49/5/10 50/5/10 48/6/10 
f 49/5/11 51/4/11 52/4/11 50/5/11 
f 51/4/12 53/3/12 54/3/12 52/4/12 
f 53/3/13 55/2/13 56/2/13 54/3/13 
f 55/2/14 27/1/14 30/1/14 56/2/14 
f 30/1/15 29/12/15 23/12/15 4/1/15 
f 29/12/15 32/13/15 25/13/15 23/12/15 
f 32/13/16 34/13/16 26/13/16 25/13/16 
f 34/13/17 36/9/17 22/9/17 26/13/17 
f 36/10/17 38/10/17 19/10/17 22/10/17 
f 38/10/18 40/11/18 20/11/18 19/10/18 
f 40/11/18 42/9/18 18/9/18 20/11/18 
f 42/9/19 44/8/19 16/8/19 18/9/19 
f 44/8/20 46/7/20 14/7/20 16/8/20 
f 46/7/21 48/6/21 12/6/21 14/7/21 
f 48/6/22 50/5/22 10/5/22 12/6/22 
f 50/5/23 52/4/23 8/4/23 10/5/23 
f 52/4/24 54/3/24 6/3/24 8/4/24 
f 54/3/25 56/2/25 3/2/25 6/3/25 
f 56/2/26 30/1/26 4/1/26 3/2/26 
f 57/9/27 58/11/27 59/12/27 60/1/27 
f 28/12/27 27/1/27 61/1/27 62/12/27 
f 27/1/27 55/2/27 63/2/27 61/1/27 
f 55/2/27 53/3/27 64/3/27 63/2/27 
f 53/3/27 51/4/27 65/4/27 64/3/27 
f 51/4/27 49/5/27 66/5/27 65/4/27 
f 49/5/27 47/6/27 67/6/27 66/5/27 
f 47/6/27 45/7/27 68/7/27 67/6/27 
f 45/7/27 43/8/27 69/8/27 68/7/27 
f 43/8/27 41/9/27 70/9/27 69/8/27 
f 41/9/27 39/11/27 71/11/27 70/9/27 
f 39/11/27 37/10/27 72/10/27 71/11/27 
f 37/10/28 35/10/28 73/10/28 72/10/28 
f 35/10/27 33/13/27 74/13/27 73/10/27 
f 33/13/27 31/13/27 75/13/27 74/13/27 
f 31/13/27 28/12/27 62/12/27 75/13/27 
f 21/10/3 17/9/3 15/8/3 24/12/3 
f 1/1/3 24/12/3 15/8/3 
f 15/8/3 13/7/3 11/6/3 2/2/3 
f 11/6/3 9/5/3 7/4/3 2/2/3 
f 7/4/3 5/3/3 2/2/3 
f 76/3/27 77/7/27 78/8/27 79/2/27 
f 80/4/27 81/6/27 77/7/27 76/3/27 
f 80/4/27 82/5/27 81/6/27 
f 79/2/27 78/8/27 57/9/27 60/1/27 
f 58/11/28 83/10/28 84/10/28 85/13/28 
f 85/13/27 86/13/27 59/12/27 58/11/27 
f 62/12/29 61/1/29 60/1/29 59/12/29 
f 61/1/30 63/2/30 79/2/30 60/1/30 
f 63/2/31 64/3/31 76/3/31 79/2/31 
f 64/3/32 65/4/32 80/4/32 76/3/32 
f 65/4/33 66/5/33 82/5/33 80/4/33 
f 66/5/34 67/6/34 81/6/34 82/5/34 
f 67/6/35 68/7/35 77/7/35 81/6/35 
f 68/7/36 69/8/36 78/8/36 77/7/36 
f 69/8/37 70/9/37 57/9/37 78/8/37 
f 70/9/38 71/11/38 58/11/38 57/9/38 
f 71/11/38 72/10/38 83/10/38 58/11/38 
f 72/10/39 73/10/39 84/10/39 83/10/39 
f 73/10/39 74/13/39 85/13/39 84/10/39 
f 74/13/39 75/13/39 86/13/39 85/13/39 
f 75/13/29 62/12/29 59/12/29 86/13/29 
# 82 polygons - 4 triangles

