# 3ds Max Wavefront OBJ Exporter v0.97b - (c)2007 guruware
# File Created: 12.05.2017 11:47:38

mtllib bathroomtoiletbase.mtl

#
# object Cylinder002
#

v  346.4688 6.7847 102.4477
v  344.5558 6.7847 101.7514
v  346.5946 7.5798 100.4110
v  348.9518 7.5798 101.2690
v  334.1810 6.7847 101.7514
v  333.8107 7.5798 100.4110
v  332.2680 6.7847 102.4477
v  331.4535 7.5798 101.2690
v  330.7085 6.7847 103.7563
v  329.5319 7.5798 102.8814
v  329.6906 6.7847 105.5193
v  328.2776 7.5798 105.0538
v  329.3371 6.7847 107.5242
v  327.8421 7.5798 107.5242
v  329.6906 6.7847 109.5290
v  328.2776 7.5798 109.9945
v  330.7085 6.7847 111.2920
v  329.5319 7.5798 112.1669
v  332.2680 6.7847 112.6006
v  331.4535 7.5798 113.7794
v  334.1810 6.7847 113.2969
v  333.8107 7.5798 114.6373
v  344.5558 6.7847 113.2969
v  346.5946 7.5798 114.6373
v  346.4688 6.7847 112.6006
v  348.9518 7.5798 113.7794
v  348.1647 8.6121 99.3787
v  350.8640 8.6121 100.3612
v  333.5255 8.6121 99.3787
v  330.8263 8.6121 100.3612
v  328.6258 8.6121 102.2076
v  327.1895 8.6121 104.6953
v  326.6907 8.6121 107.5242
v  327.1895 8.6121 110.3531
v  328.6258 8.6121 112.8407
v  330.8263 8.6121 114.6872
v  333.5255 8.6121 115.6696
v  348.1647 8.6121 115.6696
v  350.8640 8.6121 114.6872
v  349.9627 10.5705 98.1966
v  353.0537 10.5705 99.3217
v  333.1990 10.5705 98.1966
v  330.1080 10.5705 99.3217
v  327.5882 10.5705 101.4360
v  325.9435 10.5705 104.2847
v  325.3723 10.5705 107.5242
v  325.9435 10.5705 110.7636
v  327.5882 10.5705 113.6123
v  330.1080 10.5705 115.7267
v  333.1990 10.5705 116.8517
v  349.9627 10.5705 116.8517
v  353.0537 10.5705 115.7267
v  350.6490 12.5188 97.7454
v  353.8895 12.5188 98.9249
v  333.0744 12.5188 97.7454
v  329.8338 12.5188 98.9249
v  327.1921 12.5188 101.1415
v  325.4678 12.5188 104.1280
v  324.8690 12.5188 107.5242
v  325.4678 12.5188 110.9203
v  327.1921 12.5188 113.9068
v  329.8338 12.5188 116.1235
v  333.0744 12.5188 117.3029
v  350.6490 12.5188 117.3029
v  353.8895 12.5188 116.1235
v  353.8895 14.3410 98.9249
v  353.8895 14.3410 116.1235
v  350.6490 14.3410 97.7454
v  333.0744 14.3410 97.7454
v  329.8338 14.3410 98.9249
v  327.1921 14.3410 101.1415
v  325.4678 14.3410 104.1280
v  324.8690 14.3410 107.5242
v  325.4678 14.3410 110.9203
v  327.1921 14.3410 113.9068
v  329.8338 14.3410 116.1235
v  333.0744 14.3410 117.3029
v  350.6490 14.3410 117.3029
v  346.9108 34.2540 98.6527
v  354.1621 34.2540 98.8541
v  350.7018 34.2540 97.5421
v  344.7206 -0.3835 113.5761
v  333.8438 -0.3835 113.5761
v  331.8383 -0.3835 112.8462
v  329.1362 -0.3835 109.6260
v  330.2033 -0.3835 111.4743
v  328.7656 -0.3835 107.5242
v  329.1362 -0.3835 105.4223
v  331.8383 -0.3835 102.2021
v  330.2033 -0.3835 103.5740
v  344.7206 -0.3835 101.4722
v  333.8438 -0.3835 101.4722
v  346.7261 -0.3835 102.2021
v  346.7261 -0.3835 112.8462
v  354.1317 14.3410 98.7553
v  350.7003 14.3410 97.4543
v  350.7003 16.3133 97.4543
v  354.1317 16.3133 98.7553
v  333.0231 14.3410 97.4543
v  333.0231 16.3133 97.4543
v  329.6860 14.3410 98.6689
v  329.6860 16.3133 98.6689
v  326.9657 14.3410 100.9515
v  326.9657 16.3133 100.9515
v  325.1901 14.3410 104.0269
v  325.1901 16.3133 104.0269
v  324.5734 14.3410 107.5242
v  324.5734 16.3133 107.5242
v  325.1901 14.3410 111.0214
v  325.1901 16.3133 111.0214
v  326.9657 14.3410 114.0968
v  326.9657 16.3133 114.0968
v  329.6860 14.3410 116.3795
v  329.6860 16.3133 116.3795
v  333.0231 14.3410 117.5940
v  333.0231 16.3133 117.5940
v  350.7003 14.3410 117.5940
v  350.7003 16.3133 117.5940
v  354.1317 14.3410 116.2930
v  354.1317 16.3133 116.2930
v  346.9108 34.2540 116.3956
v  350.7018 34.2540 117.5063
v  354.1621 34.2540 116.1943
v  346.9400 16.3133 116.4924
v  344.8175 16.3133 116.4923
v  333.5103 16.3133 116.4923
v  330.5383 16.3133 115.4107
v  328.1156 16.3133 113.3777
v  326.5342 16.3133 110.6388
v  325.9850 16.3133 107.5242
v  326.5342 16.3133 104.4096
v  328.1156 16.3133 101.6706
v  330.5383 16.3133 99.6377
v  333.5103 16.3133 98.5560
v  344.8176 16.3133 98.5560
v  346.9400 16.3133 98.5560
v  349.5943 34.2931 109.4860
v  351.4787 34.2931 109.4630
v  351.4787 34.2931 105.5853
v  349.5943 34.2931 105.5624
v  350.7003 16.7665 97.4543
v  354.1317 16.7665 98.7553
v  346.9400 16.7665 98.5560
v  346.9400 16.7665 116.4924
v  350.7003 16.7665 117.5940
v  354.1317 16.7665 116.2930
v  350.6962 16.8665 97.5597
v  354.0316 16.8665 98.8243
v  347.0400 16.8665 98.6309
v  347.0400 16.8665 116.4174
v  350.6962 16.8665 117.4886
v  354.0316 16.8665 116.2240
v  350.7003 16.9665 97.4543
v  354.1317 16.9665 98.7553
v  346.9400 16.9665 98.5560
v  346.9400 16.9665 116.4924
v  350.7003 16.9665 117.5940
v  354.1317 16.9665 116.2930
v  350.7003 32.5022 97.4543
v  354.1317 32.5022 98.7553
v  346.9400 32.5022 98.5560
v  346.9400 32.5022 116.4924
v  350.7003 32.5022 117.5940
v  354.1317 32.5022 116.2930
v  350.7044 32.6022 97.3489
v  354.2317 32.6022 98.6863
v  346.8400 32.6022 98.4811
v  346.8400 32.6022 116.5673
v  350.7044 32.6022 117.6994
v  354.2317 32.6022 116.3621
v  350.7044 34.1553 97.3489
v  354.2317 34.1553 98.6863
v  346.8400 34.1553 98.4811
v  346.8400 34.1553 116.5673
v  350.7044 34.1553 117.6994
v  354.2317 34.1553 116.3621
v  336.4983 7.5757 101.8725
v  334.6254 7.5757 102.5542
v  333.0986 7.5757 103.8353
v  331.7560 7.5757 107.5242
v  332.1021 7.5757 105.5614
v  332.1021 7.5757 109.4870
v  333.0986 7.5757 111.2130
v  336.4983 7.5757 113.1758
v  334.6254 7.5757 112.4942
v  342.7345 7.5757 113.1759
v  342.7345 7.5757 101.8725
v  333.5103 14.7848 98.5560
v  344.8176 14.7848 98.5560
v  330.5383 14.7848 99.6377
v  328.1156 14.7848 101.6706
v  326.5342 14.7848 104.4096
v  325.9850 14.7848 107.5242
v  326.5342 14.7848 110.6388
v  328.1156 14.7848 113.3777
v  330.5383 14.7848 115.4107
v  333.5103 14.7848 116.4923
v  344.8175 14.7848 116.4923
v  333.5651 14.7355 98.2089
v  345.3100 14.7355 98.2089
v  330.4782 14.7355 99.3325
v  327.9617 14.7355 101.4441
v  326.3191 14.7355 104.2890
v  325.7487 14.7355 107.5242
v  326.3191 14.7355 110.7593
v  327.9617 14.7355 113.6043
v  330.4782 14.7355 115.7159
v  333.5651 14.7355 116.8394
v  345.3100 14.7355 116.8394
v  335.0314 11.3333 98.2089
v  345.3100 11.3333 98.2089
v  331.9445 11.3333 99.3325
v  329.4280 11.3333 101.4441
v  327.7855 11.3333 104.2890
v  327.2150 11.3333 107.5242
v  327.7855 11.3333 110.7593
v  329.4280 11.3333 113.6043
v  331.9445 11.3333 115.7159
v  335.0314 11.3333 116.8394
v  345.3100 11.3333 116.8394
v  351.6866 34.2540 109.6685
v  349.3863 34.2540 109.6965
v  351.6866 34.2540 105.3798
v  349.3863 34.2540 105.3518
v  351.6866 34.4105 109.6685
v  349.3863 34.4105 109.6965
v  351.6866 34.4105 105.3798
v  349.3863 34.4105 105.3518
v  351.4787 34.4105 109.4630
v  349.5943 34.4105 109.4860
v  351.4787 34.4105 105.5853
v  349.5943 34.4105 105.5624
# 232 vertices

vn 0.2146 -0.9573 -0.1936
vn 0.0362 -0.8827 -0.4685
vn 0.0780 -0.8348 -0.5450
vn 0.3075 -0.9178 -0.2510
vn -0.0813 -0.8669 -0.4917
vn -0.1045 -0.7923 -0.6011
vn -0.2395 -0.8736 -0.4237
vn -0.2982 -0.8010 -0.5190
vn -0.3637 -0.8787 -0.3093
vn -0.4510 -0.8078 -0.3796
vn -0.4426 -0.8818 -0.1628
vn -0.5483 -0.8120 -0.2001
vn -0.4695 -0.8829 -0.0000
vn -0.5816 -0.8135 -0.0000
vn -0.4426 -0.8818 0.1628
vn -0.5483 -0.8120 0.2001
vn -0.3637 -0.8787 0.3093
vn -0.4510 -0.8078 0.3796
vn -0.2395 -0.8736 0.4237
vn -0.2982 -0.8010 0.5190
vn -0.0813 -0.8669 0.4917
vn -0.1045 -0.7923 0.6011
vn 0.0362 -0.8827 0.4685
vn 0.0780 -0.8348 0.5450
vn 0.2146 -0.9573 0.1936
vn 0.3075 -0.9178 0.2510
vn 0.1146 -0.6871 -0.7175
vn 0.4535 -0.8185 -0.3526
vn -0.1354 -0.6219 -0.7713
vn -0.3865 -0.6332 -0.6705
vn -0.5870 -0.6422 -0.4931
vn -0.7157 -0.6479 -0.2607
vn -0.7601 -0.6498 -0.0000
vn -0.7157 -0.6479 0.2607
vn -0.5870 -0.6422 0.4931
vn -0.3865 -0.6332 0.6705
vn -0.1354 -0.6219 0.7713
vn 0.1146 -0.6871 0.7175
vn 0.4535 -0.8185 0.3526
vn 0.1599 -0.4471 -0.8801
vn 0.6632 -0.5768 -0.4769
vn -0.1614 -0.3797 -0.9109
vn -0.4612 -0.3892 -0.7974
vn -0.7035 -0.3968 -0.5897
vn -0.8606 -0.4017 -0.3130
vn -0.9150 -0.4033 -0.0000
vn -0.8606 -0.4017 0.3130
vn -0.7035 -0.3968 0.5897
vn -0.4612 -0.3892 0.7974
vn -0.1614 -0.3797 0.9109
vn 0.1599 -0.4471 0.8801
vn 0.6632 -0.5768 0.4769
vn 0.1861 -0.1423 -0.9722
vn 0.8074 -0.2026 -0.5541
vn -0.1736 -0.1157 -0.9780
vn -0.4973 -0.1191 -0.8594
vn -0.7608 -0.1219 -0.6374
vn -0.9326 -0.1237 -0.3390
vn -0.9922 -0.1243 -0.0000
vn -0.9326 -0.1237 0.3390
vn -0.7608 -0.1219 0.6374
vn -0.4973 -0.1191 0.8594
vn -0.1736 -0.1157 0.9780
vn 0.1861 -0.1423 0.9722
vn 0.8074 -0.2026 0.5541
vn 0.8192 0.0000 -0.5736
vn 0.8192 0.0000 0.5736
vn 0.1736 0.0000 -0.9848
vn -0.1736 0.0000 -0.9848
vn -0.5000 0.0000 -0.8660
vn -0.7660 0.0000 -0.6428
vn -0.9397 0.0000 -0.3420
vn -1.0000 0.0000 -0.0000
vn -0.9397 0.0000 0.3420
vn -0.7660 0.0000 0.6428
vn -0.5000 0.0000 0.8660
vn -0.1736 0.0000 0.9848
vn 0.1736 0.0000 0.9848
vn 0.0000 1.0000 -0.0000
vn 0.0000 -1.0000 -0.0000
vn 0.3417 0.0444 -0.9388
vn 0.9994 0.0359 0.0000
vn 0.3417 0.0444 0.9388
vn -0.0000 0.0389 0.9992
vn -0.3415 0.0526 0.9384
vn -0.6414 0.0646 0.7644
vn -0.8637 0.0735 0.4986
vn -0.9818 0.0783 0.1731
vn -0.9818 0.0783 -0.1731
vn -0.8637 0.0735 -0.4986
vn -0.6414 0.0646 -0.7644
vn -0.3415 0.0526 -0.9384
vn 0.0000 0.0389 -0.9992
vn 0.3545 0.0000 -0.9350
vn 0.0000 0.0000 -1.0000
vn -0.3420 0.0000 -0.9397
vn -0.6428 0.0000 -0.7660
vn -0.8660 0.0000 -0.5000
vn -0.9848 0.0000 -0.1736
vn -0.9848 0.0000 0.1736
vn -0.8660 0.0000 0.5000
vn -0.6428 0.0000 0.7660
vn -0.3420 0.0000 0.9397
vn -0.0000 0.0000 1.0000
vn 0.3545 0.0000 0.9350
vn 1.0000 0.0000 0.0000
vn -0.0000 1.0000 0.0000
vn -0.0000 1.0000 -0.0000
vn 0.3545 -0.0000 -0.9350
vn -0.2812 0.0000 -0.9597
vn -0.2812 0.0000 0.9597
vn 0.2507 0.7071 -0.6612
vn -0.1988 0.7071 -0.6786
vn -0.7071 0.7071 -0.0000
vn -0.1988 0.7071 0.6786
vn 0.2507 0.7071 0.6612
vn 0.7071 0.7071 0.0000
vn 0.2507 -0.7071 -0.6612
vn -0.1988 -0.7071 -0.6786
vn -0.7071 -0.7071 -0.0000
vn -0.1988 -0.7071 0.6786
vn 0.2507 -0.7071 0.6612
vn 0.7071 -0.7071 0.0000
vn -0.2812 -0.0000 -0.9597
vn -0.2812 -0.0000 0.9597
vn 0.3545 -0.0000 0.9350
vn 1.0000 -0.0000 0.0000
vn 0.1692 0.8787 -0.4464
vn -0.1325 0.8821 -0.4521
vn -0.8123 0.5832 -0.0000
vn -0.1325 0.8821 0.4521
vn 0.1692 0.8787 0.4464
vn 0.8173 0.5762 0.0000
vn 0.3420 0.0000 0.9397
vn 0.6428 0.0000 0.7660
vn 0.8660 0.0000 0.5000
vn 0.9848 0.0000 0.1736
vn 0.9848 0.0000 -0.1736
vn 0.8660 0.0000 -0.5000
vn 0.6428 0.0000 -0.7660
vn 0.3420 0.0000 -0.9397
vn -0.0000 -0.9901 0.1407
vn 0.0542 -0.9874 0.1488
vn 0.1145 -0.9840 0.1364
vn 0.1698 -0.9806 0.0981
vn 0.2041 -0.9783 0.0360
vn 0.2041 -0.9783 -0.0360
vn 0.1698 -0.9806 -0.0981
vn 0.1145 -0.9840 -0.1364
vn 0.0542 -0.9874 -0.1488
vn 0.0000 -0.9901 -0.1407
vn -0.0996 -0.9950 -0.0000
vn -0.0000 -0.0000 1.0000
vn 0.3384 0.1458 0.9296
vn 0.6195 0.2670 0.7382
vn 0.8113 0.3497 0.4684
vn 0.9065 0.3907 0.1598
vn 0.9065 0.3907 -0.1598
vn 0.8113 0.3497 -0.4684
vn 0.6195 0.2670 -0.7382
vn 0.3384 0.1458 -0.9296
vn -0.0000 0.6981 0.7160
vn 0.2359 0.7240 0.6482
vn 0.4291 0.7446 0.5114
vn 0.5643 0.7586 0.3258
vn 0.6335 0.7656 0.1117
vn 0.6335 0.7656 -0.1117
vn 0.5643 0.7586 -0.3258
vn 0.4291 0.7446 -0.5114
vn 0.2359 0.7240 -0.6482
vn 0.0000 0.6981 -0.7160
vn -0.8248 0.5654 -0.0000
vn 0.0122 0.0000 0.9999
vn 0.0122 0.0000 -0.9999
vn -0.0122 0.0000 -0.9999
vn -0.0122 0.0000 0.9999
# 176 vertex normals

vt 0.9167 0.0000 1.0000
vt 0.9722 0.0000 1.0000
vt 0.9722 0.2000 1.0000
vt 0.9167 0.2000 1.0000
vt 1.0278 0.0000 1.0000
vt 1.0278 0.2000 1.0000
vt 0.0278 0.0000 1.0000
vt 0.0833 0.0000 1.0000
vt 0.0833 0.2000 1.0000
vt 0.0278 0.2000 1.0000
vt 0.1389 0.0000 1.0000
vt 0.1389 0.2000 1.0000
vt 0.1944 0.0000 1.0000
vt 0.1944 0.2000 1.0000
vt 0.2500 0.0000 1.0000
vt 0.2500 0.2000 1.0000
vt 0.3056 0.0000 1.0000
vt 0.3056 0.2000 1.0000
vt 0.3611 0.0000 1.0000
vt 0.3611 0.2000 1.0000
vt 0.4167 0.0000 1.0000
vt 0.4167 0.2000 1.0000
vt 0.4722 0.0000 1.0000
vt 0.4722 0.2000 1.0000
vt 0.5278 0.0000 1.0000
vt 0.5278 0.2000 1.0000
vt 0.5833 0.0000 1.0000
vt 0.5833 0.2000 1.0000
vt 0.9722 0.4000 1.0000
vt 0.9167 0.4000 1.0000
vt 1.0278 0.4000 1.0000
vt 0.0833 0.4000 1.0000
vt 0.0278 0.4000 1.0000
vt 0.1389 0.4000 1.0000
vt 0.1944 0.4000 1.0000
vt 0.2500 0.4000 1.0000
vt 0.3056 0.4000 1.0000
vt 0.3611 0.4000 1.0000
vt 0.4167 0.4000 1.0000
vt 0.4722 0.4000 1.0000
vt 0.5278 0.4000 1.0000
vt 0.5833 0.4000 1.0000
vt 0.9722 0.6000 1.0000
vt 0.9167 0.6000 1.0000
vt 1.0278 0.6000 1.0000
vt 0.0833 0.6000 1.0000
vt 0.0278 0.6000 1.0000
vt 0.1389 0.6000 1.0000
vt 0.1944 0.6000 1.0000
vt 0.2500 0.6000 1.0000
vt 0.3056 0.6000 1.0000
vt 0.3611 0.6000 1.0000
vt 0.4167 0.6000 1.0000
vt 0.4722 0.6000 1.0000
vt 0.5278 0.6000 1.0000
vt 0.5833 0.6000 1.0000
vt 0.9722 0.8000 1.0000
vt 0.9167 0.8000 1.0000
vt 1.0278 0.8000 1.0000
vt 0.0833 0.8000 1.0000
vt 0.0278 0.8000 1.0000
vt 0.1389 0.8000 1.0000
vt 0.1944 0.8000 1.0000
vt 0.2500 0.8000 1.0000
vt 0.3056 0.8000 1.0000
vt 0.3611 0.8000 1.0000
vt 0.4167 0.8000 1.0000
vt 0.4722 0.8000 1.0000
vt 0.5278 0.8000 1.0000
vt 0.5833 0.8000 1.0000
vt 0.9167 1.0000 1.0000
vt 0.5833 1.0000 1.0000
vt 0.9722 1.0000 1.0000
vt 1.0278 1.0000 1.0000
vt 0.0833 1.0000 1.0000
vt 0.0278 1.0000 1.0000
vt 0.1389 1.0000 1.0000
vt 0.1944 1.0000 1.0000
vt 0.2500 1.0000 1.0000
vt 0.3056 1.0000 1.0000
vt 0.3611 1.0000 1.0000
vt 0.4167 1.0000 1.0000
vt 0.4722 1.0000 1.0000
vt 0.5278 1.0000 1.0000
vt 0.0076 0.5868 0.2500
vt 0.0670 0.7500 0.2500
vt 0.9924 0.5868 -0.2500
vt 0.9924 0.4132 -0.2500
vt 0.9330 0.2500 -0.2500
vt 0.6710 0.0302 -0.2500
vt 0.8214 0.1170 -0.2500
vt 0.5000 0.0000 -0.2500
vt 0.3290 0.0302 -0.2500
vt 0.0670 0.2500 -0.2500
vt 0.1786 0.1170 -0.2500
vt 0.0076 0.5868 -0.2500
vt 0.0076 0.4132 -0.2500
vt 0.9330 0.7500 -0.2500
vt 0.0076 0.4132 0.2500
vt 0.0670 0.2500 0.2500
vt 0.1786 0.1170 0.2500
vt 0.3290 0.0302 0.2500
vt 0.5000 0.0000 0.2500
vt 0.6710 0.0302 0.2500
vt 0.8214 0.1170 0.2500
vt 0.9330 0.2500 0.2500
vt 0.9924 0.4132 0.2500
vt 0.9924 0.5868 0.2500
vt 0.9330 0.7500 0.2500
vt 0.9924 0.5000 0.2500
vt 0.0076 0.5000 0.2500
# 111 texture coords

g Cylinder002
usemtl Material__81
s 8
f 1/1/1 2/2/2 3/3/3 4/4/4 
f 2/2/2 5/5/5 6/6/6 3/3/3 
f 5/7/5 7/8/7 8/9/8 6/10/6 
f 7/8/7 9/11/9 10/12/10 8/9/8 
f 9/11/9 11/13/11 12/14/12 10/12/10 
f 11/13/11 13/15/13 14/16/14 12/14/12 
f 13/15/13 15/17/15 16/18/16 14/16/14 
f 15/17/15 17/19/17 18/20/18 16/18/16 
f 17/19/17 19/21/19 20/22/20 18/20/18 
f 19/21/19 21/23/21 22/24/22 20/22/20 
f 21/23/21 23/25/23 24/26/24 22/24/22 
f 23/25/23 25/27/25 26/28/26 24/26/24 
f 4/4/4 3/3/3 27/29/27 28/30/28 
f 3/3/3 6/6/6 29/31/29 27/29/27 
f 6/10/6 8/9/8 30/32/30 29/33/29 
f 8/9/8 10/12/10 31/34/31 30/32/30 
f 10/12/10 12/14/12 32/35/32 31/34/31 
f 12/14/12 14/16/14 33/36/33 32/35/32 
f 14/16/14 16/18/16 34/37/34 33/36/33 
f 16/18/16 18/20/18 35/38/35 34/37/34 
f 18/20/18 20/22/20 36/39/36 35/38/35 
f 20/22/20 22/24/22 37/40/37 36/39/36 
f 22/24/22 24/26/24 38/41/38 37/40/37 
f 24/26/24 26/28/26 39/42/39 38/41/38 
f 28/30/28 27/29/27 40/43/40 41/44/41 
f 27/29/27 29/31/29 42/45/42 40/43/40 
f 29/33/29 30/32/30 43/46/43 42/47/42 
f 30/32/30 31/34/31 44/48/44 43/46/43 
f 31/34/31 32/35/32 45/49/45 44/48/44 
f 32/35/32 33/36/33 46/50/46 45/49/45 
f 33/36/33 34/37/34 47/51/47 46/50/46 
f 34/37/34 35/38/35 48/52/48 47/51/47 
f 35/38/35 36/39/36 49/53/49 48/52/48 
f 36/39/36 37/40/37 50/54/50 49/53/49 
f 37/40/37 38/41/38 51/55/51 50/54/50 
f 38/41/38 39/42/39 52/56/52 51/55/51 
f 41/44/41 40/43/40 53/57/53 54/58/54 
f 40/43/40 42/45/42 55/59/55 53/57/53 
f 42/47/42 43/46/43 56/60/56 55/61/55 
f 43/46/43 44/48/44 57/62/57 56/60/56 
f 44/48/44 45/49/45 58/63/58 57/62/57 
f 45/49/45 46/50/46 59/64/59 58/63/58 
f 46/50/46 47/51/47 60/65/60 59/64/59 
f 47/51/47 48/52/48 61/66/61 60/65/60 
f 48/52/48 49/53/49 62/67/62 61/66/61 
f 49/53/49 50/54/50 63/68/63 62/67/62 
f 50/54/50 51/55/51 64/69/64 63/68/63 
f 51/55/51 52/56/52 65/70/65 64/69/64 
s 9
f 65/70/65 54/58/54 66/71/66 67/72/67 
s 8
f 54/58/54 53/57/53 68/73/68 66/71/66 
f 53/57/53 55/59/55 69/74/69 68/73/68 
f 55/61/55 56/60/56 70/75/70 69/76/69 
f 56/60/56 57/62/57 71/77/71 70/75/70 
f 57/62/57 58/63/58 72/78/72 71/77/71 
f 58/63/58 59/64/59 73/79/73 72/78/72 
f 59/64/59 60/65/60 74/80/74 73/79/73 
f 60/65/60 61/66/61 75/81/75 74/80/74 
f 61/66/61 62/67/62 76/82/76 75/81/75 
f 62/67/62 63/68/63 77/83/77 76/82/76 
f 63/68/63 64/69/64 78/84/78 77/83/77 
f 64/69/64 65/70/65 67/72/67 78/84/78 
s 1
f 79/85/79 80/86/79 81/85/79 
s 9
f 82/87/80 83/88/80 84/89/80 85/90/80 
f 84/89/80 86/91/80 85/90/80 
f 85/90/80 87/92/80 88/93/80 89/94/80 
f 88/93/80 90/95/80 89/94/80 
f 82/87/80 85/90/80 89/94/80 91/96/80 
f 89/94/80 92/97/80 91/96/80 
f 82/87/80 91/96/80 93/1/80 94/98/80 
f 25/98/25 1/1/1 4/4/4 26/28/26 
f 26/28/26 4/4/4 28/30/28 39/42/39 
f 39/42/39 28/30/28 41/44/41 52/56/52 
f 65/70/65 52/56/52 41/44/41 54/58/54 
s off
f 2/96/81 1/1/81 93/1/81 91/96/81 
f 1/1/82 25/98/82 94/98/82 93/1/82 
f 25/98/83 23/87/83 82/87/83 94/98/83 
f 23/87/84 21/88/84 83/88/84 82/87/84 
f 21/88/85 19/89/85 84/89/85 83/88/85 
f 19/89/86 17/91/86 86/91/86 84/89/86 
f 17/91/87 15/90/87 85/90/87 86/91/87 
f 15/90/88 13/92/88 87/92/88 85/90/88 
f 13/92/89 11/93/89 88/93/89 87/92/89 
f 11/93/90 9/95/90 90/95/90 88/93/90 
f 9/95/91 7/94/91 89/94/91 90/95/91 
f 7/94/92 5/97/92 92/97/92 89/94/92 
f 5/97/93 2/96/93 91/96/93 92/97/93 
f 95/86/94 96/85/94 97/85/94 98/86/94 
f 96/85/95 99/99/95 100/99/95 97/85/95 
f 99/99/96 101/100/96 102/100/96 100/99/96 
f 101/100/97 103/101/97 104/101/97 102/100/97 
f 103/101/98 105/102/98 106/102/98 104/101/98 
f 105/102/99 107/103/99 108/103/99 106/102/99 
f 107/103/100 109/104/100 110/104/100 108/103/100 
f 109/104/101 111/105/101 112/105/101 110/104/101 
f 111/105/102 113/106/102 114/106/102 112/105/102 
f 113/106/103 115/107/103 116/107/103 114/106/103 
f 115/107/104 117/108/104 118/108/104 116/107/104 
f 117/108/105 119/109/105 120/109/105 118/108/105 
f 119/109/106 95/86/106 98/86/106 120/109/106 
f 66/86/80 68/85/80 96/85/80 95/86/80 
f 68/85/80 69/99/80 99/99/80 96/85/80 
f 69/99/80 70/100/80 101/100/80 99/99/80 
f 70/100/80 71/101/80 103/101/80 101/100/80 
f 71/101/80 72/102/80 105/102/80 103/101/80 
f 72/102/80 73/103/80 107/103/80 105/102/80 
f 73/103/80 74/104/80 109/104/80 107/103/80 
f 74/104/80 75/105/80 111/105/80 109/104/80 
f 75/105/80 76/106/80 113/106/80 111/105/80 
f 76/106/80 77/107/80 115/107/80 113/106/80 
f 77/107/80 78/108/80 117/108/80 115/107/80 
f 78/108/80 67/109/80 119/109/80 117/108/80 
f 67/109/80 66/86/80 95/86/80 119/109/80 
f 121/108/79 122/108/79 123/109/79 
f 124/108/107 125/110/107 116/107/107 118/108/107 
f 126/107/107 127/106/107 114/106/107 116/107/107 
f 127/106/107 128/105/107 112/105/107 114/106/107 
f 128/105/107 129/104/107 110/104/107 112/105/107 
f 129/104/107 130/103/107 108/103/107 110/104/107 
f 130/103/108 131/102/108 106/102/108 108/103/108 
f 131/102/108 132/101/108 104/101/108 106/102/108 
f 132/101/108 133/100/108 102/100/108 104/101/108 
f 133/100/108 134/99/108 100/99/108 102/100/108 
f 134/99/79 135/111/79 100/99/79 
s 1
f 135/111/79 125/110/79 124/108/79 136/85/79 
f 137/108/79 138/109/79 139/86/79 140/85/79 
s off
f 98/86/109 97/85/109 141/85/109 142/86/109 
f 97/85/110 136/85/110 143/85/110 141/85/110 
f 136/85/73 124/108/73 144/108/73 143/85/73 
f 124/108/111 118/108/111 145/108/111 144/108/111 
f 118/108/105 120/109/105 146/109/105 145/108/105 
f 120/109/106 98/86/106 142/86/106 146/109/106 
f 142/86/112 141/85/112 147/85/112 148/86/112 
f 141/85/113 143/85/113 149/85/113 147/85/113 
f 143/85/114 144/108/114 150/108/114 149/85/114 
f 144/108/115 145/108/115 151/108/115 150/108/115 
f 145/108/116 146/109/116 152/109/116 151/108/116 
f 146/109/117 142/86/117 148/86/117 152/109/117 
f 148/86/118 147/85/118 153/85/118 154/86/118 
f 147/85/119 149/85/119 155/85/119 153/85/119 
f 149/85/120 150/108/120 156/108/120 155/85/120 
f 150/108/121 151/108/121 157/108/121 156/108/121 
f 151/108/122 152/109/122 158/109/122 157/108/122 
f 152/109/123 148/86/123 154/86/123 158/109/123 
f 154/86/109 153/85/109 159/85/109 160/86/109 
f 153/85/124 155/85/124 161/85/124 159/85/124 
f 155/85/73 156/108/73 162/108/73 161/85/73 
f 156/108/125 157/108/125 163/108/125 162/108/125 
f 157/108/126 158/109/126 164/109/126 163/108/126 
f 158/109/127 154/86/127 160/86/127 164/109/127 
f 160/86/118 159/85/118 165/85/118 166/86/118 
f 159/85/119 161/85/119 167/85/119 165/85/119 
f 161/85/120 162/108/120 168/108/120 167/85/120 
f 162/108/121 163/108/121 169/108/121 168/108/121 
f 163/108/122 164/109/122 170/109/122 169/108/122 
f 164/109/123 160/86/123 166/86/123 170/109/123 
f 166/86/94 165/85/94 171/85/94 172/86/94 
f 165/85/110 167/85/110 173/85/110 171/85/110 
f 167/85/73 168/108/73 174/108/73 173/85/73 
f 168/108/111 169/108/111 175/108/111 174/108/111 
f 169/108/105 170/109/105 176/109/105 175/108/105 
f 170/109/106 166/86/106 172/86/106 176/109/106 
f 172/86/128 171/85/128 81/85/128 80/86/128 
f 171/85/129 173/85/129 79/85/129 81/85/129 
f 173/85/130 174/108/130 121/108/130 79/85/130 
f 174/108/131 175/108/131 122/108/131 121/108/131 
f 175/108/132 176/109/132 123/109/132 122/108/132 
f 176/109/133 172/86/133 80/86/133 123/109/133 
s 1
f 177/99/79 178/100/79 179/101/79 180/103/79 
f 179/101/79 181/102/79 180/103/79 
f 180/103/79 182/104/79 183/105/79 184/107/79 
f 183/105/79 185/106/79 184/107/79 
f 177/99/79 180/103/79 184/107/79 186/110/79 
f 187/111/79 177/99/79 186/110/79 
s off
f 135/111/108 136/85/108 97/85/108 100/99/108 
f 125/110/107 126/107/107 116/107/107 
f 135/111/104 134/99/104 188/99/104 189/111/104 
f 134/99/134 133/100/134 190/100/134 188/99/134 
f 133/100/135 132/101/135 191/101/135 190/100/135 
f 132/101/136 131/102/136 192/102/136 191/101/136 
f 131/102/137 130/103/137 193/103/137 192/102/137 
f 130/103/138 129/104/138 194/104/138 193/103/138 
f 129/104/139 128/105/139 195/105/139 194/104/139 
f 128/105/140 127/106/140 196/106/140 195/105/140 
f 127/106/141 126/107/141 197/107/141 196/106/141 
f 126/107/95 125/110/95 198/110/95 197/107/95 
f 125/110/73 135/111/73 189/111/73 198/110/73 
f 189/111/142 188/99/142 199/99/142 200/111/142 
f 188/99/143 190/100/143 201/100/143 199/99/143 
f 190/100/144 191/101/144 202/101/144 201/100/144 
f 191/101/145 192/102/145 203/102/145 202/101/145 
f 192/102/146 193/103/146 204/103/146 203/102/146 
f 193/103/147 194/104/147 205/104/147 204/103/147 
f 194/104/148 195/105/148 206/105/148 205/104/148 
f 195/105/149 196/106/149 207/106/149 206/105/149 
f 196/106/150 197/107/150 208/107/150 207/106/150 
f 197/107/151 198/110/151 209/110/151 208/107/151 
f 198/110/152 189/111/152 200/111/152 209/110/152 
f 200/111/153 199/99/153 210/99/153 211/111/153 
f 199/99/154 201/100/154 212/100/154 210/99/154 
f 201/100/155 202/101/155 213/101/155 212/100/155 
f 202/101/156 203/102/156 214/102/156 213/101/156 
f 203/102/157 204/103/157 215/103/157 214/102/157 
f 204/103/158 205/104/158 216/104/158 215/103/158 
f 205/104/159 206/105/159 217/105/159 216/104/159 
f 206/105/160 207/106/160 218/106/160 217/105/160 
f 207/106/161 208/107/161 219/107/161 218/106/161 
f 208/107/95 209/110/95 220/110/95 219/107/95 
f 209/110/73 200/111/73 211/111/73 220/110/73 
f 211/111/162 210/99/162 177/99/162 187/111/162 
f 210/99/163 212/100/163 178/100/163 177/99/163 
f 212/100/164 213/101/164 179/101/164 178/100/164 
f 213/101/165 214/102/165 181/102/165 179/101/165 
f 214/102/166 215/103/166 180/103/166 181/102/166 
f 215/103/167 216/104/167 182/104/167 180/103/167 
f 216/104/168 217/105/168 183/105/168 182/104/168 
f 217/105/169 218/106/169 185/106/169 183/105/169 
f 218/106/170 219/107/170 184/107/170 185/106/170 
f 219/107/171 220/110/171 186/110/171 184/107/171 
f 220/110/172 211/111/172 187/111/172 186/110/172 
f 121/108/79 123/109/79 221/109/79 222/108/79 
f 123/109/79 80/86/79 223/86/79 221/109/79 
f 80/86/79 79/85/79 224/85/79 223/86/79 
f 79/85/79 121/108/79 222/108/79 224/85/79 
f 222/108/173 221/109/173 225/109/173 226/108/173 
f 221/109/106 223/86/106 227/86/106 225/109/106 
f 223/86/174 224/85/174 228/85/174 227/86/174 
f 224/85/73 222/108/73 226/108/73 228/85/73 
f 226/108/79 225/109/79 229/109/79 230/108/79 
f 225/109/79 227/86/79 231/86/79 229/109/79 
f 227/86/79 228/85/79 232/85/79 231/86/79 
f 228/85/79 226/108/79 230/108/79 232/85/79 
f 230/108/175 229/109/175 138/109/175 137/108/175 
f 229/109/73 231/86/73 139/86/73 138/109/73 
f 231/86/176 232/85/176 140/85/176 139/86/176 
f 232/85/106 230/108/106 137/108/106 140/85/106 
# 225 polygons - 10 triangles

