# 3ds Max Wavefront OBJ Exporter v0.97b - (c)2007 guruware
# File Created: 07.04.2017 02:40:14

#
# object Box003
#

v  43.8862 12.5844 165.1210
v  43.8398 12.5844 165.0191
v  43.8398 12.5844 152.1201
v  56.4059 12.5844 165.1641
v  43.8862 12.5844 152.0182
v  43.9958 12.5844 151.9751
v  56.5155 12.5844 152.0182
v  56.4059 12.5844 151.9751
v  56.5619 12.5844 152.1201
v  56.5619 12.5844 165.0191
v  56.5155 12.5844 165.1210
v  43.9958 12.5844 165.1641
v  49.2679 14.5151 160.0114
v  49.8079 14.5151 160.2238
v  50.5939 14.5151 160.2238
v  49.0392 14.5151 157.6294
v  51.1339 14.5151 160.0114
v  51.3626 14.5151 159.5098
v  51.1339 14.5151 157.1278
v  51.3626 14.5151 157.6294
v  50.5939 14.5151 156.9154
v  49.8079 14.5151 156.9154
v  49.2679 14.5151 157.1278
v  49.0392 14.5151 159.5098
v  56.1650 13.0534 165.4711
v  55.8030 13.4811 165.1000
v  44.5988 13.4811 165.1000
v  44.2367 13.0534 165.4711
v  56.9337 13.0534 152.3820
v  56.5717 13.4811 152.7531
v  56.5717 13.4811 164.3861
v  56.9337 13.0534 164.7572
v  44.2367 13.0534 151.6681
v  44.5988 13.4811 152.0392
v  55.8030 13.4811 152.0392
v  56.1650 13.0534 151.6681
v  43.4680 13.0534 164.7572
v  43.8301 13.4811 164.3861
v  43.8301 13.4811 152.7531
v  43.4680 13.0534 152.3820
v  54.8753 14.1085 164.2002
v  54.2976 14.2809 163.6637
v  46.1041 14.2809 163.6637
v  45.5265 14.1085 164.2002
v  55.6440 14.1085 153.6530
v  55.0663 14.2809 154.1895
v  55.0663 14.2809 162.9497
v  55.6440 14.1085 163.4863
v  45.5265 14.1085 152.9390
v  46.1041 14.2809 153.4755
v  54.2976 14.2809 153.4755
v  54.8753 14.1085 152.9390
v  44.7578 14.1085 163.4863
v  45.3354 14.2809 162.9497
v  45.3354 14.2809 154.1895
v  44.7578 14.1085 153.6530
v  56.7050 13.0534 165.2587
v  56.3430 13.4811 164.8876
v  44.0588 13.4811 164.8876
v  43.6967 13.0534 165.2587
v  56.7050 13.0534 151.8805
v  56.3430 13.4811 152.2516
v  43.6967 13.0534 151.8805
v  44.0588 13.4811 152.2516
v  55.4153 14.1085 163.9878
v  54.8376 14.2809 163.4513
v  45.5641 14.2809 163.4513
v  44.9865 14.1085 163.9878
v  55.4153 14.1085 153.1514
v  54.8376 14.2809 153.6879
v  44.9865 14.1085 153.1514
v  45.5641 14.2809 153.6879
v  43.9721 12.6304 165.4111
v  43.6895 12.6304 165.2999
v  44.0043 12.7239 165.5446
v  43.5923 12.7239 165.3826
v  43.5698 12.6304 165.0375
v  43.4179 12.7239 164.9999
v  43.5698 12.6304 152.1017
v  43.4179 12.7239 152.1393
v  43.6895 12.6304 151.8393
v  43.5923 12.7239 151.7567
v  43.9721 12.6304 151.7281
v  44.0043 12.7239 151.5946
v  56.4296 12.6304 151.7281
v  56.3974 12.7239 151.5946
v  56.7122 12.6304 151.8393
v  56.8094 12.7239 151.7567
v  56.8319 12.6304 152.1017
v  56.9839 12.7239 152.1393
v  56.8319 12.6304 165.0375
v  56.9839 12.7239 164.9999
v  56.7122 12.6304 165.2999
v  56.8094 12.7239 165.3826
v  56.4296 12.6304 165.4111
v  56.3974 12.7239 165.5446
v  44.0925 12.8649 165.5646
v  56.3092 12.8649 165.5646
v  57.0178 12.8649 164.9065
v  57.0178 12.8649 152.2327
v  56.3092 12.8649 151.5746
v  44.0925 12.8649 151.5746
v  43.3839 12.8649 152.2327
v  43.3839 12.8649 164.9065
v  56.8070 12.8649 165.3688
v  43.5947 12.8649 165.3688
v  56.8070 12.8649 151.7704
v  43.5947 12.8649 151.7704
v  55.5914 13.6851 164.8881
v  44.8104 13.6851 164.8881
v  55.3662 13.8577 164.6675
v  45.0355 13.8577 164.6675
v  56.3601 13.6851 152.9650
v  56.3601 13.6851 164.1742
v  56.1349 13.8577 153.1856
v  56.1349 13.8577 163.9536
v  44.8104 13.6851 152.2511
v  55.5914 13.6851 152.2511
v  45.0355 13.8577 152.4717
v  55.3662 13.8577 152.4717
v  44.0417 13.6851 164.1742
v  44.0417 13.6851 152.9650
v  44.2668 13.8577 163.9536
v  44.2668 13.8577 153.1856
v  45.2742 13.9988 164.4382
v  55.1275 13.9988 164.4382
v  55.8962 13.9988 163.7243
v  55.8962 13.9988 153.4149
v  55.1275 13.9988 152.7010
v  45.2742 13.9988 152.7010
v  44.5055 13.9988 153.4149
v  44.5055 13.9988 163.7243
v  56.1314 13.6851 164.6758
v  55.9062 13.8577 164.4551
v  44.2704 13.6851 164.6758
v  44.4955 13.8577 164.4551
v  56.1314 13.6851 152.4635
v  55.9062 13.8577 152.6841
v  44.2704 13.6851 152.4635
v  44.4955 13.8577 152.6841
v  55.6675 13.9988 164.2258
v  44.7342 13.9988 164.2258
v  55.6675 13.9988 152.9134
v  44.7342 13.9988 152.9134
# 144 vertices

vn -0.0757 -0.9942 0.0763
vn -0.0978 -0.9950 0.0218
vn -0.0978 -0.9950 -0.0218
vn 0.0218 -0.9949 0.0989
vn -0.0757 -0.9942 -0.0763
vn -0.0218 -0.9949 -0.0989
vn 0.0757 -0.9942 -0.0763
vn 0.0218 -0.9949 -0.0989
vn 0.0978 -0.9950 -0.0218
vn 0.0978 -0.9950 0.0218
vn 0.0757 -0.9942 0.0763
vn -0.0218 -0.9949 0.0989
vn -0.0206 0.9996 0.0206
vn -0.0037 0.9994 0.0336
vn 0.0037 0.9994 0.0336
vn -0.0336 0.9994 -0.0037
vn 0.0206 0.9996 0.0206
vn 0.0336 0.9994 0.0037
vn 0.0206 0.9996 -0.0206
vn 0.0336 0.9994 -0.0037
vn 0.0037 0.9994 -0.0336
vn -0.0037 0.9994 -0.0336
vn -0.0206 0.9996 -0.0206
vn -0.0336 0.9994 0.0037
vn 0.1397 0.6200 0.7721
vn 0.1238 0.7449 0.6556
vn -0.1238 0.7449 0.6556
vn -0.1397 0.6200 0.7721
vn 0.7985 0.5849 -0.1424
vn 0.6783 0.7239 -0.1259
vn 0.6783 0.7239 0.1259
vn 0.7985 0.5849 0.1424
vn -0.1397 0.6200 -0.7721
vn -0.1238 0.7449 -0.6556
vn 0.1238 0.7449 -0.6556
vn 0.1397 0.6200 -0.7721
vn -0.7985 0.5849 0.1424
vn -0.6783 0.7239 0.1259
vn -0.6783 0.7239 -0.1259
vn -0.7985 0.5849 -0.1424
vn 0.0529 0.9478 0.3145
vn 0.0236 0.9841 0.1758
vn -0.0236 0.9841 0.1758
vn -0.0529 0.9478 0.3145
vn 0.3172 0.9469 -0.0527
vn 0.1758 0.9841 -0.0236
vn 0.1758 0.9841 0.0236
vn 0.3172 0.9469 0.0527
vn -0.0529 0.9478 -0.3145
vn -0.0236 0.9841 -0.1758
vn 0.0236 0.9841 -0.1758
vn 0.0529 0.9478 -0.3145
vn -0.3172 0.9469 0.0527
vn -0.1758 0.9841 0.0236
vn -0.1758 0.9841 -0.0236
vn -0.3172 0.9469 -0.0527
vn 0.5181 0.6855 0.5116
vn 0.4343 0.7918 0.4294
vn -0.4343 0.7918 0.4294
vn -0.5181 0.6855 0.5116
vn 0.5181 0.6855 -0.5116
vn 0.4343 0.7918 -0.4294
vn -0.5181 0.6855 -0.5116
vn -0.4343 0.7918 -0.4294
vn 0.1918 0.9626 0.1911
vn 0.1076 0.9884 0.1076
vn -0.1076 0.9884 0.1076
vn -0.1918 0.9626 0.1911
vn 0.1918 0.9626 -0.1911
vn 0.1076 0.9884 -0.1076
vn -0.1918 0.9626 -0.1911
vn -0.1076 0.9884 -0.1076
vn -0.1004 -0.9062 0.4108
vn -0.3089 -0.8975 0.3149
vn -0.2085 -0.4266 0.8801
vn -0.6515 -0.3734 0.6604
vn -0.4002 -0.9110 0.0997
vn -0.8631 -0.4594 0.2098
vn -0.4002 -0.9110 -0.0997
vn -0.8631 -0.4594 -0.2098
vn -0.3089 -0.8975 -0.3149
vn -0.6515 -0.3734 -0.6604
vn -0.1004 -0.9062 -0.4108
vn -0.2085 -0.4266 -0.8801
vn 0.1004 -0.9062 -0.4108
vn 0.2085 -0.4266 -0.8801
vn 0.3089 -0.8975 -0.3149
vn 0.6515 -0.3734 -0.6604
vn 0.4002 -0.9110 -0.0997
vn 0.8631 -0.4594 -0.2098
vn 0.4002 -0.9110 0.0997
vn 0.8631 -0.4594 0.2098
vn 0.3089 -0.8975 0.3149
vn 0.6515 -0.3734 0.6604
vn 0.1004 -0.9062 0.4108
vn 0.2085 -0.4266 0.8801
vn -0.1785 0.2519 0.9511
vn 0.1785 0.2519 0.9511
vn 0.9631 0.1980 0.1822
vn 0.9631 0.1980 -0.1822
vn 0.1785 0.2519 -0.9511
vn -0.1785 0.2519 -0.9511
vn -0.9631 0.1980 -0.1822
vn -0.9631 0.1980 0.1822
vn 0.6671 0.3446 0.6605
vn -0.6671 0.3446 0.6605
vn 0.6671 0.3446 -0.6605
vn -0.6671 0.3446 -0.6605
vn 0.1081 0.8039 0.5848
vn -0.1081 0.8039 0.5848
vn 0.0904 0.8597 0.5027
vn -0.0904 0.8597 0.5027
vn 0.6031 0.7901 -0.1094
vn 0.6031 0.7901 0.1094
vn 0.5156 0.8520 -0.0911
vn 0.5156 0.8520 0.0911
vn -0.1081 0.8039 -0.5848
vn 0.1081 0.8039 -0.5848
vn -0.0904 0.8597 -0.5027
vn 0.0904 0.8597 -0.5027
vn -0.6031 0.7901 0.1094
vn -0.6031 0.7901 -0.1094
vn -0.5156 0.8520 0.0911
vn -0.5156 0.8520 -0.0911
vn -0.0717 0.9086 0.4114
vn 0.0717 0.9086 0.4114
vn 0.4188 0.9052 0.0719
vn 0.4188 0.9052 -0.0719
vn 0.0717 0.9086 -0.4114
vn -0.0717 0.9086 -0.4114
vn -0.4188 0.9052 -0.0719
vn -0.4188 0.9052 0.0719
vn 0.3797 0.8454 0.3758
vn 0.3194 0.8932 0.3166
vn -0.3797 0.8454 0.3758
vn -0.3194 0.8932 0.3166
vn 0.3797 0.8454 -0.3758
vn 0.3194 0.8932 -0.3166
vn -0.3797 0.8454 -0.3758
vn -0.3194 0.8932 -0.3166
vn 0.2559 0.9327 0.2542
vn -0.2559 0.9327 0.2542
vn 0.2559 0.9327 -0.2542
vn -0.2559 0.9327 -0.2542
# 144 vertex normals

vt 0.0504 0.0434 0.0000
vt 0.0471 0.0505 0.0000
vt 0.0471 0.9477 0.0000
vt 0.9458 0.0404 0.0000
vt 0.0504 0.9547 0.0000
vt 0.0583 0.9577 0.0000
vt 0.9537 0.9547 0.0000
vt 0.9458 0.9577 0.0000
vt 0.9570 0.9477 0.0000
vt 0.9570 0.0505 0.0000
vt 0.9537 0.0434 0.0000
vt 0.0583 0.0404 0.0000
vt 0.4373 0.4081 0.0000
vt 0.4729 0.3945 0.0000
vt 0.5246 0.3945 0.0000
vt 0.4223 0.5610 0.0000
vt 0.5602 0.4081 0.0000
vt 0.5753 0.4403 0.0000
vt 0.5602 0.5932 0.0000
vt 0.5753 0.5610 0.0000
vt 0.5246 0.6068 0.0000
vt 0.4729 0.6068 0.0000
vt 0.4373 0.5932 0.0000
vt 0.4223 0.4403 0.0000
vt 0.8916 0.0577 0.0000
vt 0.8677 0.0815 0.0000
vt 0.1298 0.0815 0.0000
vt 0.1060 0.0577 0.0000
vt 0.9422 0.8978 0.0000
vt 0.9183 0.8740 0.0000
vt 0.9183 0.1273 0.0000
vt 0.9422 0.1035 0.0000
vt 0.1060 0.9436 0.0000
vt 0.1298 0.9198 0.0000
vt 0.8677 0.9198 0.0000
vt 0.8916 0.9436 0.0000
vt 0.0553 0.1035 0.0000
vt 0.0792 0.1273 0.0000
vt 0.0792 0.8740 0.0000
vt 0.0553 0.8978 0.0000
vt 0.8066 0.1393 0.0000
vt 0.7686 0.1737 0.0000
vt 0.2290 0.1737 0.0000
vt 0.1909 0.1393 0.0000
vt 0.8572 0.8162 0.0000
vt 0.8192 0.7818 0.0000
vt 0.8192 0.2195 0.0000
vt 0.8572 0.1851 0.0000
vt 0.1909 0.8620 0.0000
vt 0.2290 0.8276 0.0000
vt 0.7686 0.8276 0.0000
vt 0.8066 0.8620 0.0000
vt 0.1403 0.1851 0.0000
vt 0.1783 0.2195 0.0000
vt 0.1783 0.7818 0.0000
vt 0.1403 0.8162 0.0000
vt 0.9271 0.0713 0.0000
vt 0.9033 0.0951 0.0000
vt 0.0942 0.0951 0.0000
vt 0.0704 0.0713 0.0000
vt 0.9271 0.9300 0.0000
vt 0.9033 0.9062 0.0000
vt 0.0704 0.9300 0.0000
vt 0.0942 0.9062 0.0000
vt 0.8422 0.1529 0.0000
vt 0.8041 0.1873 0.0000
vt 0.1934 0.1873 0.0000
vt 0.1553 0.1529 0.0000
vt 0.8422 0.8484 0.0000
vt 0.8041 0.8140 0.0000
vt 0.1553 0.8484 0.0000
vt 0.1934 0.8140 0.0000
vt 0.0566 0.0232 0.0000
vt 0.0364 0.0310 0.0000
vt 0.0589 0.0139 0.0000
vt 0.0294 0.0252 0.0000
vt 0.0278 0.0492 0.0000
vt 0.0169 0.0518 0.0000
vt 0.0278 0.9489 0.0000
vt 0.0169 0.9463 0.0000
vt 0.0364 0.9672 0.0000
vt 0.0294 0.9729 0.0000
vt 0.0566 0.9749 0.0000
vt 0.0589 0.9842 0.0000
vt 0.9475 0.9749 0.0000
vt 0.9452 0.9842 0.0000
vt 0.9677 0.9672 0.0000
vt 0.9747 0.9729 0.0000
vt 0.9763 0.9489 0.0000
vt 0.9872 0.9463 0.0000
vt 0.9763 0.0492 0.0000
vt 0.9872 0.0518 0.0000
vt 0.9677 0.0310 0.0000
vt 0.9747 0.0252 0.0000
vt 0.9475 0.0232 0.0000
vt 0.9452 0.0139 0.0000
vt 0.0859 0.0398 0.0000
vt 0.9117 0.0398 0.0000
vt 0.0578 0.0169 0.0000
vt 0.9397 0.0169 0.0000
vt 0.9596 0.0832 0.0000
vt 0.9596 0.9181 0.0000
vt 0.9815 0.0547 0.0000
vt 0.9815 0.9466 0.0000
vt 0.9117 0.9615 0.0000
vt 0.0859 0.9615 0.0000
vt 0.9397 0.9844 0.0000
vt 0.0578 0.9844 0.0000
vt 0.0380 0.9181 0.0000
vt 0.0380 0.0832 0.0000
vt 0.0161 0.9466 0.0000
vt 0.0161 0.0547 0.0000
vt 0.9453 0.0527 0.0000
vt 0.9691 0.0281 0.0000
vt 0.0522 0.0527 0.0000
vt 0.0285 0.0281 0.0000
vt 0.9453 0.9486 0.0000
vt 0.9691 0.9731 0.0000
vt 0.0522 0.9486 0.0000
vt 0.0285 0.9731 0.0000
vt 0.8538 0.0951 0.0000
vt 0.1437 0.0951 0.0000
vt 0.8389 0.1093 0.0000
vt 0.1586 0.1093 0.0000
vt 0.9044 0.8604 0.0000
vt 0.9044 0.1409 0.0000
vt 0.8896 0.8462 0.0000
vt 0.8896 0.1551 0.0000
vt 0.1437 0.9062 0.0000
vt 0.8538 0.9062 0.0000
vt 0.1586 0.8920 0.0000
vt 0.8389 0.8920 0.0000
vt 0.0931 0.1409 0.0000
vt 0.0931 0.8604 0.0000
vt 0.1079 0.1551 0.0000
vt 0.1079 0.8462 0.0000
vt 0.1743 0.1240 0.0000
vt 0.8232 0.1240 0.0000
vt 0.8739 0.1698 0.0000
vt 0.8739 0.8315 0.0000
vt 0.8232 0.8773 0.0000
vt 0.1743 0.8773 0.0000
vt 0.1237 0.8315 0.0000
vt 0.1237 0.1698 0.0000
vt 0.8893 0.1087 0.0000
vt 0.8745 0.1229 0.0000
vt 0.1082 0.1087 0.0000
vt 0.1230 0.1229 0.0000
vt 0.8893 0.8926 0.0000
vt 0.8745 0.8784 0.0000
vt 0.1082 0.8926 0.0000
vt 0.1230 0.8784 0.0000
vt 0.8588 0.1376 0.0000
vt 0.1387 0.1376 0.0000
vt 0.8588 0.8637 0.0000
vt 0.1387 0.8637 0.0000
# 156 texture coords

g Box003
s 1
f 1/1/1 2/2/2 3/3/3 4/4/4 
f 3/3/3 5/5/5 6/6/6 7/7/7 
f 6/6/6 8/8/8 7/7/7 
f 7/7/7 9/9/9 10/10/10 4/4/4 
f 10/10/10 11/11/11 4/4/4 
f 3/3/3 7/7/7 4/4/4 
f 12/12/12 1/1/1 4/4/4 
f 13/13/13 14/14/14 15/15/15 16/16/16 
f 15/15/15 17/17/17 18/18/18 19/19/19 
f 18/18/18 20/20/20 19/19/19 
f 19/19/19 21/21/21 22/22/22 16/16/16 
f 22/22/22 23/23/23 16/16/16 
f 15/15/15 19/19/19 16/16/16 
f 24/24/24 13/13/13 16/16/16 
f 25/25/25 26/26/26 27/27/27 28/28/28 
f 29/29/29 30/30/30 31/31/31 32/32/32 
f 33/33/33 34/34/34 35/35/35 36/36/36 
f 37/37/37 38/38/38 39/39/39 40/40/40 
f 41/41/41 42/42/42 43/43/43 44/44/44 
f 45/45/45 46/46/46 47/47/47 48/48/48 
f 49/49/49 50/50/50 51/51/51 52/52/52 
f 53/53/53 54/54/54 55/55/55 56/56/56 
f 42/42/42 15/15/15 14/14/14 43/43/43 
f 46/46/46 20/20/20 18/18/18 47/47/47 
f 50/50/50 22/22/22 21/21/21 51/51/51 
f 54/54/54 24/24/24 16/16/16 55/55/55 
f 25/25/25 57/57/57 58/58/58 26/26/26 
f 28/28/28 27/27/27 59/59/59 60/60/60 
f 29/29/29 61/61/61 62/62/62 30/30/30 
f 32/32/32 31/31/31 58/58/58 57/57/57 
f 33/33/33 63/63/63 64/64/64 34/34/34 
f 36/36/36 35/35/35 62/62/62 61/61/61 
f 37/37/37 60/60/60 59/59/59 38/38/38 
f 40/40/40 39/39/39 64/64/64 63/63/63 
f 41/41/41 65/65/65 66/66/66 42/42/42 
f 44/44/44 43/43/43 67/67/67 68/68/68 
f 45/45/45 69/69/69 70/70/70 46/46/46 
f 48/48/48 47/47/47 66/66/66 65/65/65 
f 49/49/49 71/71/71 72/72/72 50/50/50 
f 52/52/52 51/51/51 70/70/70 69/69/69 
f 53/53/53 68/68/68 67/67/67 54/54/54 
f 56/56/56 55/55/55 72/72/72 71/71/71 
f 15/15/15 42/42/42 66/66/66 17/17/17 
f 43/43/43 14/14/14 13/13/13 67/67/67 
f 20/20/20 46/46/46 70/70/70 19/19/19 
f 47/47/47 18/18/18 17/17/17 66/66/66 
f 22/22/22 50/50/50 72/72/72 23/23/23 
f 51/51/51 21/21/21 19/19/19 70/70/70 
f 24/24/24 54/54/54 67/67/67 13/13/13 
f 55/55/55 16/16/16 23/23/23 72/72/72 
f 1/1/1 12/12/12 73/73/73 74/74/74 
f 74/74/74 73/73/73 75/75/75 76/76/76 
f 2/2/2 1/1/1 74/74/74 77/77/77 
f 77/77/77 74/74/74 76/76/76 78/78/78 
f 3/3/3 2/2/2 77/77/77 79/79/79 
f 79/79/79 77/77/77 78/78/78 80/80/80 
f 5/5/5 3/3/3 79/79/79 81/81/81 
f 81/81/81 79/79/79 80/80/80 82/82/82 
f 6/6/6 5/5/5 81/81/81 83/83/83 
f 83/83/83 81/81/81 82/82/82 84/84/84 
f 8/8/8 6/6/6 83/83/83 85/85/85 
f 85/85/85 83/83/83 84/84/84 86/86/86 
f 7/7/7 8/8/8 85/85/85 87/87/87 
f 87/87/87 85/85/85 86/86/86 88/88/88 
f 9/9/9 7/7/7 87/87/87 89/89/89 
f 89/89/89 87/87/87 88/88/88 90/90/90 
f 10/10/10 9/9/9 89/89/89 91/91/91 
f 91/91/91 89/89/89 90/90/90 92/92/92 
f 11/11/11 10/10/10 91/91/91 93/93/93 
f 93/93/93 91/91/91 92/92/92 94/94/94 
f 4/4/4 11/11/11 93/93/93 95/95/95 
f 95/95/95 93/93/93 94/94/94 96/96/96 
f 12/12/12 4/4/4 95/95/95 73/73/73 
f 73/73/73 95/95/95 96/96/96 75/75/75 
f 25/25/25 28/28/28 97/97/97 98/98/98 
f 98/98/98 97/97/97 75/99/75 96/100/96 
f 29/29/29 32/32/32 99/101/99 100/102/100 
f 100/102/100 99/101/99 92/103/92 90/104/90 
f 33/33/33 36/36/36 101/105/101 102/106/102 
f 102/106/102 101/105/101 86/107/86 84/108/84 
f 37/37/37 40/40/40 103/109/103 104/110/104 
f 104/110/104 103/109/103 80/111/80 78/112/78 
f 57/57/57 25/25/25 98/98/98 105/113/105 
f 105/113/105 98/98/98 96/100/96 94/114/94 
f 28/28/28 60/60/60 106/115/106 97/97/97 
f 97/97/97 106/115/106 76/116/76 75/99/75 
f 61/61/61 29/29/29 100/102/100 107/117/107 
f 107/117/107 100/102/100 90/104/90 88/118/88 
f 32/32/32 57/57/57 105/113/105 99/101/99 
f 99/101/99 105/113/105 94/114/94 92/103/92 
f 63/63/63 33/33/33 102/106/102 108/119/108 
f 108/119/108 102/106/102 84/108/84 82/120/82 
f 36/36/36 61/61/61 107/117/107 101/105/101 
f 101/105/101 107/117/107 88/118/88 86/107/86 
f 60/60/60 37/37/37 104/110/104 106/115/106 
f 106/115/106 104/110/104 78/112/78 76/116/76 
f 40/40/40 63/63/63 108/119/108 103/109/103 
f 103/109/103 108/119/108 82/120/82 80/111/80 
f 27/27/27 26/26/26 109/121/109 110/122/110 
f 110/122/110 109/121/109 111/123/111 112/124/112 
f 31/31/31 30/30/30 113/125/113 114/126/114 
f 114/126/114 113/125/113 115/127/115 116/128/116 
f 35/35/35 34/34/34 117/129/117 118/130/118 
f 118/130/118 117/129/117 119/131/119 120/132/120 
f 39/39/39 38/38/38 121/133/121 122/134/122 
f 122/134/122 121/133/121 123/135/123 124/136/124 
f 41/41/41 44/44/44 125/137/125 126/138/126 
f 126/138/126 125/137/125 112/124/112 111/123/111 
f 45/45/45 48/48/48 127/139/127 128/140/128 
f 128/140/128 127/139/127 116/128/116 115/127/115 
f 49/49/49 52/52/52 129/141/129 130/142/130 
f 130/142/130 129/141/129 120/132/120 119/131/119 
f 53/53/53 56/56/56 131/143/131 132/144/132 
f 132/144/132 131/143/131 124/136/124 123/135/123 
f 26/26/26 58/58/58 133/145/133 109/121/109 
f 109/121/109 133/145/133 134/146/134 111/123/111 
f 59/59/59 27/27/27 110/122/110 135/147/135 
f 135/147/135 110/122/110 112/124/112 136/148/136 
f 30/30/30 62/62/62 137/149/137 113/125/113 
f 113/125/113 137/149/137 138/150/138 115/127/115 
f 58/58/58 31/31/31 114/126/114 133/145/133 
f 133/145/133 114/126/114 116/128/116 134/146/134 
f 34/34/34 64/64/64 139/151/139 117/129/117 
f 117/129/117 139/151/139 140/152/140 119/131/119 
f 62/62/62 35/35/35 118/130/118 137/149/137 
f 137/149/137 118/130/118 120/132/120 138/150/138 
f 38/38/38 59/59/59 135/147/135 121/133/121 
f 121/133/121 135/147/135 136/148/136 123/135/123 
f 64/64/64 39/39/39 122/134/122 139/151/139 
f 139/151/139 122/134/122 124/136/124 140/152/140 
f 65/65/65 41/41/41 126/138/126 141/153/141 
f 141/153/141 126/138/126 111/123/111 134/146/134 
f 44/44/44 68/68/68 142/154/142 125/137/125 
f 125/137/125 142/154/142 136/148/136 112/124/112 
f 69/69/69 45/45/45 128/140/128 143/155/143 
f 143/155/143 128/140/128 115/127/115 138/150/138 
f 48/48/48 65/65/65 141/153/141 127/139/127 
f 127/139/127 141/153/141 134/146/134 116/128/116 
f 71/71/71 49/49/49 130/142/130 144/156/144 
f 144/156/144 130/142/130 119/131/119 140/152/140 
f 52/52/52 69/69/69 143/155/143 129/141/129 
f 129/141/129 143/155/143 138/150/138 120/132/120 
f 68/68/68 53/53/53 132/144/132 142/154/142 
f 142/154/142 132/144/132 123/135/123 136/148/136 
f 56/56/56 71/71/71 144/156/144 131/143/131 
f 131/143/131 144/156/144 140/152/140 124/136/124 
# 138 polygons - 8 triangles

