# 3ds Max Wavefront OBJ Exporter v0.97b - (c)2007 guruware
# File Created: 12.06.2017 14:44:24

#
# object cap
#

v  10.0363 2.5965 -1.7697
v  10.1922 2.5965 -0.0000
v  10.1922 -3.4626 -0.0000
v  10.0363 -3.4626 -1.7697
v  9.5776 2.5965 -3.4860
v  9.5776 -3.4626 -3.4860
v  8.8258 2.5965 -5.0955
v  8.8258 -3.4626 -5.0955
v  7.8078 2.5965 -6.5515
v  7.8078 -3.4626 -6.5515
v  6.5507 2.5965 -7.8068
v  6.5507 -3.4626 -7.8068
v  5.0961 2.5965 -8.8268
v  5.0961 -3.4626 -8.8268
v  3.4855 2.5965 -9.5765
v  3.4855 -3.4626 -9.5765
v  1.7699 2.5965 -10.0374
v  1.7699 -3.4626 -10.0374
v  -0.0000 2.5965 -10.1911
v  -0.0000 -3.4626 -10.1911
v  -1.7698 2.5965 -10.0374
v  -1.7698 -3.4626 -10.0374
v  -3.4855 2.5965 -9.5765
v  -3.4855 -3.4626 -9.5765
v  -5.0961 2.5965 -8.8268
v  -5.0961 -3.4626 -8.8268
v  -6.5508 2.5965 -7.8068
v  -6.5508 -3.4626 -7.8068
v  -7.8078 2.5965 -6.5515
v  -7.8078 -3.4626 -6.5515
v  -8.8257 2.5965 -5.0955
v  -8.8257 -3.4626 -5.0955
v  -9.5776 2.5965 -3.4860
v  -9.5776 -3.4626 -3.4860
v  -10.0362 2.5965 -1.7697
v  -10.0362 -3.4626 -1.7697
v  -10.1922 2.5965 -0.0000
v  -10.1922 -3.4626 -0.0000
v  -10.0362 2.5965 1.7697
v  -10.0362 -3.4626 1.7697
v  -9.5776 2.5965 3.4860
v  -9.5776 -3.4626 3.4860
v  -8.8257 2.5965 5.0955
v  -8.8257 -3.4626 5.0955
v  -7.8078 2.5965 6.5515
v  -7.8078 -3.4626 6.5515
v  -6.5508 2.5965 7.8068
v  -6.5508 -3.4626 7.8068
v  -5.0961 2.5965 8.8268
v  -5.0961 -3.4626 8.8268
v  -3.4855 2.5965 9.5765
v  -3.4855 -3.4626 9.5765
v  -1.7698 2.5965 10.0374
v  -1.7698 -3.4626 10.0374
v  -0.0000 2.5965 10.1911
v  -0.0000 -3.4626 10.1911
v  1.7699 2.5965 10.0374
v  1.7699 -3.4626 10.0374
v  3.4855 2.5965 9.5765
v  3.4855 -3.4626 9.5765
v  5.0961 2.5965 8.8268
v  5.0961 -3.4626 8.8268
v  6.5507 2.5965 7.8068
v  6.5507 -3.4626 7.8068
v  7.8078 2.5965 6.5515
v  7.8078 -3.4626 6.5515
v  8.8258 2.5965 5.0955
v  8.8258 -3.4626 5.0955
v  9.5776 2.5965 3.4860
v  9.5776 -3.4626 3.4860
v  10.0363 2.5965 1.7697
v  10.0363 -3.4626 1.7697
v  8.8912 3.4626 -3.2361
v  9.3169 3.4626 -1.6428
v  8.1931 3.4626 -4.7303
v  7.2481 3.4626 -6.0819
v  6.0812 3.4626 -7.2473
v  4.7309 3.4626 -8.1941
v  3.2358 3.4626 -8.8901
v  1.6430 3.4626 -9.3180
v  -0.0000 3.4626 -9.4606
v  -1.6430 3.4626 -9.3180
v  -3.2357 3.4626 -8.8901
v  -4.7309 3.4626 -8.1941
v  -6.0812 3.4626 -7.2473
v  -7.2481 3.4626 -6.0819
v  -8.1931 3.4626 -4.7303
v  -8.8911 3.4626 -3.2361
v  -9.3169 3.4626 -1.6428
v  -9.4618 3.4626 -0.0000
v  -9.3169 3.4626 1.6428
v  -8.8911 3.4626 3.2361
v  -8.1931 3.4626 4.7303
v  -7.2481 3.4626 6.0819
v  -6.0812 3.4626 7.2473
v  -4.7309 3.4626 8.1941
v  -3.2357 3.4626 8.8901
v  -1.6430 3.4626 9.3180
v  -0.0000 3.4626 9.4606
v  1.6430 3.4626 9.3180
v  3.2358 3.4626 8.8901
v  4.7309 3.4626 8.1941
v  6.0812 3.4626 7.2473
v  -0.0000 3.4626 -0.0000
v  8.1931 3.4626 4.7303
v  7.2481 3.4626 6.0819
v  8.8911 3.4626 3.2361
v  9.3169 3.4626 1.6428
v  9.4618 3.4626 -0.0000
# 109 vertices

vn 0.9271 0.3373 -0.1635
vn 0.9414 0.3372 -0.0000
vn 1.0000 0.0000 -0.0000
vn 0.9848 0.0000 -0.1737
vn 0.8847 0.3372 -0.3220
vn 0.9397 0.0000 -0.3420
vn 0.8153 0.3372 -0.4707
vn 0.8660 0.0000 -0.5000
vn 0.7212 0.3372 -0.6052
vn 0.7660 0.0000 -0.6428
vn 0.6051 0.3372 -0.7212
vn 0.6428 0.0000 -0.7660
vn 0.4707 0.3372 -0.8153
vn 0.5000 0.0000 -0.8660
vn 0.3220 0.3373 -0.8846
vn 0.3420 0.0000 -0.9397
vn 0.1635 0.3372 -0.9271
vn 0.1736 0.0000 -0.9848
vn 0.0000 0.3373 -0.9414
vn 0.0000 0.0000 -1.0000
vn -0.1635 0.3372 -0.9271
vn -0.1737 0.0000 -0.9848
vn -0.3220 0.3372 -0.8846
vn -0.3420 0.0000 -0.9397
vn -0.4707 0.3372 -0.8153
vn -0.5000 0.0000 -0.8660
vn -0.6051 0.3373 -0.7212
vn -0.6428 0.0000 -0.7660
vn -0.7212 0.3372 -0.6051
vn -0.7660 0.0000 -0.6428
vn -0.8153 0.3373 -0.4707
vn -0.8660 0.0000 -0.5000
vn -0.8847 0.3372 -0.3220
vn -0.9397 0.0000 -0.3420
vn -0.9271 0.3372 -0.1635
vn -0.9848 0.0000 -0.1736
vn -0.9414 0.3372 -0.0000
vn -1.0000 0.0000 -0.0000
vn -0.9271 0.3372 0.1635
vn -0.9848 0.0000 0.1736
vn -0.8847 0.3372 0.3220
vn -0.9397 0.0000 0.3420
vn -0.8153 0.3373 0.4707
vn -0.8660 0.0000 0.5000
vn -0.7212 0.3372 0.6051
vn -0.7661 0.0000 0.6428
vn -0.6051 0.3373 0.7212
vn -0.6428 0.0000 0.7660
vn -0.4707 0.3372 0.8153
vn -0.5000 0.0000 0.8660
vn -0.3220 0.3373 0.8846
vn -0.3420 0.0000 0.9397
vn -0.1635 0.3372 0.9271
vn -0.1737 0.0000 0.9848
vn 0.0000 0.3373 0.9414
vn 0.0000 0.0000 1.0000
vn 0.1635 0.3372 0.9271
vn 0.1736 0.0000 0.9848
vn 0.3220 0.3372 0.8846
vn 0.3420 0.0000 0.9397
vn 0.4707 0.3372 0.8153
vn 0.5000 0.0000 0.8660
vn 0.6051 0.3372 0.7212
vn 0.6428 0.0000 0.7660
vn 0.7212 0.3372 0.6051
vn 0.7660 0.0000 0.6428
vn 0.8153 0.3373 0.4707
vn 0.8660 0.0000 0.5000
vn 0.8847 0.3372 0.3220
vn 0.9397 0.0000 0.3420
vn 0.9271 0.3373 0.1635
vn 0.9848 0.0000 0.1737
vn 0.7183 0.6447 -0.2614
vn 0.7528 0.6447 -0.1328
vn 0.6620 0.6447 -0.3822
vn 0.5855 0.6448 -0.4913
vn 0.4914 0.6447 -0.5856
vn 0.3822 0.6448 -0.6620
vn 0.2615 0.6447 -0.7183
vn 0.1327 0.6447 -0.7528
vn 0.0000 0.6447 -0.7644
vn -0.1327 0.6447 -0.7528
vn -0.2615 0.6447 -0.7183
vn -0.3822 0.6448 -0.6620
vn -0.4914 0.6447 -0.5856
vn -0.5856 0.6447 -0.4913
vn -0.6620 0.6447 -0.3822
vn -0.7183 0.6448 -0.2614
vn -0.7528 0.6447 -0.1327
vn -0.7644 0.6447 -0.0000
vn -0.7528 0.6447 0.1327
vn -0.7183 0.6448 0.2614
vn -0.6620 0.6447 0.3822
vn -0.5856 0.6447 0.4913
vn -0.4914 0.6447 0.5856
vn -0.3822 0.6448 0.6620
vn -0.2615 0.6447 0.7183
vn -0.1327 0.6447 0.7528
vn 0.0000 0.6447 0.7644
vn 0.1327 0.6447 0.7528
vn 0.2614 0.6447 0.7183
vn 0.3822 0.6448 0.6620
vn 0.4914 0.6447 0.5856
vn 0.0000 1.0000 -0.0000
vn 0.6620 0.6447 0.3822
vn 0.5855 0.6448 0.4913
vn 0.7183 0.6448 0.2614
vn 0.7528 0.6447 0.1327
vn 0.7644 0.6447 -0.0000
vn 0.0000 -1.0000 -0.0000
# 110 vertex normals

vt 0.9500 0.7679 0.0000
vt 0.9504 0.7625 0.0000
vt 0.9659 0.7623 0.0000
vt 0.9649 0.7705 0.0000
vt 0.9486 0.7731 0.0000
vt 0.9628 0.7783 0.0000
vt 0.9463 0.7780 0.0000
vt 0.9595 0.7856 0.0000
vt 0.9432 0.7824 0.0000
vt 0.9549 0.7921 0.0000
vt 0.9394 0.7862 0.0000
vt 0.9492 0.7978 0.0000
vt 0.9350 0.7892 0.0000
vt 0.9426 0.8024 0.0000
vt 0.9301 0.7915 0.0000
vt 0.9353 0.8058 0.0000
vt 0.9249 0.7929 0.0000
vt 0.9276 0.8079 0.0000
vt 0.9196 0.7934 0.0000
vt 0.9196 0.8086 0.0000
vt 0.9142 0.7929 0.0000
vt 0.9116 0.8079 0.0000
vt 0.9090 0.7915 0.0000
vt 0.9038 0.8058 0.0000
vt 0.9042 0.7892 0.0000
vt 0.8966 0.8024 0.0000
vt 0.8998 0.7862 0.0000
vt 0.8900 0.7978 0.0000
vt 0.8960 0.7824 0.0000
vt 0.8843 0.7921 0.0000
vt 0.8929 0.7780 0.0000
vt 0.8797 0.7856 0.0000
vt 0.8906 0.7731 0.0000
vt 0.8763 0.7783 0.0000
vt 0.8892 0.7679 0.0000
vt 0.8743 0.7705 0.0000
vt 0.8887 0.7625 0.0000
vt 0.8736 0.7625 0.0000
vt 0.8892 0.7572 0.0000
vt 0.8743 0.7545 0.0000
vt 0.8906 0.7520 0.0000
vt 0.8763 0.7468 0.0000
vt 0.8929 0.7471 0.0000
vt 0.8797 0.7395 0.0000
vt 0.8960 0.7427 0.0000
vt 0.8843 0.7329 0.0000
vt 0.8998 0.7389 0.0000
vt 0.8900 0.7273 0.0000
vt 0.9042 0.7358 0.0000
vt 0.8966 0.7227 0.0000
vt 0.9090 0.7335 0.0000
vt 0.9038 0.7193 0.0000
vt 0.9142 0.7322 0.0000
vt 0.9116 0.7172 0.0000
vt 0.9196 0.7317 0.0000
vt 0.9196 0.7165 0.0000
vt 0.9249 0.7322 0.0000
vt 0.9276 0.7172 0.0000
vt 0.9301 0.7335 0.0000
vt 0.9353 0.7193 0.0000
vt 0.9350 0.7358 0.0000
vt 0.9426 0.7227 0.0000
vt 0.9394 0.7389 0.0000
vt 0.9492 0.7273 0.0000
vt 0.9432 0.7427 0.0000
vt 0.9549 0.7329 0.0000
vt 0.9463 0.7471 0.0000
vt 0.9595 0.7395 0.0000
vt 0.9486 0.7520 0.0000
vt 0.9628 0.7468 0.0000
vt 0.9500 0.7572 0.0000
vt 0.9652 0.7543 0.0000
vt 0.9431 0.7711 0.0000
vt 0.9443 0.7669 0.0000
vt 0.9413 0.7751 0.0000
vt 0.9388 0.7786 0.0000
vt 0.9357 0.7817 0.0000
vt 0.9321 0.7842 0.0000
vt 0.9282 0.7861 0.0000
vt 0.9239 0.7872 0.0000
vt 0.9196 0.7876 0.0000
vt 0.9152 0.7872 0.0000
vt 0.9110 0.7861 0.0000
vt 0.9071 0.7842 0.0000
vt 0.9035 0.7817 0.0000
vt 0.9004 0.7786 0.0000
vt 0.8979 0.7751 0.0000
vt 0.8960 0.7711 0.0000
vt 0.8949 0.7669 0.0000
vt 0.8945 0.7625 0.0000
vt 0.8949 0.7582 0.0000
vt 0.8960 0.7540 0.0000
vt 0.8979 0.7500 0.0000
vt 0.9004 0.7464 0.0000
vt 0.9035 0.7433 0.0000
vt 0.9071 0.7408 0.0000
vt 0.9110 0.7390 0.0000
vt 0.9152 0.7379 0.0000
vt 0.9196 0.7375 0.0000
vt 0.9239 0.7379 0.0000
vt 0.9282 0.7390 0.0000
vt 0.9321 0.7408 0.0000
vt 0.9357 0.7433 0.0000
vt 0.9196 0.7625 0.0000
vt 0.9413 0.7500 0.0000
vt 0.9388 0.7464 0.0000
vt 0.9431 0.7540 0.0000
vt 0.9443 0.7582 0.0000
vt 0.9446 0.7625 0.0000
vt 0.9596 0.7389 0.0000
vt 0.9494 0.7267 0.0000
vt 0.9651 0.7539 0.0000
vt 0.9630 0.7462 0.0000
vt 0.9550 0.7323 0.0000
vt 0.9355 0.7187 0.0000
vt 0.9198 0.7159 0.0000
vt 0.9428 0.7221 0.0000
vt 0.9278 0.7166 0.0000
vt 0.9428 0.8018 0.0000
vt 0.9198 0.8080 0.0000
vt 0.9278 0.8073 0.0000
vt 0.9355 0.8052 0.0000
vt 0.9550 0.7915 0.0000
vt 0.9630 0.7777 0.0000
vt 0.9494 0.7972 0.0000
vt 0.9596 0.7849 0.0000
vt 0.9651 0.7699 0.0000
vt 0.9658 0.7619 0.0000
vt 0.8967 0.7221 0.0000
vt 0.8845 0.7323 0.0000
vt 0.9118 0.7166 0.0000
vt 0.9040 0.7187 0.0000
vt 0.8902 0.7267 0.0000
vt 0.8765 0.7462 0.0000
vt 0.8737 0.7619 0.0000
vt 0.8799 0.7389 0.0000
vt 0.8744 0.7539 0.0000
vt 0.8765 0.7777 0.0000
vt 0.8845 0.7915 0.0000
vt 0.8744 0.7699 0.0000
vt 0.8799 0.7849 0.0000
vt 0.8967 0.8018 0.0000
vt 0.9118 0.8073 0.0000
vt 0.8902 0.7972 0.0000
vt 0.9040 0.8052 0.0000
# 145 texture coords

g cap
s 1
f 1/1/1 2/2/2 3/3/3 4/4/4 
f 5/5/5 1/1/1 4/4/4 6/6/6 
f 7/7/7 5/5/5 6/6/6 8/8/8 
f 9/9/9 7/7/7 8/8/8 10/10/10 
f 11/11/11 9/9/9 10/10/10 12/12/12 
f 13/13/13 11/11/11 12/12/12 14/14/14 
f 15/15/15 13/13/13 14/14/14 16/16/16 
f 17/17/17 15/15/15 16/16/16 18/18/18 
f 19/19/19 17/17/17 18/18/18 20/20/20 
f 21/21/21 19/19/19 20/20/20 22/22/22 
f 23/23/23 21/21/21 22/22/22 24/24/24 
f 25/25/25 23/23/23 24/24/24 26/26/26 
f 27/27/27 25/25/25 26/26/26 28/28/28 
f 29/29/29 27/27/27 28/28/28 30/30/30 
f 31/31/31 29/29/29 30/30/30 32/32/32 
f 33/33/33 31/31/31 32/32/32 34/34/34 
f 35/35/35 33/33/33 34/34/34 36/36/36 
f 37/37/37 35/35/35 36/36/36 38/38/38 
f 39/39/39 37/37/37 38/38/38 40/40/40 
f 41/41/41 39/39/39 40/40/40 42/42/42 
f 43/43/43 41/41/41 42/42/42 44/44/44 
f 45/45/45 43/43/43 44/44/44 46/46/46 
f 47/47/47 45/45/45 46/46/46 48/48/48 
f 49/49/49 47/47/47 48/48/48 50/50/50 
f 51/51/51 49/49/49 50/50/50 52/52/52 
f 53/53/53 51/51/51 52/52/52 54/54/54 
f 55/55/55 53/53/53 54/54/54 56/56/56 
f 57/57/57 55/55/55 56/56/56 58/58/58 
f 59/59/59 57/57/57 58/58/58 60/60/60 
f 61/61/61 59/59/59 60/60/60 62/62/62 
f 63/63/63 61/61/61 62/62/62 64/64/64 
f 65/65/65 63/63/63 64/64/64 66/66/66 
f 67/67/67 65/65/65 66/66/66 68/68/68 
f 69/69/69 67/67/67 68/68/68 70/70/70 
f 71/71/71 69/69/69 70/70/70 72/72/72 
f 2/2/2 71/71/71 72/72/72 3/3/3 
f 73/73/73 74/74/74 1/1/1 5/5/5 
f 75/75/75 73/73/73 5/5/5 7/7/7 
f 76/76/76 75/75/75 7/7/7 9/9/9 
f 77/77/77 76/76/76 9/9/9 11/11/11 
f 78/78/78 77/77/77 11/11/11 13/13/13 
f 79/79/79 78/78/78 13/13/13 15/15/15 
f 80/80/80 79/79/79 15/15/15 17/17/17 
f 81/81/81 80/80/80 17/17/17 19/19/19 
f 82/82/82 81/81/81 19/19/19 21/21/21 
f 83/83/83 82/82/82 21/21/21 23/23/23 
f 84/84/84 83/83/83 23/23/23 25/25/25 
f 85/85/85 84/84/84 25/25/25 27/27/27 
f 86/86/86 85/85/85 27/27/27 29/29/29 
f 87/87/87 86/86/86 29/29/29 31/31/31 
f 88/88/88 87/87/87 31/31/31 33/33/33 
f 89/89/89 88/88/88 33/33/33 35/35/35 
f 90/90/90 89/89/89 35/35/35 37/37/37 
f 91/91/91 90/90/90 37/37/37 39/39/39 
f 92/92/92 91/91/91 39/39/39 41/41/41 
f 93/93/93 92/92/92 41/41/41 43/43/43 
f 94/94/94 93/93/93 43/43/43 45/45/45 
f 95/95/95 94/94/94 45/45/45 47/47/47 
f 96/96/96 95/95/95 47/47/47 49/49/49 
f 97/97/97 96/96/96 49/49/49 51/51/51 
f 98/98/98 97/97/97 51/51/51 53/53/53 
f 99/99/99 98/98/98 53/53/53 55/55/55 
f 100/100/100 99/99/99 55/55/55 57/57/57 
f 101/101/101 100/100/100 57/57/57 59/59/59 
f 102/102/102 101/101/101 59/59/59 61/61/61 
f 103/103/103 102/102/102 61/61/61 63/63/63 
s 2
f 103/103/104 104/104/104 102/102/104 
s 1
f 105/105/105 106/106/106 65/65/65 67/67/67 
f 107/107/107 105/105/105 67/67/67 69/69/69 
f 108/108/108 107/107/107 69/69/69 71/71/71 
f 109/109/109 108/108/108 71/71/71 2/2/2 
f 74/74/74 109/109/109 2/2/2 1/1/1 
s 2
f 81/81/104 82/82/104 104/104/104 
s 1
f 106/106/106 103/103/103 63/63/63 65/65/65 
s 2
f 106/106/104 105/105/104 104/104/104 
f 105/105/104 107/107/104 104/104/104 
f 103/103/104 106/106/104 104/104/104 
f 104/104/104 101/101/104 102/102/104 
f 104/104/104 100/100/104 101/101/104 
f 104/104/104 99/99/104 100/100/104 
f 98/98/104 99/99/104 104/104/104 
f 97/97/104 98/98/104 104/104/104 
f 96/96/104 97/97/104 104/104/104 
f 95/95/104 96/96/104 104/104/104 
f 94/94/104 95/95/104 104/104/104 
f 93/93/104 94/94/104 104/104/104 
f 92/92/104 93/93/104 104/104/104 
f 91/91/104 92/92/104 104/104/104 
f 90/90/104 91/91/104 104/104/104 
f 89/89/104 90/90/104 104/104/104 
f 88/88/104 89/89/104 104/104/104 
f 87/87/104 88/88/104 104/104/104 
f 86/86/104 87/87/104 104/104/104 
f 85/85/104 86/86/104 104/104/104 
f 84/84/104 85/85/104 104/104/104 
f 83/83/104 84/84/104 104/104/104 
f 82/82/104 83/83/104 104/104/104 
f 80/80/104 81/81/104 104/104/104 
f 79/79/104 80/80/104 104/104/104 
f 78/78/104 79/79/104 104/104/104 
f 77/77/104 78/78/104 104/104/104 
f 76/76/104 77/77/104 104/104/104 
f 75/75/104 76/76/104 104/104/104 
f 73/73/104 75/75/104 104/104/104 
f 74/74/104 73/73/104 104/104/104 
f 109/109/104 74/74/104 104/104/104 
f 108/108/104 109/109/104 104/104/104 
f 107/107/104 108/108/104 104/104/104 
f 68/110/110 64/111/110 72/112/110 70/113/110 
f 68/110/110 66/114/110 64/111/110 
f 60/115/110 56/116/110 64/111/110 62/117/110 
f 60/115/110 58/118/110 56/116/110 
f 14/119/110 56/116/110 20/120/110 18/121/110 
f 18/121/110 16/122/110 14/119/110 
f 10/123/110 6/124/110 14/119/110 12/125/110 
f 10/123/110 8/126/110 6/124/110 
f 64/111/110 56/116/110 14/119/110 6/124/110 
f 6/124/110 4/127/110 72/112/110 64/111/110 
f 3/128/110 72/112/110 4/127/110 
f 50/129/110 46/130/110 54/131/110 52/132/110 
f 50/129/110 48/133/110 46/130/110 
f 42/134/110 38/135/110 46/130/110 44/136/110 
f 42/134/110 40/137/110 38/135/110 
f 34/138/110 30/139/110 38/135/110 36/140/110 
f 34/138/110 32/141/110 30/139/110 
f 26/142/110 22/143/110 30/139/110 28/144/110 
f 26/142/110 24/145/110 22/143/110 
f 46/130/110 38/135/110 30/139/110 22/143/110 
f 20/120/110 54/131/110 46/130/110 22/143/110 
f 56/116/110 54/131/110 20/120/110 
# 84 polygons - 46 triangles

