# 3ds Max Wavefront OBJ Exporter v0.97b - (c)2007 guruware
# File Created: 12.06.2017 14:44:15

#
# object paracetamol_box
#

v  -9.7900 -3.7459 14.5060
v  -9.7900 -3.4871 14.5060
v  -9.7900 -3.7459 -21.5441
v  9.7900 -3.7406 14.5060
v  9.7900 -3.7406 -21.5441
v  9.7900 3.7459 -21.5441
v  -9.7900 3.7459 -21.5441
v  -9.7900 3.7459 14.5060
v  9.7900 -3.4871 14.5060
v  -9.7900 -3.7406 21.2450
v  9.7900 -3.7406 21.2450
v  9.6242 3.5802 14.5060
v  9.7900 3.7459 14.5060
v  -9.6242 3.5802 14.5060
v  9.6242 -3.3214 14.5060
v  3.2513 -0.0433 21.2907
v  5.4269 -0.3707 21.2907
v  -1.0997 0.0965 21.2907
v  1.0758 0.0965 21.2907
v  -3.2633 -0.0433 21.5441
v  -5.4389 -0.3707 21.5441
v  1.0878 0.0965 21.5441
v  -1.0878 0.0965 21.5441
v  -9.6242 -3.3214 14.5060
v  9.7900 -3.4871 21.2450
v  -9.7900 -3.4871 21.2450
v  -9.5876 1.2442 15.9086
v  -9.5876 1.2442 12.4330
v  9.5876 1.2442 12.4330
v  9.5876 1.2442 15.9086
v  9.5876 -0.7759 12.4330
v  -9.5876 -0.7759 12.4330
v  -9.5876 1.4780 12.4330
v  -9.5876 1.4780 15.9086
v  -9.4268 -0.6014 19.2673
v  9.6755 -0.6014 17.5961
v  9.5876 1.4780 12.4330
v  9.5876 -1.0099 12.4330
v  9.5876 -3.0220 12.4330
v  9.6755 -0.8353 17.5961
v  -9.7900 -3.7076 21.3842
v  9.7900 -3.7076 21.3842
v  9.7900 -3.4780 21.2771
v  -9.7900 -3.4780 21.2771
v  -9.7900 -3.5791 21.5089
v  9.7900 -3.5791 21.5089
v  9.7900 -3.4525 21.2895
v  -9.7900 -3.4525 21.2895
v  -9.7900 -3.4297 21.5440
v  9.7900 -3.4297 21.5440
v  9.7900 -3.4297 21.2907
v  -9.7900 -3.4297 21.2907
v  7.6144 -1.0451 21.5441
v  -9.7900 -2.0662 21.5441
v  9.7900 -2.0662 21.5441
v  -7.6144 -1.0451 21.2907
v  9.7900 -2.0662 21.2907
v  -9.7900 -2.0662 21.2907
v  5.4389 -0.3707 21.5441
v  3.2633 -0.0433 21.5441
v  -7.6144 -1.0451 21.5441
v  7.6144 -1.0451 21.2907
v  -5.4508 -0.3707 21.2907
v  -3.2753 -0.0433 21.2907
v  9.5876 3.5436 12.4330
v  -9.5876 3.5436 12.4330
v  -9.5876 -3.0220 12.4330
v  -9.5876 -1.0099 12.4330
v  -9.5876 -3.2849 12.4330
v  9.5876 -3.2849 12.4330
v  -9.5876 -3.0949 15.5315
v  -9.5876 -2.8320 15.5315
v  9.5876 -2.8320 15.5315
v  -9.4268 -0.8353 19.2673
v  9.5876 1.4780 15.9086
v  9.5876 -3.0949 15.5315
# 76 vertices

vn -0.4471 -0.8945 0.0003
vn -0.8165 0.4082 0.4082
vn -0.5773 -0.5774 -0.5773
vn 0.4474 -0.8943 -0.0000
vn 0.5774 -0.5773 -0.5774
vn 0.5774 0.5774 -0.5774
vn -0.5774 0.5774 -0.5774
vn -0.5774 0.5774 0.5774
vn 0.8165 0.4082 0.4082
vn 0.0000 -0.9932 0.1165
vn 0.0001 -0.9932 0.1162
vn -0.2959 -0.2959 0.9083
vn 0.5774 0.5774 0.5774
vn 0.2959 -0.2959 0.9083
vn -0.2959 0.2959 0.9083
vn 0.0000 0.0000 -1.0000
vn 0.0000 0.0000 1.0000
vn 0.2959 0.2959 0.9083
vn 0.0000 0.9903 -0.1391
vn -0.5774 -0.5774 0.5774
vn 0.5704 -0.5706 0.5908
vn -0.5704 -0.5706 0.5908
vn 0.5774 -0.5774 0.5774
vn -0.5700 0.5886 0.5732
vn 0.5669 0.5685 0.5962
vn 0.5704 0.5706 0.5908
vn -0.5451 0.5819 0.6036
vn 0.6030 0.5912 0.5357
vn -0.5704 0.5706 0.5908
vn -0.5734 -0.5672 0.5911
vn -0.5673 0.5894 0.5752
vn 0.6064 -0.5709 0.5535
vn 0.0000 -0.8696 0.4937
vn 0.0000 0.7657 -0.6432
vn 0.0000 -0.4801 0.8772
vn 0.0000 0.2500 -0.9682
vn 0.0000 -0.1152 0.9933
vn 0.0000 -0.1151 0.9933
vn 0.0000 0.0264 -0.9997
vn 0.0000 -0.0001 1.0000
vn -0.5727 -0.5727 0.5866
vn 0.5727 -0.5727 0.5866
vn 0.5673 0.5894 0.5752
vn 0.5706 -0.5519 0.6081
vn 0.4558 0.1179 0.8822
vn -0.4558 0.1179 0.8822
vn -0.5806 -0.5578 0.5931
vn -0.5742 0.5964 0.5609
vn 0.5742 0.5964 0.5609
vn -0.5470 -0.5662 0.6166
vn 0.5806 -0.5578 0.5931
vn -1.0000 0.0000 -0.0000
vn 0.0331 0.9995 -0.0016
vn 0.1079 0.9942 -0.0051
vn 0.1053 0.9944 -0.0050
vn 0.0311 0.9995 -0.0015
vn -0.0331 0.9995 0.0016
vn -0.0311 0.9995 0.0015
vn -0.1079 0.9942 0.0051
vn -0.1053 0.9944 0.0050
vn 1.0000 0.0000 -0.0000
vn -0.3621 0.9322 -0.0000
vn -0.3620 0.9322 0.0005
vn -0.2209 0.9752 0.0104
vn -0.2253 0.9742 0.0101
vn 0.2202 0.9754 -0.0104
vn 0.2245 0.9744 -0.0101
vn 0.3613 0.9324 -0.0000
vn 0.3613 0.9325 -0.0005
vn 0.4249 0.9053 -0.0000
vn -0.4249 0.9053 -0.0000
# 71 vertex normals

vt 0.5204 0.6310 0.0000
vt 0.5179 0.6310 0.0000
vt 0.5204 0.4588 0.0000
vt 0.8215 0.3782 0.0000
vt 0.9860 0.3782 0.0000
vt 0.9859 0.6800 0.0000
vt 0.8215 0.6800 0.0000
vt 0.4477 0.2688 0.0000
vt 0.5204 0.2688 0.0000
vt 0.4477 0.4588 0.0000
vt 0.4477 0.6310 0.0000
vt 0.5179 0.1349 0.0000
vt 0.5204 0.1349 0.0000
vt 0.9860 0.3217 0.0000
vt 0.8215 0.3217 0.0000
vt 0.7926 0.3567 0.0000
vt 0.7975 0.3519 0.0000
vt 0.7975 0.9301 0.0000
vt 0.7926 0.9252 0.0000
vt 0.8217 0.6412 0.0000
vt 0.8217 0.3385 0.0000
vt 0.9861 0.3385 0.0000
vt 0.9861 0.6412 0.0000
vt 0.5161 0.0633 0.0000
vt 0.4477 0.1349 0.0000
vt 0.4491 0.0633 0.0000
vt 0.4349 0.8244 0.0000
vt 0.4365 0.7987 0.0000
vt 0.4343 0.8757 0.0000
vt 0.4343 0.8500 0.0000
vt 0.9311 0.3169 0.0000
vt 0.9494 0.3171 0.0000
vt 0.8946 0.3168 0.0000
vt 0.9129 0.3168 0.0000
vt 0.5765 0.9252 0.0000
vt 0.5716 0.9301 0.0000
vt 0.5716 0.3519 0.0000
vt 0.5765 0.3567 0.0000
vt 0.4516 0.7473 0.0000
vt 0.5244 0.7473 0.0000
vt 0.5244 0.9781 0.0000
vt 0.4516 0.9781 0.0000
vt 0.4491 0.7030 0.0000
vt 0.5161 0.7030 0.0000
vt 0.7236 0.9242 0.0000
vt 0.7162 0.9239 0.0000
vt 0.7162 0.3577 0.0000
vt 0.7236 0.3579 0.0000
vt 0.6640 0.3577 0.0000
vt 0.6640 0.9239 0.0000
vt 0.4717 0.7024 0.0000
vt 0.4695 0.7024 0.0000
vt 0.4913 0.7024 0.0000
vt 0.4695 0.7026 0.0000
vt 0.4717 0.7026 0.0000
vt 0.6573 0.9197 0.0000
vt 0.6573 0.3555 0.0000
vt 0.4695 0.0637 0.0000
vt 0.4717 0.0637 0.0000
vt 0.4913 0.0637 0.0000
vt 0.4936 0.0637 0.0000
vt 0.5132 0.0637 0.0000
vt 0.4919 0.0628 0.0000
vt 0.4897 0.0628 0.0000
vt 0.9860 0.3205 0.0000
vt 0.8215 0.3205 0.0000
vt 0.4512 0.7473 0.0000
vt 0.4512 0.9781 0.0000
vt 0.9860 0.3194 0.0000
vt 0.8215 0.3194 0.0000
vt 0.4510 0.7473 0.0000
vt 0.4510 0.9781 0.0000
vt 0.9860 0.3190 0.0000
vt 0.8215 0.3190 0.0000
vt 0.4509 0.7473 0.0000
vt 0.4509 0.9781 0.0000
vt 0.8398 0.3175 0.0000
vt 0.9860 0.3182 0.0000
vt 0.8215 0.3182 0.0000
vt 0.4396 0.9524 0.0000
vt 0.4444 0.7473 0.0000
vt 0.4444 0.9781 0.0000
vt 0.8581 0.3171 0.0000
vt 0.8763 0.3169 0.0000
vt 0.9677 0.3175 0.0000
vt 0.4396 0.7729 0.0000
vt 0.4365 0.9269 0.0000
vt 0.4349 0.9013 0.0000
vt 0.7916 0.3577 0.0000
vt 0.7916 0.9239 0.0000
vt 0.5132 0.7024 0.0000
vt 0.4936 0.7024 0.0000
vt 0.4494 0.7024 0.0000
vt 0.4494 0.0637 0.0000
vt 0.5157 0.7024 0.0000
vt 0.5776 0.9239 0.0000
vt 0.5776 0.3577 0.0000
vt 0.5157 0.0637 0.0000
vt 0.7381 0.3577 0.0000
vt 0.7381 0.9239 0.0000
vt 0.5139 0.7026 0.0000
vt 0.5113 0.7026 0.0000
vt 0.6452 0.3577 0.0000
vt 0.6452 0.9239 0.0000
vt 0.6026 0.9239 0.0000
vt 0.6026 0.3577 0.0000
vt 0.5965 0.3579 0.0000
vt 0.5965 0.9242 0.0000
vt 0.4897 0.7007 0.0000
vt 0.4919 0.7007 0.0000
vt 0.7306 0.3579 0.0000
vt 0.7306 0.9242 0.0000
vt 0.5906 0.9242 0.0000
vt 0.5906 0.3579 0.0000
vt 0.4717 0.0638 0.0000
vt 0.4695 0.0638 0.0000
vt 0.6504 0.3555 0.0000
vt 0.6504 0.9197 0.0000
vt 0.5113 0.0638 0.0000
vt 0.5139 0.0638 0.0000
vt 0.5461 0.3507 0.0000
vt 0.5537 0.3507 0.0000
vt 0.5537 0.6868 0.0000
vt 0.5537 0.7540 0.0000
vt 0.5461 0.7540 0.0000
vt 0.5461 0.6868 0.0000
vt 0.5461 0.6195 0.0000
vt 0.5537 0.6195 0.0000
vt 0.5461 0.5523 0.0000
vt 0.5537 0.5523 0.0000
vt 0.5537 0.9557 0.0000
vt 0.5461 0.9557 0.0000
vt 0.5461 0.4179 0.0000
vt 0.5537 0.4179 0.0000
vt 0.5537 0.4851 0.0000
vt 0.5461 0.4851 0.0000
vt 0.5461 0.8213 0.0000
vt 0.5537 0.8213 0.0000
vt 0.5537 0.8885 0.0000
vt 0.5461 0.8885 0.0000
# 140 texture coords

g paracetamol_box
s 1
f 1/1/1 2/2/2 3/3/3 
f 4/4/4 1/5/1 3/6/3 5/7/5 
f 6/8/6 5/9/5 3/3/3 7/10/7 
f 8/11/8 7/10/7 3/3/3 2/2/2 
f 5/9/5 9/12/9 4/13/4 
f 10/14/10 1/5/1 4/4/4 11/15/11 
f 12/16/12 13/17/13 8/18/8 14/19/14 
f 7/20/7 8/21/8 13/22/13 6/23/6 
f 15/24/15 9/12/9 13/25/13 12/26/12 
f 9/12/9 5/9/5 6/8/6 13/25/13 
f 16/27/16 17/28/16 18/29/16 19/30/16 
f 20/31/17 21/32/17 22/33/17 23/34/17 
f 24/35/18 2/36/2 9/37/9 15/38/15 
f 25/39/19 9/40/9 2/41/2 26/42/19 
f 14/43/14 8/11/8 2/2/2 24/44/18 
f 27/45/20 28/46/21 29/47/22 30/48/23 
f 31/49/24 29/47/22 28/46/21 32/50/25 
f 28/51/21 33/52/26 14/43/14 32/53/25 
f 34/54/8 33/52/26 28/51/21 27/55/20 
f 32/50/25 35/56/27 36/57/28 31/49/24 
f 15/24/15 37/58/29 29/59/22 31/60/24 
f 38/61/30 39/62/31 15/24/15 31/60/24 
f 40/63/32 38/61/30 31/60/24 36/64/28 
f 41/65/33 10/14/10 11/15/11 42/66/33 
f 43/67/34 25/39/19 26/42/19 44/68/34 
f 45/69/35 41/65/33 42/66/33 46/70/35 
f 47/71/36 43/67/34 44/68/34 48/72/36 
f 49/73/37 45/69/35 46/70/35 50/74/38 
f 51/75/39 47/71/36 48/72/36 52/76/39 
f 53/77/17 54/78/40 49/73/37 50/74/38 
f 50/74/38 55/79/40 53/77/17 
f 56/80/16 57/81/16 51/75/39 52/76/39 
f 52/76/39 58/82/16 56/80/16 
f 59/83/17 60/84/17 22/33/17 21/32/17 
f 53/77/17 59/83/17 21/32/17 61/85/17 
f 61/85/17 54/78/40 53/77/17 
f 57/81/16 56/80/16 62/86/16 
f 63/87/16 64/88/16 18/29/16 17/28/16 
f 56/80/16 63/87/16 17/28/16 62/86/16 
f 65/89/41 12/16/12 14/19/14 66/90/42 
f 14/43/14 67/91/43 68/92/44 32/53/25 
f 14/43/14 33/52/26 66/93/42 
f 12/26/12 65/94/41 37/58/29 15/24/15 
f 24/44/18 69/95/45 67/91/43 14/43/14 
f 69/96/45 24/35/18 15/38/15 70/97/46 
f 15/24/15 39/62/31 70/98/46 
f 37/99/29 65/89/41 66/90/42 33/100/26 
f 71/101/47 72/102/48 67/91/43 69/95/45 
f 38/103/30 68/104/44 67/105/43 39/106/31 
f 73/107/49 39/106/31 67/105/43 72/108/48 
f 35/109/27 32/53/25 68/92/44 74/110/50 
f 75/111/13 37/99/29 33/100/26 34/112/8 
f 71/113/47 69/96/45 70/97/46 76/114/51 
f 30/115/23 29/59/22 37/58/29 75/116/13 
f 40/117/32 74/118/50 68/104/44 38/103/30 
f 39/62/31 73/119/49 76/120/51 70/98/46 
f 30/48/23 75/111/13 34/112/8 27/45/20 
f 72/108/48 71/113/47 76/114/51 73/107/49 
f 35/56/27 74/118/50 40/117/32 36/57/28 
s 2
f 26/121/52 2/121/52 1/122/52 10/122/52 
s 4
f 22/123/53 60/124/54 16/125/55 19/126/56 
f 19/126/56 18/127/57 23/128/58 22/123/53 
f 18/127/57 64/129/59 20/130/60 23/128/58 
s 2
f 11/131/61 4/131/61 9/132/61 25/132/61 
f 41/122/52 44/121/52 26/121/52 10/122/52 
f 25/132/61 43/132/61 42/131/61 11/131/61 
f 45/122/52 48/121/52 44/121/52 41/122/52 
f 43/132/61 47/132/61 46/131/61 42/131/61 
f 49/122/52 52/121/52 48/121/52 45/122/52 
f 47/132/61 51/132/61 50/131/61 46/131/61 
f 58/121/52 52/121/52 49/122/52 54/122/52 
f 55/131/61 50/131/61 51/132/61 57/132/61 
s 4
f 56/133/62 61/134/63 21/135/64 63/136/65 
f 21/135/64 20/130/60 64/129/59 63/136/65 
f 17/137/66 59/138/67 53/139/68 62/140/69 
f 62/140/69 53/139/68 55/131/70 57/132/70 
f 17/137/66 16/125/55 60/124/54 59/138/67 
f 54/122/71 61/134/63 56/133/62 58/121/71 
# 70 polygons - 8 triangles

