# 3ds Max Wavefront OBJ Exporter v0.97b - (c)2007 guruware
# File Created: 06.04.2017 21:22:54

#
# object Object005
#

v  -36.5818 53.7916 134.9450
v  -15.3616 53.7916 134.9450
v  -15.3616 71.7017 134.9450
v  -36.5818 71.7017 134.9450
v  -15.3616 53.7916 113.7542
v  -15.3616 71.7016 113.7542
v  -15.5367 53.7916 113.6817
v  -36.5818 53.7916 113.6136
v  -36.5818 71.7016 113.6136
v  -15.3616 53.7916 92.2822
v  -36.5818 53.7916 92.2822
v  -36.5818 53.7916 70.9507
v  -15.5367 53.7916 71.0188
v  -15.3616 53.7916 70.9507
v  -36.5818 53.7916 49.6193
v  -15.3616 53.7916 49.6193
v  -36.5818 71.7017 70.9507
v  -36.5818 71.7016 92.2822
v  -15.5367 53.7916 92.3503
v  -15.3616 53.7916 113.6136
v  -15.3616 53.7916 71.0914
v  -15.5367 71.7017 71.0188
v  -15.3616 71.7017 71.0914
v  -15.3616 71.7016 92.2822
v  -15.3616 71.7017 70.9507
v  -15.3616 71.7016 49.6193
v  -15.5367 71.7016 92.3503
v  -15.3616 71.7016 92.4228
v  -15.3616 71.7016 113.6136
v  -36.5818 71.7016 49.6193
v  -15.5367 71.7016 113.6817
v  -15.3616 53.7916 92.4228
# 32 vertices

vn 0.0000 0.0000 1.0000
vn 1.0000 0.0000 -0.0000
vn 0.0000 -1.0000 -0.0000
vn -1.0000 0.0000 -0.0000
vn 0.0000 1.0000 -0.0000
vn 0.3830 0.0000 -0.9237
vn 0.3625 0.0000 0.9320
vn -0.0000 1.0000 0.0000
vn 0.0000 1.0000 0.0000
vn -0.0000 1.0000 -0.0000
vn 0.3826 0.0000 -0.9239
vn 0.3825 0.0000 -0.9239
vn 0.0000 0.0000 -1.0000
# 13 vertex normals

vt 0.9854 0.7497 0.0000
vt 0.9854 0.9126 0.0000
vt 0.8295 0.9126 0.0000
vt 0.8295 0.7497 0.0000
vt 0.0251 0.2235 0.0000
vt 0.0251 0.0231 0.0000
vt 0.2613 0.0231 0.0000
vt 0.2613 0.2235 0.0000
vt 0.2609 0.7121 0.0000
vt 0.0230 0.7141 0.0000
vt 0.0230 0.4766 0.0000
vt 0.2617 0.4766 0.0000
vt 0.9801 0.2503 0.0000
vt 0.9801 0.4508 0.0000
vt 0.7414 0.4508 0.0000
vt 0.7414 0.2503 0.0000
vt 0.6667 0.9126 0.0000
vt 0.6657 0.7497 0.0000
vt 0.5005 0.7141 0.0000
vt 0.5005 0.4766 0.0000
vt 0.7392 0.4766 0.0000
vt 0.7384 0.7121 0.0000
vt 0.7392 0.7141 0.0000
vt 0.9780 0.4766 0.0000
vt 0.9780 0.7141 0.0000
vt 0.2639 0.4508 0.0000
vt 0.2639 0.2503 0.0000
vt 0.5026 0.2503 0.0000
vt 0.5026 0.4508 0.0000
vt 0.4997 0.7121 0.0000
vt 0.2617 0.7141 0.0000
vt 0.7376 0.7141 0.0000
vt 0.7386 0.0231 0.0000
vt 0.7407 0.0231 0.0000
vt 0.7407 0.2235 0.0000
vt 0.7386 0.2235 0.0000
vt 0.5039 0.0231 0.0000
vt 0.5039 0.2235 0.0000
vt 0.7426 0.0231 0.0000
vt 0.7426 0.2235 0.0000
vt 0.9801 0.0231 0.0000
vt 0.9801 0.2235 0.0000
vt 0.5019 0.7497 0.0000
vt 0.5019 0.9126 0.0000
vt 0.3391 0.9126 0.0000
vt 0.3381 0.7497 0.0000
vt 0.3386 0.9113 0.0000
vt 0.3381 0.9126 0.0000
vt 0.5019 0.0231 0.0000
vt 0.5019 0.2235 0.0000
vt 0.5024 0.9113 0.0000
vt 0.5029 0.9126 0.0000
vt 0.6657 0.9126 0.0000
vt 0.0251 0.2503 0.0000
vt 0.0251 0.4508 0.0000
vt 0.1743 0.7497 0.0000
vt 0.1743 0.9126 0.0000
vt 0.2601 0.7141 0.0000
vt 0.2631 0.0231 0.0000
vt 0.2631 0.2235 0.0000
vt 0.2648 0.0231 0.0000
vt 0.2648 0.2235 0.0000
vt 0.4989 0.7141 0.0000
vt 0.4998 0.2235 0.0000
vt 0.4998 0.0231 0.0000
vt 0.0183 0.9126 0.0000
vt 0.0183 0.7497 0.0000
vt 0.6662 0.9113 0.0000
# 68 texture coords

g Object005
s 1
f 1/1/1 2/2/1 3/3/1 4/4/1 
s 2
f 3/5/2 2/6/2 5/7/2 6/8/2 
s 4
f 7/9/3 2/10/3 1/11/3 8/12/3 
s 2
f 1/13/4 4/14/4 9/15/4 8/16/4 
s 4
f 3/3/5 6/17/5 9/18/5 4/4/5 
f 10/19/3 11/20/3 12/21/3 13/22/3 
f 12/21/3 14/23/3 13/22/3 
f 14/23/3 12/21/3 15/24/3 16/25/3 
s 2
f 17/26/4 12/27/4 11/28/4 18/29/4 
f 8/16/4 9/15/4 18/29/4 11/28/4 
s 4
f 11/20/3 19/30/3 20/31/3 8/12/3 
f 10/19/3 19/30/3 11/20/3 
f 13/22/3 21/32/3 10/19/3 
s 1
f 21/33/6 13/34/6 22/35/6 23/36/6 
s 2
f 10/37/2 21/33/2 23/36/2 24/38/2 
f 22/35/7 13/34/7 14/39/7 25/40/7 
s 1
f 25/40/2 14/39/2 16/41/2 26/42/2 
s 4
f 18/43/8 24/44/9 23/45/8 17/46/10 
f 17/46/10 23/45/8 22/47/5 25/48/5 
s 1
f 19/49/7 10/37/7 24/38/7 27/50/7 
s 4
f 27/51/5 24/44/9 18/43/8 28/52/5 
f 28/52/5 18/43/8 9/18/5 29/53/5 
s 2
f 15/54/4 12/27/4 17/26/4 30/55/4 
s 4
f 30/56/5 17/46/10 25/48/5 26/57/5 
f 8/12/3 20/31/3 7/9/3 
f 7/9/3 5/58/3 2/10/3 
s 1
f 6/8/11 5/7/11 7/59/11 31/60/11 
s 2
f 20/61/7 29/62/7 31/60/7 7/59/7 
s 4
f 19/30/3 32/63/3 20/31/3 
s 2
f 28/64/12 32/65/12 19/49/12 27/50/12 
s 1
f 29/62/2 20/61/2 32/65/2 28/64/2 
s 8
f 26/57/13 16/66/13 15/67/13 30/56/13 
s 4
f 9/18/5 6/17/5 31/68/5 29/53/5 
# 27 polygons - 6 triangles

