# 3ds Max Wavefront OBJ Exporter v0.97b - (c)2007 guruware
# File Created: 17.04.2017 15:52:33

#
# object Object011
#

v  -9.8802 -0.0053 106.2574
v  -9.8802 0.2534 106.2574
v  -9.8802 -0.0053 70.2073
v  9.6998 0.0000 70.2073
v  9.6998 0.0000 106.2574
v  -9.8802 7.4864 70.2073
v  9.6998 7.4864 70.2073
v  -9.8802 7.4864 106.2574
v  9.6998 0.2534 106.2574
v  9.6998 0.0000 112.9964
v  -9.8802 0.0000 112.9964
v  9.6998 7.4864 106.2574
v  -9.7144 7.3207 106.2574
v  9.5340 7.3207 106.2574
v  9.5340 0.4191 106.2574
v  -1.1899 3.8371 113.0421
v  0.9856 3.8371 113.0421
v  3.1611 3.6972 113.0421
v  5.3367 3.3698 113.0421
v  0.9976 3.8371 113.2955
v  -1.1780 3.8371 113.2955
v  -3.3535 3.6972 113.2955
v  -5.5291 3.3698 113.2955
v  -9.7144 0.4191 106.2574
v  -9.8802 0.2534 112.9964
v  9.6998 0.2534 112.9964
v  -9.6778 4.9847 104.1844
v  9.4974 4.9847 104.1844
v  9.4974 4.9847 107.6600
v  -9.6778 4.9847 107.6600
v  -9.6778 2.9646 104.1844
v  9.4974 2.9646 104.1844
v  -9.6778 5.2186 104.1844
v  -9.6778 5.2186 107.6600
v  9.5853 3.1391 109.3475
v  -9.5170 3.1391 111.0187
v  9.4974 5.2186 104.1844
v  9.4974 2.7307 104.1844
v  9.4974 0.7186 104.1844
v  9.5853 2.9053 109.3475
v  9.6998 0.0330 113.1356
v  -9.8802 0.0330 113.1356
v  -9.8802 0.2626 113.0285
v  9.6998 0.2626 113.0285
v  9.6998 0.1614 113.2603
v  -9.8802 0.1614 113.2603
v  -9.8802 0.2881 113.0409
v  9.6998 0.2881 113.0409
v  9.6998 0.3108 113.2954
v  -9.8802 0.3108 113.2954
v  -9.8802 0.3108 113.0421
v  9.6998 0.3108 113.0421
v  7.5242 2.6955 113.2955
v  -9.8802 1.6744 113.2955
v  9.6998 1.6744 113.2955
v  -7.7046 2.6955 113.0421
v  9.6998 1.6744 113.0421
v  -9.8802 1.6744 113.0421
v  5.3487 3.3698 113.2955
v  3.1731 3.6972 113.2955
v  -7.7046 2.6955 113.2955
v  7.5242 2.6955 113.0421
v  -5.5410 3.3698 113.0421
v  -3.3655 3.6972 113.0421
v  -9.6778 7.2841 104.1844
v  9.4974 7.2841 104.1844
v  -9.6778 0.7186 104.1844
v  -9.6778 2.7307 104.1844
v  -9.6778 0.4557 104.1844
v  9.4974 0.4557 104.1844
v  -9.6778 0.6457 107.2829
v  -9.6778 0.9086 107.2829
v  9.4974 0.9086 107.2829
v  -9.5170 2.9053 111.0187
v  9.4974 5.2186 107.6600
v  9.4974 0.6457 107.2829
# 76 vertices

vn -0.4471 -0.8945 0.0003
vn -0.8165 0.4082 0.4082
vn -0.5773 -0.5774 -0.5773
vn 0.5774 -0.5773 -0.5774
vn 0.4474 -0.8943 -0.0000
vn -0.5774 0.5774 -0.5774
vn 0.5774 0.5774 -0.5774
vn -0.5774 0.5774 0.5774
vn 0.8165 0.4082 0.4082
vn 0.0001 -0.9932 0.1162
vn 0.0000 -0.9932 0.1165
vn 0.5774 0.5774 0.5774
vn 0.2959 -0.2959 0.9083
vn -0.2959 -0.2959 0.9083
vn -0.2959 0.2959 0.9083
vn 0.0000 0.0000 -1.0000
vn 0.0000 0.0000 1.0000
vn 0.2959 0.2959 0.9083
vn 0.0000 0.9903 -0.1391
vn 0.5704 -0.5706 0.5908
vn -0.5704 -0.5706 0.5908
vn 0.5774 -0.5774 0.5774
vn -0.5774 -0.5774 0.5774
vn 0.5669 0.5685 0.5962
vn -0.5700 0.5886 0.5732
vn 0.5704 0.5706 0.5908
vn 0.6030 0.5912 0.5357
vn -0.5451 0.5819 0.6036
vn -0.5704 0.5706 0.5908
vn -0.5734 -0.5672 0.5911
vn -0.5673 0.5894 0.5752
vn 0.6064 -0.5709 0.5535
vn 0.0000 -0.8696 0.4937
vn 0.0000 0.7657 -0.6432
vn 0.0000 -0.4801 0.8772
vn 0.0000 0.2500 -0.9682
vn -0.0000 -0.1151 0.9933
vn 0.0000 -0.1152 0.9933
vn 0.0000 0.0264 -0.9997
vn -0.0000 -0.0000 1.0000
vn 0.0000 -0.0001 1.0000
vn -0.0000 -0.0001 1.0000
vn 0.5727 -0.5727 0.5866
vn -0.5727 -0.5727 0.5866
vn 0.5673 0.5894 0.5752
vn 0.5706 -0.5519 0.6081
vn 0.4558 0.1179 0.8822
vn -0.4558 0.1179 0.8822
vn -0.5806 -0.5578 0.5931
vn -0.5742 0.5964 0.5609
vn 0.5742 0.5964 0.5609
vn -0.5470 -0.5662 0.6166
vn 0.5806 -0.5578 0.5931
vn -1.0000 0.0000 -0.0000
vn 0.1053 0.9944 -0.0050
vn 0.0311 0.9995 -0.0015
vn 0.0331 0.9995 -0.0016
vn 0.1079 0.9942 -0.0051
vn -0.0311 0.9995 0.0015
vn -0.0331 0.9995 0.0016
vn -0.1053 0.9944 0.0050
vn -0.1079 0.9942 0.0051
vn 1.0000 0.0000 -0.0000
vn -0.3620 0.9322 0.0005
vn -0.2209 0.9752 0.0104
vn -0.2253 0.9742 0.0101
vn -0.3621 0.9322 -0.0000
vn 0.2245 0.9744 -0.0101
vn 0.3613 0.9324 -0.0000
vn 0.3613 0.9325 -0.0005
vn 0.2202 0.9754 -0.0104
vn 0.4249 0.9053 -0.0000
vn -0.4249 0.9053 -0.0000
# 73 vertex normals

vt 0.5204 0.6310 0.0000
vt 0.5179 0.6310 0.0000
vt 0.5204 0.4588 0.0000
vt 0.9860 0.3782 0.0000
vt 0.9859 0.6800 0.0000
vt 0.8215 0.6800 0.0000
vt 0.8215 0.3782 0.0000
vt 0.5204 0.2688 0.0000
vt 0.4477 0.4588 0.0000
vt 0.4477 0.2688 0.0000
vt 0.4477 0.6310 0.0000
vt 0.5179 0.1349 0.0000
vt 0.5204 0.1349 0.0000
vt 0.8215 0.3217 0.0000
vt 0.9860 0.3217 0.0000
vt 0.7975 0.3519 0.0000
vt 0.7975 0.9301 0.0000
vt 0.7926 0.9252 0.0000
vt 0.7926 0.3567 0.0000
vt 0.8217 0.3385 0.0000
vt 0.9861 0.3385 0.0000
vt 0.9861 0.6412 0.0000
vt 0.8217 0.6412 0.0000
vt 0.4477 0.1349 0.0000
vt 0.4491 0.0633 0.0000
vt 0.5161 0.0633 0.0000
vt 0.4343 0.8757 0.0000
vt 0.4343 0.8500 0.0000
vt 0.4349 0.8244 0.0000
vt 0.4365 0.7987 0.0000
vt 0.8946 0.3168 0.0000
vt 0.9129 0.3168 0.0000
vt 0.9311 0.3169 0.0000
vt 0.9494 0.3171 0.0000
vt 0.5716 0.9301 0.0000
vt 0.5716 0.3519 0.0000
vt 0.5765 0.3567 0.0000
vt 0.5765 0.9252 0.0000
vt 0.5244 0.7473 0.0000
vt 0.5244 0.9781 0.0000
vt 0.4516 0.9781 0.0000
vt 0.4516 0.7473 0.0000
vt 0.5161 0.7030 0.0000
vt 0.4491 0.7030 0.0000
vt 0.7162 0.9239 0.0000
vt 0.7162 0.3577 0.0000
vt 0.7236 0.3579 0.0000
vt 0.7236 0.9242 0.0000
vt 0.6640 0.9239 0.0000
vt 0.6640 0.3577 0.0000
vt 0.4717 0.7024 0.0000
vt 0.4695 0.7024 0.0000
vt 0.4913 0.7024 0.0000
vt 0.4717 0.7026 0.0000
vt 0.4695 0.7026 0.0000
vt 0.6573 0.3555 0.0000
vt 0.6573 0.9197 0.0000
vt 0.4695 0.0637 0.0000
vt 0.4717 0.0637 0.0000
vt 0.4913 0.0637 0.0000
vt 0.4936 0.0637 0.0000
vt 0.5132 0.0637 0.0000
vt 0.4897 0.0628 0.0000
vt 0.4919 0.0628 0.0000
vt 0.8215 0.3205 0.0000
vt 0.9860 0.3205 0.0000
vt 0.4512 0.9781 0.0000
vt 0.4512 0.7473 0.0000
vt 0.8215 0.3194 0.0000
vt 0.9860 0.3194 0.0000
vt 0.4510 0.9781 0.0000
vt 0.4510 0.7473 0.0000
vt 0.8215 0.3190 0.0000
vt 0.9860 0.3190 0.0000
vt 0.4509 0.9781 0.0000
vt 0.4509 0.7473 0.0000
vt 0.8398 0.3175 0.0000
vt 0.9860 0.3182 0.0000
vt 0.8215 0.3182 0.0000
vt 0.4396 0.9524 0.0000
vt 0.4444 0.7473 0.0000
vt 0.4444 0.9781 0.0000
vt 0.8581 0.3171 0.0000
vt 0.8763 0.3169 0.0000
vt 0.9677 0.3175 0.0000
vt 0.4396 0.7729 0.0000
vt 0.4365 0.9269 0.0000
vt 0.4349 0.9013 0.0000
vt 0.7916 0.9239 0.0000
vt 0.7916 0.3577 0.0000
vt 0.5132 0.7024 0.0000
vt 0.4936 0.7024 0.0000
vt 0.4494 0.7024 0.0000
vt 0.4494 0.0637 0.0000
vt 0.5157 0.7024 0.0000
vt 0.5776 0.3577 0.0000
vt 0.5776 0.9239 0.0000
vt 0.5157 0.0637 0.0000
vt 0.7381 0.9239 0.0000
vt 0.7381 0.3577 0.0000
vt 0.5139 0.7026 0.0000
vt 0.5113 0.7026 0.0000
vt 0.6452 0.9239 0.0000
vt 0.6026 0.9239 0.0000
vt 0.6026 0.3577 0.0000
vt 0.6452 0.3577 0.0000
vt 0.5965 0.9242 0.0000
vt 0.5965 0.3579 0.0000
vt 0.4919 0.7007 0.0000
vt 0.4897 0.7007 0.0000
vt 0.7306 0.9242 0.0000
vt 0.7306 0.3579 0.0000
vt 0.5906 0.3579 0.0000
vt 0.5906 0.9242 0.0000
vt 0.4695 0.0638 0.0000
vt 0.4717 0.0638 0.0000
vt 0.6504 0.3555 0.0000
vt 0.6504 0.9197 0.0000
vt 0.5139 0.0638 0.0000
vt 0.5113 0.0638 0.0000
vt 0.5461 0.3507 0.0000
vt 0.5537 0.3507 0.0000
vt 0.5461 0.7540 0.0000
vt 0.5461 0.6868 0.0000
vt 0.5537 0.6868 0.0000
vt 0.5537 0.7540 0.0000
vt 0.5537 0.6195 0.0000
vt 0.5461 0.6195 0.0000
vt 0.5537 0.5523 0.0000
vt 0.5461 0.5523 0.0000
vt 0.5537 0.9557 0.0000
vt 0.5461 0.9557 0.0000
vt 0.5537 0.4179 0.0000
vt 0.5537 0.4851 0.0000
vt 0.5461 0.4851 0.0000
vt 0.5461 0.4179 0.0000
vt 0.5537 0.8213 0.0000
vt 0.5537 0.8885 0.0000
vt 0.5461 0.8885 0.0000
vt 0.5461 0.8213 0.0000
# 140 texture coords

g Object011
s 1
f 1/1/1 2/2/2 3/3/3 
f 1/4/1 3/5/3 4/6/4 5/7/5 
f 4/8/4 3/3/3 6/9/6 7/10/7 
f 6/9/6 3/3/3 2/2/2 8/11/8 
f 4/8/4 9/12/9 5/13/5 
f 1/4/1 5/7/5 10/14/10 11/15/11 
f 12/16/12 8/17/8 13/18/13 14/19/14 
f 8/20/8 12/21/12 7/22/7 6/23/6 
f 9/12/9 12/24/12 14/25/14 15/26/15 
f 4/8/4 7/10/7 12/24/12 9/12/9 
f 16/27/16 17/28/16 18/29/16 19/30/16 
f 20/31/17 21/32/17 22/33/17 23/34/17 
f 2/35/2 9/36/9 15/37/15 24/38/18 
f 9/39/9 2/40/2 25/41/19 26/42/19 
f 8/11/8 2/2/2 24/43/18 13/44/13 
f 27/45/20 28/46/21 29/47/22 30/48/23 
f 28/46/21 27/45/20 31/49/24 32/50/25 
f 27/51/20 33/52/26 13/44/13 31/53/24 
f 33/52/26 27/51/20 30/54/23 34/55/8 
f 35/56/27 32/50/25 31/49/24 36/57/28 
f 15/26/15 37/58/29 28/59/21 32/60/25 
f 38/61/30 39/62/31 15/26/15 32/60/25 
f 38/61/30 32/60/25 35/63/27 40/64/32 
f 11/15/11 10/14/10 41/65/33 42/66/33 
f 26/42/19 25/41/19 43/67/34 44/68/34 
f 42/66/33 41/65/33 45/69/35 46/70/35 
f 44/68/34 43/67/34 47/71/36 48/72/36 
f 46/70/35 45/69/35 49/73/37 50/74/38 
f 48/72/36 47/71/36 51/75/39 52/76/39 
f 50/74/38 49/73/37 53/77/40 54/78/41 
f 49/73/37 55/79/42 53/77/40 
f 52/76/39 51/75/39 56/80/16 57/81/16 
f 51/75/39 58/82/16 56/80/16 
f 20/31/17 23/34/17 59/83/17 60/84/17 
f 59/83/17 23/34/17 61/85/17 53/77/40 
f 61/85/17 54/78/41 53/77/40 
f 57/81/16 56/80/16 62/86/16 
f 16/27/16 19/30/16 63/87/16 64/88/16 
f 63/87/16 19/30/16 62/86/16 56/80/16 
f 14/19/14 13/18/13 65/89/43 66/90/44 
f 13/44/13 67/91/45 68/92/46 31/53/24 
f 13/44/13 33/52/26 65/93/43 
f 37/58/29 15/26/15 14/25/14 66/94/44 
f 67/91/45 13/44/13 24/43/18 69/95/47 
f 24/38/18 15/37/15 70/96/48 69/97/47 
f 15/26/15 39/62/31 70/98/48 
f 66/90/44 65/89/43 33/99/26 37/100/29 
f 67/91/45 69/95/47 71/101/49 72/102/50 
f 68/103/46 67/104/45 39/105/31 38/106/30 
f 39/105/31 67/104/45 72/107/50 73/108/51 
f 31/53/24 68/92/46 74/109/52 36/110/28 
f 37/100/29 33/99/26 34/111/8 75/112/12 
f 69/97/47 70/96/48 76/113/53 71/114/49 
f 28/59/21 37/58/29 75/115/12 29/116/22 
f 68/103/46 38/106/30 40/117/32 74/118/52 
f 76/119/53 70/98/48 39/62/31 73/120/51 
f 75/112/12 34/111/8 30/48/23 29/47/22 
f 71/114/49 76/113/53 73/108/51 72/107/50 
f 74/118/52 40/117/32 35/56/27 36/57/28 
s 2
f 2/121/54 1/122/54 11/122/54 25/121/54 
s 4
f 18/123/55 17/124/56 20/125/57 60/126/58 
f 21/127/59 20/125/57 17/124/56 16/128/60 
f 22/129/61 21/127/59 16/128/60 64/130/62 
s 2
f 5/131/63 9/132/63 26/132/63 10/131/63 
f 25/121/54 11/122/54 42/122/54 43/121/54 
f 41/131/63 10/131/63 26/132/63 44/132/63 
f 43/121/54 42/122/54 46/122/54 47/121/54 
f 45/131/63 41/131/63 44/132/63 48/132/63 
f 47/121/54 46/122/54 50/122/54 51/121/54 
f 49/131/63 45/131/63 48/132/63 52/132/63 
f 51/121/54 50/122/54 54/122/54 58/121/54 
f 49/131/63 52/132/63 57/132/63 55/131/63 
s 4
f 61/133/64 23/134/65 63/135/66 56/136/67 
f 64/130/62 63/135/66 23/134/65 22/129/61 
f 59/137/68 53/138/69 62/139/70 19/140/71 
f 53/138/69 55/131/72 57/132/72 62/139/70 
f 60/126/58 59/137/68 19/140/71 18/123/55 
f 61/133/64 56/136/67 58/121/73 54/122/73 
# 70 polygons - 8 triangles

