# 3ds Max Wavefront OBJ Exporter v0.97b - (c)2007 guruware
# File Created: 07.04.2017 01:18:41

#
# object Object008
#

v  -10.3345 -0.3204 505.8956
v  -1.0317 -0.3204 505.8956
v  -1.0317 -0.3204 503.2750
v  -38.8019 -0.3204 246.8975
v  156.6916 -0.3204 503.2750
v  156.6916 -0.3204 505.8956
v  165.9944 -0.3204 505.8956
v  165.9944 -0.3204 495.9622
v  152.7958 -0.3204 503.2750
v  2.8641 -0.3204 503.2750
v  165.9944 -0.3204 452.8296
v  165.9944 -0.3204 31.9102
v  165.9944 -0.3204 9.1713
v  165.9944 -0.3204 9.9739
v  84.1833 -0.3204 9.9739
v  84.1833 -0.3204 9.1713
v  -10.3345 -0.3204 9.1713
v  -10.3345 -0.3204 31.9102
v  87.5395 -0.3204 9.9739
v  162.5060 -0.3204 9.9739
v  -41.5184 -0.3204 31.9102
v  -41.5184 -0.3204 112.2663
v  -38.8019 -0.3204 112.2663
v  -38.8019 -0.3204 116.1381
v  -38.8019 -0.3204 243.0257
v  -41.5184 -0.3204 246.8975
v  -41.5184 -0.3204 301.9458
v  -39.0488 -0.3204 301.9458
v  -39.0488 -0.3204 306.0637
v  -39.0488 -0.3204 497.4827
v  -39.0488 -0.3204 501.6006
v  -41.5184 -0.3204 501.6006
v  -41.5184 -0.3204 505.8956
# 33 vertices

vn 0.0000 1.0000 -0.0000
# 1 vertex normals

vt 0.5000 0.0000 0.0000
vt 0.5264 0.0000 0.0000
vt 0.0000 0.3111 0.0000
vt 0.9736 0.0000 0.0000
vt 1.0000 0.0000 0.0000
vt 1.0000 0.2500 0.0000
vt 0.9626 0.0000 0.0000
vt 0.5374 0.0000 0.0000
vt 1.0000 0.3750 0.0000
vt 1.0000 0.5000 0.0000
vt 1.0000 1.0000 0.0000
vt 0.7500 1.0000 0.0000
vt 0.5000 1.0000 0.0000
vt 0.5000 0.5000 0.0000
vt 0.8125 1.0000 0.0000
vt 0.8750 1.0000 0.0000
vt 0.0000 0.5000 0.0000
vt 0.0000 0.4337 0.0000
vt 0.0000 0.4302 0.0000
vt 0.0000 0.3146 0.0000
vt 0.0000 0.2448 0.0000
vt 0.0000 0.2399 0.0000
vt 0.0000 0.0101 0.0000
vt 0.0000 0.0052 0.0000
vt 0.0000 0.0000 0.0000
# 25 texture coords

g Object008
s off
f 1/1/1 2/2/1 3/2/1 4/3/1 
f 5/4/1 6/4/1 7/5/1 8/6/1 
f 9/7/1 5/4/1 8/6/1 10/8/1 
f 3/2/1 10/8/1 8/6/1 11/9/1 
f 12/10/1 13/11/1 14/11/1 4/3/1 
f 15/12/1 16/12/1 17/13/1 18/14/1 
f 19/15/1 15/12/1 18/14/1 20/16/1 
f 14/11/1 20/16/1 18/14/1 4/3/1 
f 18/14/1 21/17/1 22/18/1 23/18/1 
f 18/14/1 23/18/1 24/19/1 25/20/1 
f 18/14/1 25/20/1 4/3/1 
f 11/9/1 12/10/1 4/3/1 3/2/1 
f 4/3/1 26/3/1 27/21/1 28/21/1 
f 4/3/1 28/21/1 29/22/1 1/1/1 
f 1/1/1 29/22/1 30/23/1 31/24/1 
f 1/1/1 31/24/1 32/24/1 33/25/1 
# 15 polygons - 1 triangles

