# 3ds Max Wavefront OBJ Exporter v0.97b - (c)2007 guruware
# File Created: 20.06.2017 15:01:42

mtllib head.mtl

#
# object Cylinder022
#

v  -11.5363 14.6102 -0.2627
v  -11.5363 14.9980 -0.2627
v  -11.4943 14.9980 0.0025
v  -11.4943 14.6102 0.0025
v  -11.6582 14.6102 -0.5020
v  -11.6582 14.9980 -0.5020
v  -11.8481 14.6102 -0.6918
v  -11.8481 14.9980 -0.6918
v  -12.0873 14.6102 -0.8137
v  -12.0873 14.9980 -0.8137
v  -12.3525 14.6102 -0.8557
v  -12.3525 14.9980 -0.8557
v  -12.6177 14.6102 -0.8137
v  -12.6177 14.9980 -0.8137
v  -12.8569 14.6102 -0.6918
v  -12.8569 14.9980 -0.6918
v  -13.0468 14.6102 -0.5020
v  -13.0468 14.9980 -0.5020
v  -13.1687 14.6102 -0.2627
v  -13.1687 14.9980 -0.2627
v  -13.2107 14.6102 0.0025
v  -13.2107 14.9980 0.0025
v  -13.1687 14.6102 0.2677
v  -13.1687 14.9980 0.2677
v  -13.0468 14.6102 0.5069
v  -13.0468 14.9980 0.5069
v  -12.8569 14.6102 0.6968
v  -12.8569 14.9980 0.6968
v  -12.6177 14.6102 0.8187
v  -12.6177 14.9980 0.8187
v  -12.3525 14.6102 0.8606
v  -12.3525 14.9980 0.8606
v  -12.0873 14.6102 0.8187
v  -12.0873 14.9980 0.8187
v  -11.8481 14.6102 0.6968
v  -11.8481 14.9980 0.6968
v  -11.6582 14.6102 0.5069
v  -11.6582 14.9980 0.5069
v  -11.5363 14.6102 0.2677
v  -11.5363 14.9980 0.2677
v  -11.4020 14.6102 0.0025
v  -11.4020 13.8251 0.0025
v  -11.4485 13.8251 -0.2913
v  -11.4485 14.6102 -0.2913
v  -11.4485 14.6102 0.2962
v  -11.4485 13.8251 0.2962
v  -11.5835 14.6102 0.5611
v  -11.5835 13.8251 0.5611
v  -11.7938 14.6102 0.7714
v  -11.7938 13.8251 0.7714
v  -12.0588 14.6102 0.9064
v  -12.0588 13.8251 0.9064
v  -12.3525 14.6102 0.9529
v  -12.3525 13.8251 0.9529
v  -12.6462 14.6102 0.9064
v  -12.6462 13.8251 0.9064
v  -12.9112 14.6102 0.7714
v  -12.9112 13.8251 0.7714
v  -13.1215 14.6102 0.5611
v  -13.1215 13.8251 0.5611
v  -13.2565 14.6102 0.2962
v  -13.2565 13.8251 0.2962
v  -13.3030 14.6102 0.0025
v  -13.3030 13.8251 0.0025
v  -13.2565 14.6102 -0.2913
v  -13.2565 13.8251 -0.2913
v  -13.1215 14.6102 -0.5562
v  -13.1215 13.8251 -0.5562
v  -12.9112 14.6102 -0.7665
v  -12.9112 13.8251 -0.7665
v  -12.6462 14.6102 -0.9015
v  -12.6462 13.8251 -0.9015
v  -12.3525 14.6102 -0.9480
v  -12.3525 13.8251 -0.9480
v  -12.0588 14.6102 -0.9015
v  -12.0588 13.8251 -0.9015
v  -11.7938 14.6102 -0.7665
v  -11.7938 13.8251 -0.7665
v  -11.5835 14.6102 -0.5562
v  -11.5835 13.8251 -0.5562
v  -11.4943 13.8251 0.0025
v  -11.4943 13.5077 0.0025
v  -11.5363 13.5077 -0.2627
v  -11.5363 13.8251 -0.2627
v  -11.5363 13.8251 0.2677
v  -11.5363 13.5077 0.2677
v  -11.6582 13.8251 0.5069
v  -11.6582 13.5077 0.5069
v  -11.8481 13.8251 0.6968
v  -11.8481 13.5077 0.6968
v  -12.0873 13.8251 0.8187
v  -12.0873 13.5077 0.8187
v  -12.3525 13.8251 0.8606
v  -12.3525 13.5077 0.8606
v  -12.6177 13.8251 0.8187
v  -12.6177 13.5077 0.8187
v  -12.8569 13.8251 0.6968
v  -12.8569 13.5077 0.6968
v  -13.0468 13.8251 0.5069
v  -13.0468 13.5077 0.5069
v  -13.1687 13.8251 0.2677
v  -13.1687 13.5077 0.2677
v  -13.2107 13.8251 0.0025
v  -13.2107 13.5077 0.0025
v  -13.1687 13.8251 -0.2627
v  -13.1687 13.5077 -0.2627
v  -13.0468 13.8251 -0.5020
v  -13.0468 13.5077 -0.5020
v  -12.8569 13.8251 -0.6918
v  -12.8569 13.5077 -0.6918
v  -12.6177 13.8251 -0.8137
v  -12.6177 13.5077 -0.8137
v  -12.3525 13.8251 -0.8557
v  -12.3525 13.5077 -0.8557
v  -12.0873 13.8251 -0.8137
v  -12.0873 13.5077 -0.8137
v  -11.8481 13.8251 -0.6918
v  -11.8481 13.5077 -0.6918
v  -11.6582 13.8251 -0.5020
v  -11.6582 13.5077 -0.5020
v  -11.4020 13.5077 0.0025
v  -11.4020 11.8832 0.0025
v  -11.4485 11.8832 -0.2913
v  -11.4485 13.5077 -0.2913
v  -11.4485 13.5077 0.2962
v  -11.4485 11.8832 0.2962
v  -11.5835 13.5077 0.5611
v  -11.5835 11.8832 0.5611
v  -11.7938 13.5077 0.7714
v  -11.7938 11.8832 0.7714
v  -12.0588 13.5077 0.9064
v  -12.0588 11.8832 0.9064
v  -12.3525 13.5077 0.9529
v  -12.3525 11.8832 0.9529
v  -12.6462 13.5077 0.9064
v  -12.6462 11.8832 0.9064
v  -12.9112 13.5077 0.7714
v  -12.9112 11.8832 0.7714
v  -13.1215 13.5077 0.5611
v  -13.1215 11.8832 0.5611
v  -13.2565 13.5077 0.2962
v  -13.2565 11.8832 0.2962
v  -13.3030 13.5077 0.0025
v  -13.3030 11.8832 0.0025
v  -13.2565 13.5077 -0.2913
v  -13.2565 11.8832 -0.2913
v  -13.1215 13.5077 -0.5562
v  -13.1215 11.8832 -0.5562
v  -12.9112 13.5077 -0.7665
v  -12.9112 11.8832 -0.7665
v  -12.6462 13.5077 -0.9015
v  -12.6462 11.8832 -0.9015
v  -12.3525 13.5077 -0.9480
v  -12.3525 11.8832 -0.9480
v  -12.0588 13.5077 -0.9015
v  -12.0588 11.8832 -0.9015
v  -11.7938 13.5077 -0.7665
v  -11.7938 11.8832 -0.7665
v  -11.5835 13.5077 -0.5562
v  -11.5835 11.8832 -0.5562
v  22.1600 -14.9644 -2.5611
v  22.1600 -14.9644 2.6400
v  22.1600 -16.6514 2.6400
v  22.1600 -16.6514 -2.5611
v  20.6472 -14.7756 2.6400
v  20.6472 -14.7756 -2.5611
v  19.2242 -14.2206 2.6400
v  19.2242 -14.2206 -2.5611
v  17.9808 -13.3337 2.6400
v  17.9808 -13.3337 -2.5611
v  16.9931 -12.1687 2.6400
v  16.9931 -12.1687 -2.5611
v  16.3213 -10.7971 2.6400
v  16.3213 -10.7971 -2.5611
v  16.0066 -9.3025 2.6400
v  16.0066 -9.3025 -2.5611
v  15.9850 -7.6333 2.6400
v  15.9850 -7.6333 -2.5611
v  20.2333 -16.4111 -2.5611
v  18.4217 -15.7047 -2.5611
v  16.8388 -14.5754 -2.5611
v  15.5813 -13.0924 -2.5611
v  14.7261 -11.3461 -2.5611
v  14.3254 -9.4434 -2.5611
v  14.2980 -7.6333 -2.5611
v  20.2333 -16.4111 2.6400
v  18.4217 -15.7047 2.6400
v  16.8388 -14.5754 2.6400
v  15.5813 -13.0924 2.6400
v  14.7261 -11.3461 2.6400
v  14.3254 -9.4434 2.6400
v  14.2980 -7.6333 2.6400
v  15.9850 -0.0000 -2.5611
v  15.9850 -0.0000 2.6400
v  14.2979 -0.0000 -2.5611
v  14.2979 -0.0000 2.6400
v  -16.1170 14.9642 2.6400
v  -16.1170 16.6513 2.6400
v  -16.1170 16.6513 -2.5611
v  -16.1170 14.9642 -2.5611
v  9.6358 14.7754 -2.5611
v  9.6358 14.7754 2.6400
v  8.1202 14.9642 2.6400
v  8.1202 14.9642 -2.5611
v  11.0588 14.2205 -2.5611
v  11.0588 14.2205 2.6400
v  12.3021 13.3335 -2.5611
v  12.3021 13.3335 2.6400
v  13.2899 12.1686 -2.5611
v  13.2899 12.1686 2.6400
v  13.9616 10.7969 -2.5611
v  13.9616 10.7969 2.6400
v  14.2764 9.3023 -2.5611
v  14.2764 9.3023 2.6400
v  14.2979 7.6331 -2.5611
v  14.2979 7.6331 2.6400
v  10.0497 16.4109 2.6400
v  8.1202 16.6513 2.6400
v  11.8613 15.7045 2.6400
v  13.4442 14.5753 2.6400
v  14.7017 13.0922 2.6400
v  15.5569 11.3459 2.6400
v  15.9575 9.4432 2.6400
v  15.9850 7.6331 2.6400
v  10.0497 16.4109 -2.5611
v  8.1202 16.6513 -2.5611
v  11.8613 15.7045 -2.5611
v  13.4442 14.5753 -2.5611
v  14.7017 13.0922 -2.5611
v  15.5569 11.3459 -2.5611
v  15.9575 9.4432 -2.5611
v  15.9850 7.6331 -2.5611
v  -22.1628 10.9855 -9.7949
v  -2.5731 10.9855 -9.7949
v  -2.5731 10.9855 9.7949
v  -22.1628 10.9855 9.7949
v  -2.5731 12.0225 9.7949
v  -2.5731 12.0225 -9.7949
v  -22.1628 12.0225 -9.7949
v  -22.1628 12.0225 9.7949
# 240 vertices

vn 0.9511 0.0000 -0.3090
vn 1.0000 0.0000 -0.0000
vn 0.8090 0.0000 -0.5878
vn 0.5878 0.0000 -0.8090
vn 0.3090 0.0000 -0.9511
vn 0.0000 0.0000 -1.0000
vn -0.3090 0.0000 -0.9511
vn -0.5878 0.0000 -0.8090
vn -0.8090 0.0000 -0.5878
vn -0.9511 0.0000 -0.3090
vn -1.0000 0.0000 -0.0000
vn -0.9511 0.0000 0.3090
vn -0.8090 0.0000 0.5878
vn -0.5878 0.0000 0.8090
vn -0.3090 0.0000 0.9511
vn 0.0000 0.0000 1.0000
vn 0.3090 0.0000 0.9511
vn 0.5878 0.0000 0.8090
vn 0.8090 0.0000 0.5878
vn 0.9511 0.0000 0.3090
vn 0.9877 0.0000 -0.1564
vn 0.9877 0.0000 0.1564
vn 0.8910 0.0000 0.4540
vn 0.7071 0.0000 0.7071
vn 0.4540 0.0000 0.8910
vn 0.1564 0.0000 0.9877
vn -0.1564 0.0000 0.9877
vn -0.4540 0.0000 0.8910
vn -0.7071 0.0000 0.7071
vn -0.8910 0.0000 0.4540
vn -0.9877 0.0000 0.1564
vn -0.9877 0.0000 -0.1564
vn -0.8910 0.0000 -0.4540
vn -0.7071 0.0000 -0.7071
vn -0.4540 0.0000 -0.8910
vn -0.1564 0.0000 -0.9877
vn 0.1564 0.0000 -0.9877
vn 0.4540 0.0000 -0.8910
vn 0.7071 0.0000 -0.7071
vn 0.8910 0.0000 -0.4540
vn 0.0000 1.0000 -0.0000
vn 0.0000 -1.0000 -0.0000
vn 0.2453 0.9694 -0.0000
vn 0.1236 0.9923 -0.0000
vn 0.4757 0.8796 -0.0000
vn 0.6769 0.7360 -0.0000
vn 0.8368 0.5475 -0.0000
vn 0.9456 0.3254 -0.0000
vn 0.9939 0.1100 -0.0000
vn 1.0000 0.0065 -0.0000
vn -0.2453 -0.9694 -0.0000
vn -0.1236 -0.9923 -0.0000
vn -0.4757 -0.8796 -0.0000
vn -0.6769 -0.7360 -0.0000
vn -0.8368 -0.5475 -0.0000
vn -0.9456 -0.3254 -0.0000
vn -0.9938 -0.1111 -0.0000
vn -1.0000 -0.0076 -0.0000
vn -0.9939 -0.1100 -0.0000
vn -1.0000 -0.0065 -0.0000
vn 0.9938 0.1111 -0.0000
vn 1.0000 0.0076 -0.0000
# 62 vertex normals

vt 0.8000 0.0000 1.0000
vt 0.8000 1.0000 1.0000
vt 0.7500 1.0000 1.0000
vt 0.7500 0.0000 1.0000
vt 0.8500 0.0000 1.0000
vt 0.8500 1.0000 1.0000
vt 0.9000 0.0000 1.0000
vt 0.9000 1.0000 1.0000
vt 0.9500 0.0000 1.0000
vt 0.9500 1.0000 1.0000
vt 1.0000 0.0000 1.0000
vt 1.0000 1.0000 1.0000
vt 0.0500 0.0000 1.0000
vt 0.0500 1.0000 1.0000
vt 0.0000 1.0000 1.0000
vt 0.0000 0.0000 1.0000
vt 0.1000 0.0000 1.0000
vt 0.1000 1.0000 1.0000
vt 0.1500 0.0000 1.0000
vt 0.1500 1.0000 1.0000
vt 0.2000 0.0000 1.0000
vt 0.2000 1.0000 1.0000
vt 0.2500 0.0000 1.0000
vt 0.2500 1.0000 1.0000
vt 0.3000 0.0000 1.0000
vt 0.3000 1.0000 1.0000
vt 0.3500 0.0000 1.0000
vt 0.3500 1.0000 1.0000
vt 0.4000 0.0000 1.0000
vt 0.4000 1.0000 1.0000
vt 0.4500 0.0000 1.0000
vt 0.4500 1.0000 1.0000
vt 0.5000 0.0000 1.0000
vt 0.5000 1.0000 1.0000
vt 0.5500 0.0000 1.0000
vt 0.5500 1.0000 1.0000
vt 0.6000 0.0000 1.0000
vt 0.6000 1.0000 1.0000
vt 0.6500 0.0000 1.0000
vt 0.6500 1.0000 1.0000
vt 0.7000 0.0000 1.0000
vt 0.7000 1.0000 1.0000
vt 0.5000 1.0000 -0.2500
vt 0.3455 0.9755 -0.2500
vt 0.6545 0.9755 -0.2500
vt 0.7939 0.9045 -0.2500
vt 0.9045 0.7939 -0.2500
vt 0.9755 0.6545 -0.2500
vt 1.0000 0.5000 -0.2500
vt 0.9755 0.3455 -0.2500
vt 0.9045 0.2061 -0.2500
vt 0.7939 0.0955 -0.2500
vt 0.6545 0.0245 -0.2500
vt 0.5000 0.0000 -0.2500
vt 0.3455 0.0245 -0.2500
vt 0.2061 0.0955 -0.2500
vt 0.0955 0.2061 -0.2500
vt 0.0245 0.3455 -0.2500
vt 0.0000 0.5000 -0.2500
vt 0.0245 0.6545 -0.2500
vt 0.0955 0.7939 -0.2500
vt 0.2061 0.9045 -0.2500
vt 0.0000 0.0000 0.0000
vt 1.0000 0.0000 0.0000
vt 1.0000 1.0000 0.0000
vt 0.0000 1.0000 0.0000
vt 0.0000 0.1000 0.0000
vt 1.0000 0.1000 0.0000
vt 0.0000 0.2000 0.0000
vt 1.0000 0.2000 0.0000
vt 0.0000 0.3000 0.0000
vt 1.0000 0.3000 0.0000
vt 0.0000 0.4000 0.0000
vt 1.0000 0.4000 0.0000
vt 0.0000 0.5000 0.0000
vt 1.0000 0.5000 0.0000
vt 0.0000 0.6000 0.0000
vt 1.0000 0.6000 0.0000
vt 0.0000 0.7000 0.0000
vt 1.0000 0.7000 0.0000
# 80 texture coords

g Cylinder022
usemtl _headdefault
s 8
f 1/1/1 2/2/1 3/3/2 4/4/2 
f 5/5/3 6/6/3 2/2/1 1/1/1 
f 7/7/4 8/8/4 6/6/3 5/5/3 
f 9/9/5 10/10/5 8/8/4 7/7/4 
f 11/11/6 12/12/6 10/10/5 9/9/5 
f 13/13/7 14/14/7 12/15/6 11/16/6 
f 15/17/8 16/18/8 14/14/7 13/13/7 
f 17/19/9 18/20/9 16/18/8 15/17/8 
f 19/21/10 20/22/10 18/20/9 17/19/9 
f 21/23/11 22/24/11 20/22/10 19/21/10 
f 23/25/12 24/26/12 22/24/11 21/23/11 
f 25/27/13 26/28/13 24/26/12 23/25/12 
f 27/29/14 28/30/14 26/28/13 25/27/13 
f 29/31/15 30/32/15 28/30/14 27/29/14 
f 31/33/16 32/34/16 30/32/15 29/31/15 
f 33/35/17 34/36/17 32/34/16 31/33/16 
f 35/37/18 36/38/18 34/36/17 33/35/17 
f 37/39/19 38/40/19 36/38/18 35/37/18 
f 39/41/20 40/42/20 38/40/19 37/39/19 
f 4/4/2 3/3/2 40/42/20 39/41/20 
s off
f 41/43/21 42/43/21 43/44/21 44/44/21 
f 45/45/22 46/45/22 42/43/22 41/43/22 
f 47/46/23 48/46/23 46/45/23 45/45/23 
f 49/47/24 50/47/24 48/46/24 47/46/24 
f 51/48/25 52/48/25 50/47/25 49/47/25 
f 53/49/26 54/49/26 52/48/26 51/48/26 
f 55/50/27 56/50/27 54/49/27 53/49/27 
f 57/51/28 58/51/28 56/50/28 55/50/28 
f 59/52/29 60/52/29 58/51/29 57/51/29 
f 61/53/30 62/53/30 60/52/30 59/52/30 
f 63/54/31 64/54/31 62/53/31 61/53/31 
f 65/55/32 66/55/32 64/54/32 63/54/32 
f 67/56/33 68/56/33 66/55/33 65/55/33 
f 69/57/34 70/57/34 68/56/34 67/56/34 
f 71/58/35 72/58/35 70/57/35 69/57/35 
f 73/59/36 74/59/36 72/58/36 71/58/36 
f 75/60/37 76/60/37 74/59/37 73/59/37 
f 77/61/38 78/61/38 76/60/38 75/60/38 
f 79/62/39 80/62/39 78/61/39 77/61/39 
f 44/44/40 43/44/40 80/62/40 79/62/40 
f 81/43/21 82/43/21 83/44/21 84/44/21 
f 85/45/22 86/45/22 82/43/22 81/43/22 
f 87/46/23 88/46/23 86/45/23 85/45/23 
f 89/47/24 90/47/24 88/46/24 87/46/24 
f 91/48/25 92/48/25 90/47/25 89/47/25 
f 93/49/26 94/49/26 92/48/26 91/48/26 
f 95/50/27 96/50/27 94/49/27 93/49/27 
f 97/51/28 98/51/28 96/50/28 95/50/28 
f 99/52/29 100/52/29 98/51/29 97/51/29 
f 101/53/30 102/53/30 100/52/30 99/52/30 
f 103/54/31 104/54/31 102/53/31 101/53/31 
f 105/55/32 106/55/32 104/54/32 103/54/32 
f 107/56/33 108/56/33 106/55/33 105/55/33 
f 109/57/34 110/57/34 108/56/34 107/56/34 
f 111/58/35 112/58/35 110/57/35 109/57/35 
f 113/59/36 114/59/36 112/58/36 111/58/36 
f 115/60/37 116/60/37 114/59/37 113/59/37 
f 117/61/38 118/61/38 116/60/38 115/60/38 
f 119/62/39 120/62/39 118/61/39 117/61/39 
f 84/44/40 83/44/40 120/62/40 119/62/40 
f 121/43/21 122/43/21 123/44/21 124/44/21 
f 125/45/22 126/45/22 122/43/22 121/43/22 
f 127/46/23 128/46/23 126/45/23 125/45/23 
f 129/47/24 130/47/24 128/46/24 127/46/24 
f 131/48/25 132/48/25 130/47/25 129/47/25 
f 133/49/26 134/49/26 132/48/26 131/48/26 
f 135/50/27 136/50/27 134/49/27 133/49/27 
f 137/51/28 138/51/28 136/50/28 135/50/28 
f 139/52/29 140/52/29 138/51/29 137/51/29 
f 141/53/30 142/53/30 140/52/30 139/52/30 
f 143/54/31 144/54/31 142/53/31 141/53/31 
f 145/55/32 146/55/32 144/54/32 143/54/32 
f 147/56/33 148/56/33 146/55/33 145/55/33 
f 149/57/34 150/57/34 148/56/34 147/56/34 
f 151/58/35 152/58/35 150/57/35 149/57/35 
f 153/59/36 154/59/36 152/58/36 151/58/36 
f 155/60/37 156/60/37 154/59/37 153/59/37 
f 157/61/38 158/61/38 156/60/38 155/60/38 
f 159/62/39 160/62/39 158/61/39 157/61/39 
f 124/44/40 123/44/40 160/62/40 159/62/40 
f 4/43/41 41/43/41 44/44/41 1/44/41 
f 39/45/41 45/45/41 41/43/41 4/43/41 
f 37/46/41 47/46/41 45/45/41 39/45/41 
f 35/47/41 49/47/41 47/46/41 37/46/41 
f 33/48/41 51/48/41 49/47/41 35/47/41 
f 31/49/41 53/49/41 51/48/41 33/48/41 
f 29/50/41 55/50/41 53/49/41 31/49/41 
f 27/51/41 57/51/41 55/50/41 29/50/41 
f 25/52/41 59/52/41 57/51/41 27/51/41 
f 23/53/41 61/53/41 59/52/41 25/52/41 
f 21/54/41 63/54/41 61/53/41 23/53/41 
f 19/55/41 65/55/41 63/54/41 21/54/41 
f 17/56/41 67/56/41 65/55/41 19/55/41 
f 15/57/41 69/57/41 67/56/41 17/56/41 
f 13/58/41 71/58/41 69/57/41 15/57/41 
f 11/59/41 73/59/41 71/58/41 13/58/41 
f 9/60/41 75/60/41 73/59/41 11/59/41 
f 7/61/41 77/61/41 75/60/41 9/60/41 
f 5/62/41 79/62/41 77/61/41 7/61/41 
f 1/44/41 44/44/41 79/62/41 5/62/41 
f 84/44/42 43/44/42 42/43/42 81/43/42 
f 119/62/42 80/62/42 43/44/42 84/44/42 
f 117/61/42 78/61/42 80/62/42 119/62/42 
f 115/60/42 76/60/42 78/61/42 117/61/42 
f 113/59/42 74/59/42 76/60/42 115/60/42 
f 111/58/42 72/58/42 74/59/42 113/59/42 
f 109/57/42 70/57/42 72/58/42 111/58/42 
f 107/56/42 68/56/42 70/57/42 109/57/42 
f 105/55/42 66/55/42 68/56/42 107/56/42 
f 103/54/42 64/54/42 66/55/42 105/55/42 
f 101/53/42 62/53/42 64/54/42 103/54/42 
f 99/52/42 60/52/42 62/53/42 101/53/42 
f 97/51/42 58/51/42 60/52/42 99/52/42 
f 95/50/42 56/50/42 58/51/42 97/51/42 
f 93/49/42 54/49/42 56/50/42 95/50/42 
f 91/48/42 52/48/42 54/49/42 93/49/42 
f 89/47/42 50/47/42 52/48/42 91/48/42 
f 87/46/42 48/46/42 50/47/42 89/47/42 
f 85/45/42 46/45/42 48/46/42 87/46/42 
f 81/43/42 42/43/42 46/45/42 85/45/42 
f 82/43/41 121/43/41 124/44/41 83/44/41 
f 86/45/41 125/45/41 121/43/41 82/43/41 
f 88/46/41 127/46/41 125/45/41 86/45/41 
f 90/47/41 129/47/41 127/46/41 88/46/41 
f 92/48/41 131/48/41 129/47/41 90/47/41 
f 94/49/41 133/49/41 131/48/41 92/48/41 
f 96/50/41 135/50/41 133/49/41 94/49/41 
f 98/51/41 137/51/41 135/50/41 96/50/41 
f 100/52/41 139/52/41 137/51/41 98/51/41 
f 102/53/41 141/53/41 139/52/41 100/52/41 
f 104/54/41 143/54/41 141/53/41 102/53/41 
f 106/55/41 145/55/41 143/54/41 104/54/41 
f 108/56/41 147/56/41 145/55/41 106/55/41 
f 110/57/41 149/57/41 147/56/41 108/56/41 
f 112/58/41 151/58/41 149/57/41 110/57/41 
f 114/59/41 153/59/41 151/58/41 112/58/41 
f 116/60/41 155/60/41 153/59/41 114/59/41 
f 118/61/41 157/61/41 155/60/41 116/60/41 
f 120/62/41 159/62/41 157/61/41 118/61/41 
f 83/44/41 124/44/41 159/62/41 120/62/41 
s 2
f 161/63/2 162/64/2 163/65/2 164/66/2 
s 8
f 165/67/43 162/63/44 161/64/44 166/68/43 
f 167/69/45 165/67/43 166/68/43 168/70/45 
f 169/71/46 167/69/45 168/70/45 170/72/46 
f 171/73/47 169/71/46 170/72/46 172/74/47 
f 173/75/48 171/73/47 172/74/47 174/76/48 
f 175/77/49 173/75/48 174/76/48 176/78/49 
f 177/79/50 175/77/49 176/78/49 178/80/50 
s 16
f 166/67/6 161/63/6 164/64/6 179/68/6 
f 168/69/6 166/67/6 179/68/6 180/70/6 
f 170/71/6 168/69/6 180/70/6 181/72/6 
f 172/73/6 170/71/6 181/72/6 182/74/6 
f 174/75/6 172/73/6 182/74/6 183/76/6 
f 176/77/6 174/75/6 183/76/6 184/78/6 
f 185/80/6 178/79/6 176/77/6 184/78/6 
s 32
f 179/67/51 164/63/52 163/64/52 186/68/51 
f 180/69/53 179/67/51 186/68/51 187/70/53 
f 181/71/54 180/69/53 187/70/53 188/72/54 
f 182/73/55 181/71/54 188/72/54 189/74/55 
f 183/75/56 182/73/55 189/74/55 190/76/56 
f 184/77/57 183/75/56 190/76/56 191/78/57 
f 185/79/58 184/77/57 191/78/57 192/80/58 
s 64
f 186/67/16 163/63/16 162/64/16 165/68/16 
f 187/69/16 186/67/16 165/68/16 167/70/16 
f 188/71/16 187/69/16 167/70/16 169/72/16 
f 189/73/16 188/71/16 169/72/16 171/74/16 
f 190/75/16 189/73/16 171/74/16 173/76/16 
f 191/77/16 190/75/16 173/76/16 175/78/16 
f 192/79/16 191/77/16 175/78/16 177/80/16 
s 8
f 178/80/50 193/80/2 194/79/2 177/79/50 
s 16
f 185/80/6 195/80/6 193/79/6 178/79/6 
s 32
f 192/80/58 196/80/11 195/79/11 185/79/58 
s 64
f 177/80/16 194/80/16 196/79/16 192/79/16 
s 2
f 197/63/11 198/66/11 199/65/11 200/64/11 
s 8
f 201/67/51 202/68/51 203/64/52 204/63/52 
f 205/69/53 206/70/53 202/68/51 201/67/51 
f 207/71/54 208/72/54 206/70/53 205/69/53 
f 209/73/55 210/74/55 208/72/54 207/71/54 
f 211/75/56 212/76/56 210/74/55 209/73/55 
f 213/77/59 214/78/59 212/76/56 211/75/56 
f 215/79/60 216/80/60 214/78/59 213/77/59 
s 16
f 202/67/16 217/68/16 218/64/16 203/63/16 
f 206/69/16 219/70/16 217/68/16 202/67/16 
f 208/71/16 220/72/16 219/70/16 206/69/16 
f 210/73/16 221/74/16 220/72/16 208/71/16 
f 212/75/16 222/76/16 221/74/16 210/73/16 
f 214/77/16 223/78/16 222/76/16 212/75/16 
f 214/77/16 216/79/16 224/80/16 223/78/16 
s 32
f 217/67/43 225/68/43 226/64/44 218/63/44 
f 219/69/45 227/70/45 225/68/43 217/67/43 
f 220/71/46 228/72/46 227/70/45 219/69/45 
f 221/73/47 229/74/47 228/72/46 220/71/46 
f 222/75/48 230/76/48 229/74/47 221/73/47 
f 223/77/61 231/78/61 230/76/48 222/75/48 
f 224/79/62 232/80/62 231/78/61 223/77/61 
s 64
f 225/67/6 201/68/6 204/64/6 226/63/6 
f 227/69/6 205/70/6 201/68/6 225/67/6 
f 228/71/6 207/72/6 205/70/6 227/69/6 
f 229/73/6 209/74/6 207/72/6 228/71/6 
f 230/75/6 211/76/6 209/74/6 229/73/6 
f 231/77/6 213/78/6 211/76/6 230/75/6 
f 232/79/6 215/80/6 213/78/6 231/77/6 
s 8
f 216/80/60 215/79/60 195/79/11 196/80/11 
s 16
f 224/80/16 216/79/16 196/79/16 194/80/16 
s 32
f 232/80/62 224/79/62 194/79/2 193/80/2 
s 64
f 215/80/6 232/79/6 193/79/6 195/80/6 
s off
f 204/64/6 200/64/6 199/65/6 226/65/6 
f 203/63/42 197/63/42 200/64/42 204/64/42 
f 218/66/16 198/66/16 197/63/16 203/63/16 
f 226/65/41 199/65/41 198/66/41 218/66/41 
s 2
f 233/65/42 234/66/42 235/63/42 236/64/42 
s 4
f 237/64/41 238/65/41 239/66/41 240/63/41 
s 8
f 235/64/16 237/65/16 240/66/16 236/63/16 
s 16
f 234/64/2 238/65/2 237/66/2 235/63/2 
s 32
f 233/64/6 239/65/6 238/66/6 234/63/6 
s 64
f 236/64/11 240/65/11 239/66/11 233/63/11 
# 216 polygons

