# 3ds Max Wavefront OBJ Exporter v0.97b - (c)2007 guruware
# File Created: 12.05.2017 11:49:58

mtllib bedroombedcouch.mtl

#
# object FeetBed
#

v  267.2300 2.1125 321.0052
v  267.2300 2.1125 361.3907
v  258.5338 2.1125 361.3907
v  258.5338 2.1125 321.0052
v  267.2300 7.9220 360.9075
v  267.2300 7.9220 321.0052
v  258.5338 7.9220 321.0052
v  258.5338 7.9220 360.9075
v  267.2300 7.4387 361.3907
v  258.5338 7.4387 361.3907
v  267.7133 2.5958 360.9075
v  267.7133 2.5958 321.0052
v  267.7133 7.4387 321.0052
v  267.7133 7.4387 360.9075
v  258.5338 7.4387 320.5220
v  267.2300 7.4387 320.5220
v  267.2300 2.5958 320.5220
v  258.5338 2.5958 320.5220
v  258.0505 2.5958 321.0052
v  258.0505 2.5958 360.9075
v  258.0505 7.4387 360.9075
v  258.0505 7.4387 321.0052
v  258.0807 2.3976 320.9127
v  258.0807 2.3843 321.0052
v  267.4282 2.1427 320.9127
v  267.4414 2.1427 321.0052
v  258.3356 7.5312 361.3605
v  258.3224 7.4387 361.3605
v  267.6830 7.5312 361.1057
v  267.6830 7.4387 361.1189
v  258.0807 7.5312 320.8070
v  258.0807 7.4387 320.7938
v  267.4282 7.5312 320.5522
v  267.4414 7.4387 320.5522
v  258.3224 2.1427 321.0052
v  258.3224 2.1427 361.3605
v  267.2300 2.1427 320.7938
v  258.5338 2.1427 320.7938
v  267.4414 2.1427 361.3605
v  267.2300 7.8917 361.1189
v  258.5338 7.8918 361.1189
v  267.4414 7.8918 321.0052
v  267.4414 7.8918 360.9075
v  258.5338 7.8917 320.7938
v  267.2300 7.8918 320.7938
v  258.3224 7.8918 360.9075
v  258.3224 7.8918 321.0052
v  267.4414 7.4387 361.3605
v  267.6830 7.4387 320.7938
v  267.6830 2.5958 320.7938
v  258.3224 7.4387 320.5522
v  258.3224 2.5958 320.5522
v  258.0807 2.5958 320.7938
v  258.0807 2.5033 320.8070
v  258.1714 2.4372 320.6654
v  258.1714 2.5958 320.6428
v  258.3224 2.3976 320.5805
v  258.5338 2.3843 320.5522
v  258.0807 2.4372 320.8466
v  258.1714 2.3239 320.7334
v  258.3224 2.2560 320.6654
v  258.5338 2.2333 320.6428
v  258.1714 2.2560 320.8466
v  258.3224 2.1710 320.8070
v  258.1714 2.2333 321.0052
v  267.3225 2.1427 320.8070
v  267.3886 2.2333 320.6654
v  267.2300 2.2333 320.6428
v  267.4282 2.3843 320.5805
v  267.2300 2.3843 320.5522
v  267.4414 2.5958 320.5522
v  267.3886 2.1427 320.8466
v  267.5018 2.2333 320.7334
v  267.5698 2.3843 320.6654
v  267.5924 2.5958 320.6428
v  267.5698 2.2333 320.8466
v  267.6547 2.3843 320.8070
v  267.5924 2.2333 321.0052
v  267.6830 2.3843 321.0052
v  258.5338 7.6501 361.3605
v  258.4413 7.6369 361.3605
v  258.3752 7.7785 361.2699
v  258.5338 7.8011 361.2699
v  258.3356 7.8634 361.1189
v  258.3752 7.5973 361.3605
v  258.2620 7.7105 361.2699
v  258.1940 7.7785 361.1189
v  258.1714 7.8011 360.9075
v  258.1940 7.5973 361.2699
v  258.1091 7.6369 361.1189
v  258.0807 7.6501 360.9075
v  258.1714 7.4387 361.2699
v  258.0807 7.4387 361.1189
v  267.6830 7.6501 360.9075
v  267.6830 7.6369 361.0000
v  267.5924 7.7785 361.0661
v  267.5924 7.8011 360.9075
v  267.4414 7.8634 361.1057
v  267.6830 7.5973 361.0661
v  267.5924 7.7105 361.1793
v  267.4414 7.7785 361.2473
v  267.2300 7.8011 361.2699
v  267.5924 7.5973 361.2473
v  267.4414 7.6369 361.3322
v  267.2300 7.6501 361.3605
v  267.5924 7.4387 361.2699
v  258.0807 7.6501 321.0052
v  258.0807 7.6369 320.9127
v  258.1714 7.7785 320.8466
v  258.1714 7.8011 321.0052
v  258.3224 7.8634 320.8070
v  258.0807 7.5973 320.8466
v  258.1714 7.7105 320.7334
v  258.3224 7.7785 320.6654
v  258.5338 7.8011 320.6428
v  258.1714 7.5973 320.6654
v  258.3224 7.6369 320.5805
v  258.5338 7.6501 320.5522
v  258.1714 7.4387 320.6428
v  267.2300 7.6501 320.5522
v  267.3225 7.6369 320.5522
v  267.3886 7.7785 320.6428
v  267.2300 7.8011 320.6428
v  267.4282 7.8634 320.7938
v  267.3886 7.5973 320.5522
v  267.5018 7.7105 320.6428
v  267.5698 7.7785 320.7938
v  267.5924 7.8011 321.0052
v  267.5698 7.5973 320.6428
v  267.6547 7.6369 320.7938
v  267.6830 7.6501 321.0052
v  267.5924 7.4387 320.6428
v  258.1714 2.2333 361.2699
v  258.0807 2.3843 361.1189
v  267.5924 2.2333 361.2699
v  267.6830 2.3843 361.1189
# 136 vertices

vn 0.0572 -0.9967 -0.0572
vn 0.0953 -0.7039 0.7039
vn -0.0953 -0.7039 0.7039
vn -0.0705 -0.9950 -0.0705
vn 0.0705 0.9950 0.0705
vn 0.0705 0.9950 -0.0705
vn -0.0705 0.9950 -0.0705
vn -0.0705 0.9950 0.0705
vn 0.0705 0.0705 0.9950
vn -0.0572 0.0572 0.9967
vn 0.9972 -0.0533 0.0533
vn 0.9950 -0.0705 -0.0705
vn 0.9950 0.0705 -0.0705
vn 0.9967 0.0572 0.0572
vn -0.0705 0.0705 -0.9950
vn 0.0572 0.0572 -0.9967
vn 0.0705 -0.0705 -0.9950
vn -0.0705 -0.0705 -0.9950
vn -0.9967 -0.0572 -0.0572
vn -0.9972 -0.0533 0.0533
vn -0.9950 0.0705 0.0705
vn -0.9967 0.0572 -0.0572
vn -0.9374 -0.3293 -0.1138
vn -0.9393 -0.3423 -0.0249
vn 0.3293 -0.9374 -0.1138
vn 0.3423 -0.9393 -0.0249
vn -0.3293 0.1138 0.9374
vn -0.3423 0.0249 0.9393
vn 0.9374 0.1138 0.3293
vn 0.9393 0.0249 0.3423
vn -0.9374 0.1138 -0.3293
vn -0.9393 0.0249 -0.3423
vn 0.3293 0.1138 -0.9374
vn 0.3423 0.0249 -0.9393
vn -0.3311 -0.9412 -0.0664
vn -0.3971 -0.6490 0.6490
vn 0.0249 -0.9393 -0.3423
vn -0.0723 -0.9396 -0.3345
vn 0.3971 -0.6490 0.6490
vn 0.0723 0.9396 0.3345
vn -0.0664 0.9412 0.3311
vn 0.3345 0.9396 -0.0723
vn 0.3311 0.9412 0.0664
vn -0.0723 0.9396 -0.3345
vn 0.0664 0.9412 -0.3311
vn -0.3345 0.9396 0.0723
vn -0.3311 0.9412 -0.0664
vn 0.3311 0.0664 0.9412
vn 0.9412 0.0664 -0.3311
vn 0.9396 -0.0723 -0.3345
vn -0.3311 0.0664 -0.9412
vn -0.3311 -0.0664 -0.9412
vn -0.9393 -0.0249 -0.3423
vn -0.9374 -0.1138 -0.3293
vn -0.7012 -0.2374 -0.6723
vn -0.7009 -0.0507 -0.7115
vn -0.3348 -0.3166 -0.8875
vn -0.0723 -0.3345 -0.9396
vn -0.9387 -0.2437 -0.2437
vn -0.7069 -0.5001 -0.5001
vn -0.3409 -0.6648 -0.6648
vn -0.0743 -0.7052 -0.7052
vn -0.7012 -0.6723 -0.2374
vn -0.3348 -0.8875 -0.3166
vn -0.7009 -0.7115 -0.0507
vn 0.1138 -0.9374 -0.3293
vn 0.2374 -0.7012 -0.6723
vn 0.0507 -0.7009 -0.7115
vn 0.3166 -0.3348 -0.8875
vn 0.0664 -0.3311 -0.9412
vn 0.3345 -0.0723 -0.9396
vn 0.2437 -0.9387 -0.2437
vn 0.5001 -0.7069 -0.5001
vn 0.6648 -0.3409 -0.6648
vn 0.7052 -0.0743 -0.7052
vn 0.6723 -0.7012 -0.2374
vn 0.8875 -0.3348 -0.3166
vn 0.7115 -0.7009 -0.0507
vn 0.9412 -0.3311 -0.0664
vn -0.0249 0.3423 0.9393
vn -0.1138 0.3293 0.9374
vn -0.2374 0.6723 0.7012
vn -0.0507 0.7115 0.7009
vn -0.3166 0.8875 0.3348
vn -0.2437 0.2437 0.9387
vn -0.5001 0.5001 0.7069
vn -0.6648 0.6648 0.3409
vn -0.7052 0.7052 0.0743
vn -0.6723 0.2374 0.7012
vn -0.8875 0.3166 0.3348
vn -0.9396 0.3345 0.0723
vn -0.7115 0.0507 0.7009
vn -0.9412 0.0664 0.3311
vn 0.9393 0.3423 0.0249
vn 0.9374 0.3293 0.1138
vn 0.7012 0.6723 0.2374
vn 0.7009 0.7115 0.0507
vn 0.3348 0.8875 0.3166
vn 0.9387 0.2437 0.2437
vn 0.7069 0.5001 0.5001
vn 0.3409 0.6648 0.6648
vn 0.0743 0.7052 0.7052
vn 0.7012 0.2374 0.6723
vn 0.3348 0.3166 0.8875
vn 0.0723 0.3345 0.9396
vn 0.7009 0.0507 0.7115
vn -0.9393 0.3423 -0.0249
vn -0.9374 0.3293 -0.1138
vn -0.7012 0.6723 -0.2374
vn -0.7009 0.7115 -0.0507
vn -0.3348 0.8875 -0.3166
vn -0.9387 0.2437 -0.2437
vn -0.7069 0.5001 -0.5001
vn -0.3409 0.6648 -0.6648
vn -0.0743 0.7052 -0.7052
vn -0.7012 0.2374 -0.6723
vn -0.3348 0.3166 -0.8875
vn -0.0723 0.3345 -0.9396
vn -0.7009 0.0507 -0.7115
vn 0.0249 0.3423 -0.9393
vn 0.1138 0.3293 -0.9374
vn 0.2374 0.6723 -0.7012
vn 0.0507 0.7115 -0.7009
vn 0.3166 0.8875 -0.3348
vn 0.2437 0.2437 -0.9387
vn 0.5001 0.5001 -0.7069
vn 0.6648 0.6648 -0.3409
vn 0.7052 0.7052 -0.0743
vn 0.6723 0.2374 -0.7012
vn 0.8875 0.3166 -0.3348
vn 0.9396 0.3345 -0.0723
vn 0.7115 0.0507 -0.7009
vn -0.7554 -0.4633 0.4633
vn -0.9491 -0.2227 0.2227
vn 0.7554 -0.4633 0.4633
vn 0.9491 -0.2227 0.2227
# 136 vertex normals

vt 0.0500 0.9882 0.0000
vt 0.0500 0.0000 0.0000
vt 0.9500 0.0000 0.0000
vt 0.9500 0.9882 0.0000
vt 0.9500 0.0118 0.0000
vt 0.0500 0.0118 0.0000
vt 0.9500 0.9168 0.0000
vt 0.0500 0.9168 0.0000
vt 0.0118 0.0832 0.0000
vt 0.9882 0.0832 0.0000
vt 0.9882 0.9168 0.0000
vt 0.0118 0.9168 0.0000
vt 0.0500 0.0832 0.0000
vt 0.9500 0.0832 0.0000
vt 0.0000 0.0000 0.0000
vt 0.0000 1.0000 0.0000
vt 0.0118 0.0480 0.0000
vt 0.0118 0.0362 0.0000
vt 1.0000 0.0225 0.0000
vt 0.9971 0.0377 0.0000
vt 0.0500 0.1021 0.0000
vt 0.0500 0.1084 0.0000
vt 0.9500 0.1084 0.0000
vt 0.9500 0.1021 0.0000
vt 0.0029 0.0377 0.0000
vt -0.0000 0.0225 0.0000
vt 0.9882 0.0362 0.0000
vt 0.9882 0.0480 0.0000
vt 0.9500 0.8979 0.0000
vt 0.9500 0.8916 0.0000
vt 0.0500 0.8916 0.0000
vt 0.0500 0.8979 0.0000
vt 0.9882 0.9520 0.0000
vt 0.9882 0.9638 0.0000
vt 0.0118 0.9638 0.0000
vt 0.0118 0.9520 0.0000
vt 0.1352 0.8471 0.0000
vt 0.1764 0.8238 0.0000
vt 0.1553 -0.0280 0.0000
vt 0.1194 -0.0002 0.0000
vt 0.8806 -0.0002 0.0000
vt 0.8447 -0.0280 0.0000
vt 0.8236 0.8238 0.0000
vt 0.8648 0.8471 0.0000
vt 0.1382 0.9168 0.0000
vt 0.1676 0.9168 0.0000
vt 0.1676 0.0832 0.0000
vt 0.1382 0.0832 0.0000
vt 0.1001 0.9168 0.0000
vt 0.1295 0.9168 0.0000
vt 0.1295 0.0832 0.0000
vt 0.1001 0.0832 0.0000
vt 0.0042 0.0549 0.0000
vt -0.0067 0.0531 0.0000
vt -0.0211 0.0778 0.0000
vt -0.0247 0.0740 0.0000
vt -0.0388 0.1291 0.0000
vt -0.0211 0.0379 0.0000
vt -0.0281 0.0207 0.0000
vt -0.0457 0.0224 0.0000
vt 0.0275 0.9943 0.0000
vt 0.0100 1.0007 0.0000
vt -0.0024 1.0074 0.0000
vt -0.0062 1.0048 0.0000
vt -0.0099 1.0145 0.0000
vt -0.0049 0.9902 0.0000
vt -0.0062 0.9706 0.0000
vt -0.0099 0.9462 0.0000
vt 0.0267 0.9518 0.0000
vt 0.0068 0.9736 0.0000
vt -0.0097 0.9822 0.0000
vt -0.0128 0.9793 0.0000
vt -0.0228 0.9776 0.0000
vt -0.0058 0.9621 0.0000
vt -0.0018 0.9260 0.0000
vt -0.0006 0.8709 0.0000
vt 0.0038 0.9518 0.0000
vt -0.0085 0.9736 0.0000
vt -0.0250 0.9822 0.0000
vt -0.0281 0.9793 0.0000
vt -0.0457 0.9776 0.0000
vt -0.0211 0.9621 0.0000
vt -0.0247 0.9260 0.0000
vt -0.0388 0.8709 0.0000
vt 0.0118 0.0597 0.0000
vt 0.9941 0.0529 0.0000
vt 0.0118 0.0714 0.0000
vt 0.9911 0.0680 0.0000
vt 0.0500 0.0958 0.0000
vt 0.9500 0.0958 0.0000
vt 0.0500 0.0895 0.0000
vt 0.9500 0.0895 0.0000
vt 0.0059 0.0529 0.0000
vt 0.9882 0.0597 0.0000
vt 0.0089 0.0680 0.0000
vt 0.9882 0.0714 0.0000
vt 0.9500 0.9042 0.0000
vt 0.0500 0.9042 0.0000
vt 0.9500 0.9105 0.0000
vt 0.0500 0.9105 0.0000
vt 0.9882 0.9403 0.0000
vt 0.0118 0.9403 0.0000
vt 0.9882 0.9286 0.0000
vt 0.0118 0.9286 0.0000
vt 0.0941 0.8703 0.0000
vt 0.0835 0.0276 0.0000
vt 0.0530 0.8936 0.0000
vt 0.0477 0.0554 0.0000
vt 0.9165 0.0276 0.0000
vt 0.9059 0.8703 0.0000
vt 0.9523 0.0554 0.0000
vt 0.9470 0.8936 0.0000
vt 0.1088 0.9168 0.0000
vt 0.1088 0.0832 0.0000
vt 0.0794 0.9168 0.0000
vt 0.0794 0.0832 0.0000
vt 0.0706 0.9168 0.0000
vt 0.0706 0.0832 0.0000
vt 0.0412 0.9168 0.0000
vt 0.0412 0.0832 0.0000
# 120 texture coords

g FeetBed
usemtl Material__53
s 1
f 1/1/1 2/2/2 3/3/3 4/4/4 
f 5/5/5 6/4/6 7/1/7 8/6/8 
f 9/7/9 10/8/10 3/2/3 2/3/2 
f 11/9/11 12/10/12 13/11/13 14/12/14 
f 15/7/15 16/8/16 17/13/17 18/14/18 
f 19/9/19 20/10/20 21/11/21 22/12/22 
f 19/9/19 23/15/23 24/15/24 
f 1/1/1 25/16/25 26/16/26 
f 10/8/10 27/16/27 28/16/28 
f 14/12/14 29/16/29 30/16/30 
f 22/12/22 31/16/31 32/16/32 
f 16/8/16 33/16/33 34/16/34 
f 35/17/35 4/18/4 3/19/3 36/20/36 
f 37/21/37 1/22/1 4/23/4 38/24/38 
f 39/25/39 2/26/2 1/27/1 26/28/26 
f 40/29/40 5/30/5 8/31/8 41/32/41 
f 42/33/42 6/34/6 5/35/5 43/36/43 
f 44/29/44 7/30/7 6/31/6 45/32/45 
f 46/33/46 8/34/8 7/35/7 47/36/47 
f 48/37/48 9/38/9 2/39/2 39/40/39 
f 36/41/36 3/42/3 10/43/10 28/44/28 
f 49/45/49 13/46/13 12/47/12 50/48/50 
f 51/49/51 15/50/15 18/51/18 52/52/52 
f 19/9/19 53/53/53 54/15/54 
f 55/15/55 54/15/54 53/53/53 56/54/56 
f 57/15/57 55/15/55 56/54/56 52/55/52 
f 58/56/58 57/15/57 52/55/52 18/57/18 
f 19/9/19 54/15/54 59/15/59 
f 60/15/60 59/15/59 54/15/54 55/15/55 
f 61/15/61 60/15/60 55/15/55 57/15/57 
f 62/58/62 61/15/61 57/15/57 58/56/58 
f 19/9/19 59/15/59 23/15/23 
f 63/15/63 23/15/23 59/15/59 60/15/60 
f 64/15/64 63/15/63 60/15/60 61/15/61 
f 38/59/38 64/15/64 61/15/61 62/58/62 
f 65/15/65 24/15/24 23/15/23 63/15/63 
f 35/15/35 65/15/65 63/15/63 64/15/64 
f 4/60/4 35/15/35 64/15/64 38/59/38 
f 1/1/1 37/61/37 66/16/66 
f 67/16/67 66/16/66 37/61/37 68/62/68 
f 69/16/69 67/16/67 68/62/68 70/63/70 
f 71/64/71 69/16/69 70/63/70 17/65/17 
f 1/1/1 66/16/66 72/16/72 
f 73/16/73 72/16/72 66/16/66 67/16/67 
f 74/16/74 73/16/73 67/16/67 69/16/69 
f 75/66/75 74/16/74 69/16/69 71/64/71 
f 1/1/1 72/16/72 25/16/25 
f 76/16/76 25/16/25 72/16/72 73/16/73 
f 77/16/77 76/16/76 73/16/73 74/16/74 
f 50/67/50 77/16/77 74/16/74 75/66/75 
f 78/16/78 26/16/26 25/16/25 76/16/76 
f 79/16/79 78/16/78 76/16/76 77/16/77 
f 12/68/12 79/16/79 77/16/77 50/67/50 
f 10/8/10 80/69/80 81/16/81 
f 82/16/82 81/16/81 80/69/80 83/70/83 
f 84/16/84 82/16/82 83/70/83 41/71/41 
f 46/72/46 84/16/84 41/71/41 8/73/8 
f 10/8/10 81/16/81 85/16/85 
f 86/16/86 85/16/85 81/16/81 82/16/82 
f 87/16/87 86/16/86 82/16/82 84/16/84 
f 88/74/88 87/16/87 84/16/84 46/72/46 
f 10/8/10 85/16/85 27/16/27 
f 89/16/89 27/16/27 85/16/85 86/16/86 
f 90/16/90 89/16/89 86/16/86 87/16/87 
f 91/75/91 90/16/90 87/16/87 88/74/88 
f 92/16/92 28/16/28 27/16/27 89/16/89 
f 93/16/93 92/16/92 89/16/89 90/16/90 
f 21/76/21 93/16/93 90/16/90 91/75/91 
f 14/12/14 94/77/94 95/16/95 
f 96/16/96 95/16/95 94/77/94 97/78/97 
f 98/16/98 96/16/96 97/78/97 43/79/43 
f 40/80/40 98/16/98 43/79/43 5/81/5 
f 14/12/14 95/16/95 99/16/99 
f 100/16/100 99/16/99 95/16/95 96/16/96 
f 101/16/101 100/16/100 96/16/96 98/16/98 
f 102/82/102 101/16/101 98/16/98 40/80/40 
f 14/12/14 99/16/99 29/16/29 
f 103/16/103 29/16/29 99/16/99 100/16/100 
f 104/16/104 103/16/103 100/16/100 101/16/101 
f 105/83/105 104/16/104 101/16/101 102/82/102 
f 106/16/106 30/16/30 29/16/29 103/16/103 
f 48/16/48 106/16/106 103/16/103 104/16/104 
f 9/84/9 48/16/48 104/16/104 105/83/105 
f 22/12/22 107/77/107 108/16/108 
f 109/16/109 108/16/108 107/77/107 110/78/110 
f 111/16/111 109/16/109 110/78/110 47/79/47 
f 44/80/44 111/16/111 47/79/47 7/81/7 
f 22/12/22 108/16/108 112/16/112 
f 113/16/113 112/16/112 108/16/108 109/16/109 
f 114/16/114 113/16/113 109/16/109 111/16/111 
f 115/82/115 114/16/114 111/16/111 44/80/44 
f 22/12/22 112/16/112 31/16/31 
f 116/16/116 31/16/31 112/16/112 113/16/113 
f 117/16/117 116/16/116 113/16/113 114/16/114 
f 118/83/118 117/16/117 114/16/114 115/82/115 
f 119/16/119 32/16/32 31/16/31 116/16/116 
f 51/16/51 119/16/119 116/16/116 117/16/117 
f 15/84/15 51/16/51 117/16/117 118/83/118 
f 16/8/16 120/69/120 121/16/121 
f 122/16/122 121/16/121 120/69/120 123/70/123 
f 124/16/124 122/16/122 123/70/123 45/71/45 
f 42/72/42 124/16/124 45/71/45 6/73/6 
f 16/8/16 121/16/121 125/16/125 
f 126/16/126 125/16/125 121/16/121 122/16/122 
f 127/16/127 126/16/126 122/16/122 124/16/124 
f 128/74/128 127/16/127 124/16/124 42/72/42 
f 16/8/16 125/16/125 33/16/33 
f 129/16/129 33/16/33 125/16/125 126/16/126 
f 130/16/130 129/16/129 126/16/126 127/16/127 
f 131/75/131 130/16/130 127/16/127 128/74/128 
f 132/16/132 34/16/34 33/16/33 129/16/129 
f 49/16/49 132/16/132 129/16/129 130/16/130 
f 13/76/13 49/16/49 130/16/130 131/75/131 
f 65/85/65 35/17/35 36/20/36 133/86/133 
f 24/87/24 65/85/65 133/86/133 134/88/134 
f 19/9/19 24/87/24 134/88/134 20/10/20 
f 68/89/68 37/21/37 38/24/38 62/90/62 
f 70/91/70 68/89/68 62/90/62 58/92/58 
f 17/13/17 70/91/70 58/92/58 18/14/18 
f 135/93/135 39/25/39 26/28/26 78/94/78 
f 136/95/136 135/93/135 78/94/78 79/96/79 
f 11/9/11 136/95/136 79/96/79 12/10/12 
f 102/97/102 40/29/40 41/32/41 83/98/83 
f 105/99/105 102/97/102 83/98/83 80/100/80 
f 9/7/9 105/99/105 80/100/80 10/8/10 
f 128/101/128 42/33/42 43/36/43 97/102/97 
f 131/103/131 128/101/128 97/102/97 94/104/94 
f 13/11/13 131/103/131 94/104/94 14/12/14 
f 115/97/115 44/29/44 45/32/45 123/98/123 
f 118/99/118 115/97/115 123/98/123 120/100/120 
f 15/7/15 118/99/118 120/100/120 16/8/16 
f 88/101/88 46/33/46 47/36/47 110/102/110 
f 91/103/91 88/101/88 110/102/110 107/104/107 
f 21/11/21 91/103/91 107/104/107 22/12/22 
f 106/105/106 48/37/48 39/40/39 135/106/135 
f 30/107/30 106/105/106 135/106/135 136/108/136 
f 14/12/14 30/107/30 136/108/136 11/9/11 
f 133/109/133 36/41/36 28/44/28 92/110/92 
f 134/111/134 133/109/133 92/110/92 93/112/93 
f 20/10/20 134/111/134 93/112/93 21/11/21 
f 132/113/132 49/45/49 50/48/50 75/114/75 
f 34/115/34 132/113/132 75/114/75 71/116/71 
f 16/8/16 34/115/34 71/116/71 17/13/17 
f 119/117/119 51/49/51 52/52/52 56/118/56 
f 32/119/32 119/117/119 56/118/56 53/120/53 
f 22/12/22 32/119/32 53/120/53 19/9/19 
# 122 polygons - 24 triangles

