# 3ds Max Wavefront OBJ Exporter v0.97b - (c)2007 guruware
# File Created: 12.05.2017 11:48:43

mtllib bedroomtv.mtl

#
# object Box007
#

v  174.1606 48.1535 361.9003
v  174.1606 22.0976 361.9003
v  174.1606 22.0976 320.4320
v  174.1606 48.1535 320.4320
v  173.8063 48.5043 362.2512
v  173.8063 21.7467 362.2512
v  174.2847 21.7467 362.2512
v  174.2847 48.5043 362.2512
v  173.8063 21.7467 320.0812
v  174.2847 21.7467 320.0812
v  173.8063 48.5043 320.0812
v  174.2847 48.5043 320.0812
v  174.2847 22.0976 361.9003
v  174.2847 48.1535 361.9003
v  174.2847 22.0976 320.4320
v  174.2847 48.1535 320.4320
v  173.8063 37.9133 335.8641
v  173.8063 37.9133 346.4683
v  173.8063 32.3377 335.8641
v  173.8063 32.3377 346.4683
v  173.4465 37.9133 335.8641
v  173.4465 37.9133 346.4683
v  173.4465 32.3377 335.8641
v  173.4465 32.3377 346.4683
v  172.9945 37.6873 336.0901
v  172.9380 37.4048 336.3726
v  172.9380 37.4048 345.9597
v  172.9945 37.6873 346.2422
v  172.9945 32.5637 336.0901
v  172.9380 32.8462 336.3726
v  172.9945 32.5637 346.2422
v  172.9380 32.8462 345.9597
v  173.1640 37.8568 335.9206
v  173.1640 37.8568 346.4118
v  173.1640 32.3942 335.9206
v  173.1640 32.3942 346.4118
v  172.1937 37.4048 336.3726
v  172.1937 37.4048 345.9597
v  172.1937 32.8462 336.3726
v  172.1937 32.8462 345.9597
# 40 vertices

vn 1.0000 0.0000 -0.0000
vn 0.0000 0.0000 1.0000
vn 0.0000 -1.0000 -0.0000
vn 0.0000 0.0000 -1.0000
vn 0.0000 1.0000 -0.0000
vn -1.0000 0.0000 -0.0000
vn -0.0921 0.9958 -0.0000
vn -0.0921 0.0000 -0.9958
vn -0.0921 -0.9958 -0.0000
vn -0.0921 0.0000 0.9958
vn -0.9901 0.0990 -0.0990
vn -0.9901 0.0990 0.0990
vn -0.9901 -0.0990 -0.0990
vn -0.9901 -0.0990 0.0990
vn -0.7071 0.7071 -0.0000
vn -0.1961 0.9806 -0.0000
vn -0.7071 0.0000 -0.7071
vn -0.1961 0.0000 -0.9806
vn -0.7071 -0.7071 -0.0000
vn -0.1961 -0.9806 -0.0000
vn -0.7071 0.0000 0.7071
vn -0.1961 0.0000 0.9806
# 22 vertex normals

vt 0.0000 0.0000 0.0000
vt 1.0000 0.0000 0.0000
vt 1.0000 1.0000 0.0000
vt 0.0000 1.0000 0.0000
vt 0.9392 0.9680 0.0000
vt 0.9088 0.9520 0.0000
vt 0.9088 0.0480 0.0000
vt 0.9392 0.0320 0.0000
vt 0.0608 0.9680 0.0000
vt 0.0912 0.9520 0.0000
vt 0.0608 0.0320 0.0000
vt 0.0912 0.0480 0.0000
vt 0.9696 0.9840 0.0000
vt 0.9696 0.0160 0.0000
vt 0.0304 0.9840 0.0000
vt 0.0304 0.0160 0.0000
# 16 texture coords

g Box007
usemtl Material__60
s 1
f 1/1/1 2/2/1 3/3/1 4/4/1 
f 5/1/2 6/2/2 7/3/2 8/4/2 
s 2
f 6/1/3 9/2/3 10/3/3 7/4/3 
s 1
f 9/1/4 11/2/4 12/3/4 10/4/4 
s 2
f 11/1/5 5/2/5 8/3/5 12/4/5 
s 4
f 8/1/1 7/2/1 13/2/1 14/1/1 
f 7/2/1 10/3/1 15/3/1 13/2/1 
f 10/3/1 12/4/1 16/4/1 15/3/1 
f 12/4/1 8/1/1 14/1/1 16/4/1 
s 2
f 14/1/4 13/2/4 2/2/4 1/1/4 
s 8
f 13/2/5 15/3/5 3/3/5 2/2/5 
s 2
f 15/3/2 16/4/2 4/4/2 3/3/2 
s 8
f 16/4/3 14/1/3 1/1/3 4/4/3 
s 4
f 5/2/6 11/3/6 17/3/6 18/2/6 
f 11/3/6 9/4/6 19/4/6 17/3/6 
f 9/4/6 6/1/6 20/1/6 19/4/6 
f 6/1/6 5/2/6 18/2/6 20/1/6 
s 1
f 18/2/5 17/3/5 21/3/7 22/2/7 
s 2
f 17/3/4 19/4/4 23/4/8 21/3/8 
s 1
f 19/4/3 20/1/3 24/1/9 23/4/9 
s 2
f 20/1/2 18/2/2 22/2/10 24/1/10 
s 1
f 25/5/11 26/6/11 27/7/12 28/8/12 
f 29/9/13 30/10/13 26/6/11 25/5/11 
f 31/11/14 32/12/14 30/10/13 29/9/13 
f 28/8/12 27/7/12 32/12/14 31/11/14 
s 4
f 33/13/15 25/5/15 28/8/15 34/14/15 
s 1
f 21/3/7 33/13/16 34/14/16 22/2/7 
s 8
f 35/15/17 29/9/17 25/5/17 33/13/17 
s 2
f 23/4/8 35/15/18 33/13/18 21/3/8 
s 4
f 36/16/19 31/11/19 29/9/19 35/15/19 
s 1
f 24/1/9 36/16/20 35/15/20 23/4/9 
s 8
f 34/14/21 28/8/21 31/11/21 36/16/21 
s 2
f 22/2/10 34/14/22 36/16/22 24/1/10 
s off
f 27/7/5 26/6/5 37/6/5 38/7/5 
f 26/6/4 30/10/4 39/10/4 37/6/4 
f 30/10/3 32/12/3 40/12/3 39/10/3 
f 32/12/2 27/7/2 38/7/2 40/12/2 
# 37 polygons

