# 3ds Max Wavefront OBJ Exporter v0.97b - (c)2007 guruware
# File Created: 12.05.2017 11:49:00

mtllib bedroomtable.mtl

#
# object Box006
#

v  195.1218 6.2561 443.2758
v  206.6094 6.2561 443.2758
v  202.2529 7.1060 438.9192
v  199.4783 7.1060 438.9192
v  206.6094 6.2561 431.7881
v  202.2529 7.1060 436.1447
v  195.1218 6.2561 431.7881
v  199.4783 7.1060 436.1447
v  195.1218 10.1620 443.2758
v  206.6094 10.1620 443.2758
v  206.6094 10.1620 431.7881
v  195.1218 10.1620 431.7881
v  195.1218 7.9559 443.2758
v  206.6094 7.9559 443.2758
v  206.6094 7.9559 431.7881
v  195.1218 7.9559 431.7881
v  206.6094 4.0536 431.7881
v  195.1218 4.0536 431.7881
v  195.1218 4.0536 443.2758
v  199.4783 3.2036 438.9192
v  202.2529 3.2036 438.9192
v  206.6094 4.0536 443.2758
v  202.2529 3.2036 436.1447
v  199.4783 3.2036 436.1447
v  195.1218 0.1477 443.2758
v  195.1218 0.1477 431.7881
v  206.6094 0.1477 431.7881
v  206.6094 0.1477 443.2758
v  206.6094 2.3537 443.2758
v  195.1218 2.3537 443.2758
v  206.6094 2.3537 431.7881
v  195.1218 2.3537 431.7881
# 32 vertices

vn -0.2390 0.9411 0.2390
vn 0.2390 0.9411 0.2390
vn 0.2390 0.9411 -0.2390
vn -0.2390 0.9411 -0.2390
vn 0.0000 1.0000 -0.0000
vn 0.0000 0.0000 1.0000
vn 1.0000 0.0000 -0.0000
vn 0.0000 0.0000 -1.0000
vn -1.0000 0.0000 -0.0000
vn -0.2390 -0.9411 0.2390
vn 0.2390 -0.9411 0.2390
vn 0.2390 -0.9411 -0.2390
vn -0.2390 -0.9411 -0.2390
vn 0.0000 -1.0000 -0.0000
# 14 vertex normals

vt 0.0000 0.0000 0.0000
vt 1.0000 0.0000 0.0000
vt 1.0000 1.0000 0.0000
vt 0.0000 1.0000 0.0000
# 4 texture coords

g Box006
usemtl Material__57
s 1
f 1/1/1 2/2/2 3/2/2 4/1/1 
f 2/2/2 5/3/3 6/3/3 3/2/2 
f 5/3/3 7/4/4 8/4/4 6/3/3 
f 7/4/4 1/1/1 4/1/1 8/4/4 
f 9/2/5 10/1/5 11/4/5 12/3/5 
s 2
f 9/1/6 13/4/6 14/3/6 10/2/6 
s 4
f 10/1/7 14/4/7 15/3/7 11/2/7 
s 2
f 11/1/8 15/4/8 16/3/8 12/2/8 
s 4
f 12/1/9 16/4/9 13/3/9 9/2/9 
s 8
f 13/1/10 4/1/10 3/2/11 14/2/11 
f 14/2/11 3/2/11 6/3/12 15/3/12 
f 15/3/12 6/3/12 8/4/13 16/4/13 
f 16/4/13 8/4/13 4/1/10 13/1/10 
s 2
f 5/3/8 17/4/8 18/3/8 7/3/8 
s 1
f 19/1/10 20/1/10 21/2/11 22/2/11 
f 22/2/11 21/2/11 23/3/12 17/3/12 
f 17/3/12 23/3/12 24/4/13 18/4/13 
f 18/4/13 24/4/13 20/1/10 19/1/10 
f 25/2/14 26/3/14 27/4/14 28/1/14 
s 2
f 25/1/6 28/2/6 29/3/6 30/4/6 
s 4
f 28/1/7 27/2/7 31/3/7 29/4/7 
s 2
f 27/1/8 26/2/8 32/3/8 31/4/8 
s 4
f 26/1/9 25/2/9 30/3/9 32/4/9 
s 8
f 30/1/1 29/2/2 21/2/2 20/1/1 
f 29/2/2 31/3/3 23/3/3 21/2/2 
f 31/3/3 32/4/4 24/4/4 23/3/3 
f 32/4/4 30/1/1 20/1/1 24/4/4 
s 2
f 2/3/6 1/3/6 19/4/6 22/4/6 
s 4
f 2/3/7 22/4/7 17/4/7 5/3/7 
f 1/3/9 7/4/9 18/4/9 19/4/9 
# 30 polygons

