# 3ds Max Wavefront OBJ Exporter v0.97b - (c)2007 guruware
# File Created: 12.05.2017 11:51:31

mtllib bedroombookcase.mtl

#
# object Object010
#

v  257.2425 0.6704 268.8527
v  257.2425 71.3313 268.8527
v  284.9333 71.3313 268.8527
v  284.9333 0.6704 268.8527
v  257.2425 0.6704 269.3201
v  284.9333 0.6704 269.3201
v  284.9333 71.3313 269.3201
v  257.2425 71.3313 269.3201
v  339.8425 56.4730 268.8527
v  339.8425 71.2752 268.8527
v  353.8016 71.2752 268.8527
v  353.8016 56.4730 268.8527
v  339.8425 56.4730 269.3201
v  353.8016 56.4730 269.3201
v  353.8016 71.2752 269.3201
v  339.8425 71.2752 269.3201
v  298.9450 42.4922 268.8527
v  298.9450 57.2944 268.8527
v  312.9041 57.2944 268.8527
v  312.9041 42.4922 268.8527
v  298.9450 42.4922 269.3201
v  312.9041 42.4922 269.3201
v  312.9041 57.2944 269.3201
v  298.9450 57.2944 269.3201
v  339.8425 0.6704 268.8527
v  339.8425 29.4764 268.8527
v  353.8016 29.4764 268.8527
v  353.8016 0.6704 268.8527
v  339.8425 0.6704 269.3201
v  353.8016 0.6704 269.3201
v  353.8016 29.4764 269.3201
v  339.8425 29.4764 269.3201
v  319.5462 28.4033 268.8527
v  319.5462 43.2055 268.8527
v  333.5054 43.2055 268.8527
v  333.5054 28.4033 268.8527
v  319.5462 28.4033 269.3201
v  333.5054 28.4033 269.3201
v  333.5054 43.2055 269.3201
v  319.5462 43.2055 269.3201
v  339.6853 0.7242 268.8527
v  339.6853 15.5264 268.8527
v  353.6444 15.5264 268.8527
v  353.6444 0.7242 268.8527
v  339.6853 0.7242 269.3201
v  353.6444 0.7242 269.3201
v  353.6444 15.5264 269.3201
v  339.6853 15.5264 269.3201
v  285.3495 14.7604 268.8527
v  285.3495 29.5626 268.8527
v  299.3087 29.5626 268.8527
v  299.3087 14.7604 268.8527
v  285.3495 14.7604 269.3201
v  299.3087 14.7604 269.3201
v  299.3087 29.5626 269.3201
v  285.3495 29.5626 269.3201
v  277.3269 42.4922 286.9721
v  277.3269 57.2944 286.9721
v  291.2861 57.2944 286.9721
v  291.2861 42.4922 286.9721
v  277.3269 42.4922 287.4396
v  291.2861 42.4922 287.4396
v  291.2861 57.2944 287.4396
v  277.3269 57.2944 287.4396
v  298.4525 56.4730 286.9721
v  298.4525 71.2752 286.9721
v  312.4117 71.2752 286.9721
v  312.4117 56.4730 286.9721
v  298.4525 56.4730 287.4396
v  312.4117 56.4730 287.4396
v  312.4117 71.2752 287.4396
v  298.4525 71.2752 287.4396
v  319.5684 42.4922 286.9721
v  319.5684 57.2944 286.9721
v  333.5276 57.2944 286.9721
v  333.5276 42.4922 286.9721
v  319.5684 42.4922 287.4396
v  333.5276 42.4922 287.4396
v  333.5276 57.2944 287.4396
v  319.5684 57.2944 287.4396
v  298.4525 0.6704 286.9721
v  298.4525 29.4764 286.9721
v  312.4117 29.4764 286.9721
v  312.4117 0.6704 286.9721
v  298.4525 0.6704 287.4396
v  312.4117 0.6704 287.4396
v  312.4117 29.4764 287.4396
v  298.4525 29.4764 287.4396
v  339.6853 28.4033 286.9721
v  339.6853 43.2055 286.9721
v  353.6444 43.2055 286.9721
v  353.6444 28.4033 286.9721
v  339.6853 28.4033 287.4396
v  353.6444 28.4033 287.4396
v  353.6444 43.2055 287.4396
v  339.6853 43.2055 287.4396
v  339.6853 0.7242 286.9721
v  339.6853 15.5264 286.9721
v  353.6444 15.5264 286.9721
v  353.6444 0.7242 286.9721
v  339.6853 0.7242 287.4396
v  353.6444 0.7242 287.4396
v  353.6444 15.5264 287.4396
v  339.6853 15.5264 287.4396
v  257.1277 28.4033 286.9721
v  257.1277 43.2055 286.9721
v  271.0868 43.2055 286.9721
v  271.0868 28.4033 286.9721
v  257.1277 28.4033 287.4396
v  271.0868 28.4033 287.4396
v  271.0868 43.2055 287.4396
v  257.1277 43.2055 287.4396
v  257.2237 0.6697 269.3983
v  257.2237 0.6697 286.9076
v  257.2236 71.3308 286.9076
v  257.2236 71.3308 269.3983
v  353.0445 29.4592 286.9070
v  258.0905 29.4592 286.9070
v  258.0905 28.5806 286.9070
v  353.0445 28.5806 286.9070
v  353.9113 0.6697 286.9076
v  353.9113 0.6697 269.3983
v  353.9113 71.3308 269.3983
v  353.9113 71.3308 286.9076
v  258.0905 29.4592 269.3971
v  353.0445 29.4592 269.3971
v  353.0445 28.5806 269.3971
v  258.0905 28.5806 269.3971
v  353.0445 1.5365 286.9076
v  258.0905 1.5365 286.9076
v  353.0445 70.4640 286.9076
v  353.0445 57.3643 286.9073
v  353.0445 56.5287 286.9070
v  353.0445 43.3831 286.9070
v  353.0445 42.5682 286.9070
v  353.0445 15.5264 286.9070
v  353.0445 14.6466 286.9070
v  258.0905 14.6466 286.9070
v  258.0905 15.5264 286.9070
v  258.0905 42.5682 286.9070
v  258.0905 43.3831 286.9070
v  258.0905 56.5287 286.9070
v  258.0905 57.3643 286.9073
v  258.0905 70.4640 286.9076
v  258.0905 1.5365 269.3983
v  353.0445 1.5365 269.3983
v  258.0905 70.4640 269.3983
v  258.0905 57.3643 269.3977
v  258.0905 56.5287 269.3972
v  258.0905 43.3831 269.3971
v  258.0905 42.5682 269.3971
v  258.0905 15.5264 269.3971
v  258.0905 14.6466 269.3971
v  353.0445 70.4640 269.3983
v  353.0445 14.6466 269.3971
v  353.0445 15.5264 269.3971
v  353.0445 42.5682 269.3971
v  353.0445 43.3831 269.3971
v  353.0445 56.5287 269.3972
v  353.0445 57.3643 269.3977
# 160 vertices

vn -0.0000 0.0000 -1.0000
vn 0.0000 0.0000 -1.0000
vn 0.0000 -0.0000 1.0000
vn 0.0000 -1.0000 -0.0000
vn 1.0000 0.0000 -0.0000
vn 0.0000 1.0000 0.0000
vn -1.0000 0.0000 -0.0000
vn 0.0000 -0.0000 -1.0000
vn 0.0000 0.0000 1.0000
vn -1.0000 -0.0000 -0.0000
vn -1.0000 -0.0000 0.0000
vn -0.0005 -0.0000 1.0000
vn 0.0005 -0.0000 1.0000
vn 0.0005 0.0000 1.0000
vn 1.0000 0.0000 0.0000
vn -0.0009 -0.0000 -1.0000
vn 0.0009 0.0000 -1.0000
vn -0.0009 0.0000 -1.0000
vn -0.0000 -0.0000 1.0000
vn -0.0000 0.0000 1.0000
vn -0.0014 -0.0001 1.0000
vn -0.0167 -0.0004 0.9999
vn -0.0005 0.0000 1.0000
vn 0.0026 0.0000 1.0000
vn 0.0004 -0.0001 1.0000
vn -0.0038 -0.0004 1.0000
vn -0.0000 -0.0000 -1.0000
vn -0.0024 0.0003 -1.0000
vn -0.0310 0.0007 -0.9995
vn 0.0047 -0.0001 -1.0000
vn 0.0009 -0.0000 -1.0000
vn 0.0007 0.0002 -1.0000
vn -0.0070 0.0007 -1.0000
vn 0.0000 -1.0000 0.0000
vn 0.0000 1.0000 -0.0000
vn 1.0000 -0.0000 -0.0000
vn 1.0000 -0.0000 0.0000
vn -1.0000 0.0000 0.0000
vn -0.0000 1.0000 -0.0000
# 39 vertex normals

vt 1.0000 0.0000 0.0000
vt 1.0000 1.0000 0.0000
vt 0.0000 1.0000 0.0000
vt 0.0000 0.0000 0.0000
vt 0.5000 0.0000 0.0000
vt 0.5000 1.0000 0.0000
# 6 texture coords

g Object010
usemtl Material__6
s 2
f 1/1/1 2/2/2 3/3/1 4/4/1 
s 4
f 5/4/3 6/1/3 7/2/3 8/3/3 
s 8
f 1/4/4 4/1/4 6/2/4 5/3/4 
s 16
f 4/4/5 3/1/5 7/2/5 6/3/5 
s 32
f 3/4/6 2/1/6 8/2/6 7/3/6 
s 64
f 2/4/7 1/1/7 5/2/7 8/3/7 
usemtl Material__58
s 2
f 9/1/1 10/2/1 11/3/1 12/4/8 
s 4
f 13/4/9 14/1/9 15/2/9 16/3/9 
s 8
f 9/4/4 12/1/4 14/2/4 13/3/4 
s 16
f 12/4/5 11/1/5 15/2/5 14/3/5 
s 32
f 11/4/6 10/1/6 16/2/6 15/3/6 
s 64
f 10/4/7 9/1/7 13/2/7 16/3/7 
s 2
f 17/1/2 18/2/2 19/3/2 20/4/2 
s 4
f 21/4/3 22/1/3 23/2/3 24/3/3 
s 8
f 17/4/4 20/1/4 22/2/4 21/3/4 
s 16
f 20/4/5 19/1/5 23/2/5 22/3/5 
s 32
f 19/4/6 18/1/6 24/2/6 23/3/6 
s 64
f 18/4/7 17/1/7 21/2/7 24/3/7 
s 2
f 25/1/2 26/2/2 27/3/2 28/4/2 
s 4
f 29/4/3 30/1/3 31/2/3 32/3/3 
s 8
f 25/4/4 28/1/4 30/2/4 29/3/4 
s 16
f 28/4/5 27/1/5 31/2/5 30/3/5 
s 32
f 27/4/6 26/1/6 32/2/6 31/3/6 
s 64
f 26/4/7 25/1/7 29/2/7 32/3/7 
s 2
f 33/1/2 34/2/2 35/3/2 36/4/2 
s 4
f 37/4/3 38/1/3 39/2/3 40/3/3 
s 8
f 33/4/4 36/1/4 38/2/4 37/3/4 
s 16
f 36/4/5 35/1/5 39/2/5 38/3/5 
s 32
f 35/4/6 34/1/6 40/2/6 39/3/6 
s 64
f 34/4/7 33/1/7 37/2/7 40/3/7 
s 2
f 41/1/1 42/2/1 43/3/1 44/4/2 
s 4
f 45/4/3 46/1/3 47/2/3 48/3/3 
s 8
f 41/4/4 44/1/4 46/2/4 45/3/4 
s 16
f 44/4/5 43/1/5 47/2/5 46/3/5 
s 32
f 43/4/6 42/1/6 48/2/6 47/3/6 
s 64
f 42/4/7 41/1/7 45/2/7 48/3/7 
s 2
f 49/1/2 50/2/2 51/3/2 52/4/2 
s 4
f 53/4/3 54/1/3 55/2/3 56/3/3 
s 8
f 49/4/4 52/1/4 54/2/4 53/3/4 
s 16
f 52/4/5 51/1/5 55/2/5 54/3/5 
s 32
f 51/4/6 50/1/6 56/2/6 55/3/6 
s 64
f 50/4/7 49/1/7 53/2/7 56/3/7 
s 2
f 57/1/1 58/2/1 59/3/1 60/4/2 
s 4
f 61/4/3 62/1/3 63/2/3 64/3/3 
s 8
f 57/4/4 60/1/4 62/2/4 61/3/4 
s 16
f 60/4/5 59/1/5 63/2/5 62/3/5 
s 32
f 59/4/6 58/1/6 64/2/6 63/3/6 
s 64
f 58/4/7 57/1/7 61/2/7 64/3/7 
s 2
f 65/1/1 66/2/1 67/3/1 68/4/2 
s 4
f 69/4/3 70/1/3 71/2/3 72/3/3 
s 8
f 65/4/4 68/1/4 70/2/4 69/3/4 
s 16
f 68/4/5 67/1/5 71/2/5 70/3/5 
s 32
f 67/4/6 66/1/6 72/2/6 71/3/6 
s 64
f 66/4/7 65/1/7 69/2/7 72/3/7 
s 2
f 73/1/1 74/2/1 75/3/1 76/4/2 
s 4
f 77/4/3 78/1/3 79/2/3 80/3/3 
s 8
f 73/4/4 76/1/4 78/2/4 77/3/4 
s 16
f 76/4/5 75/1/5 79/2/5 78/3/5 
s 32
f 75/4/6 74/1/6 80/2/6 79/3/6 
s 64
f 74/4/7 73/1/7 77/2/7 80/3/7 
s 2
f 81/1/1 82/2/1 83/3/1 84/4/2 
s 4
f 85/4/3 86/1/3 87/2/3 88/3/3 
s 8
f 81/4/4 84/1/4 86/2/4 85/3/4 
s 16
f 84/4/5 83/1/5 87/2/5 86/3/5 
s 32
f 83/4/6 82/1/6 88/2/6 87/3/6 
s 64
f 82/4/7 81/1/7 85/2/7 88/3/7 
s 2
f 89/1/1 90/2/1 91/3/1 92/4/2 
s 4
f 93/4/3 94/1/3 95/2/3 96/3/3 
s 8
f 89/4/4 92/1/4 94/2/4 93/3/4 
s 16
f 92/4/5 91/1/5 95/2/5 94/3/5 
s 32
f 91/4/6 90/1/6 96/2/6 95/3/6 
s 64
f 90/4/7 89/1/7 93/2/7 96/3/7 
s 2
f 97/1/1 98/2/1 99/3/1 100/4/2 
s 4
f 101/4/3 102/1/3 103/2/3 104/3/3 
s 8
f 97/4/4 100/1/4 102/2/4 101/3/4 
s 16
f 100/4/5 99/1/5 103/2/5 102/3/5 
s 32
f 99/4/6 98/1/6 104/2/6 103/3/6 
s 64
f 98/4/7 97/1/7 101/2/7 104/3/7 
s 2
f 105/1/1 106/2/1 107/3/1 108/4/2 
s 4
f 109/4/3 110/1/3 111/2/3 112/3/3 
s 8
f 105/4/4 108/1/4 110/2/4 109/3/4 
s 16
f 108/4/5 107/1/5 111/2/5 110/3/5 
s 32
f 107/4/6 106/1/6 112/2/6 111/3/6 
s 64
f 106/4/7 105/1/7 109/2/7 112/3/7 
s 1
f 113/4/10 114/5/10 115/5/11 116/4/11 
s 2
f 117/6/12 118/5/13 119/5/14 120/6/12 
s 1
f 121/6/15 122/3/15 123/3/5 124/6/5 
s 2
f 125/4/16 126/3/17 127/3/17 128/4/18 
s 4
f 122/3/4 121/6/4 114/5/4 113/4/4 
s 2
f 114/5/19 121/6/20 129/6/9 130/5/3 
f 121/6/20 124/6/19 131/6/19 132/6/21 
f 121/6/20 132/6/21 133/6/22 134/6/12 
f 121/6/20 134/6/12 135/6/12 117/6/12 
f 121/6/20 117/6/12 120/6/12 136/6/23 
f 121/6/20 136/6/23 137/6/23 129/6/9 
f 115/5/3 114/5/19 130/5/3 138/5/24 
f 115/5/3 138/5/24 139/5/13 119/5/14 
f 115/5/3 119/5/14 118/5/13 140/5/13 
f 115/5/3 140/5/13 141/5/13 142/5/25 
f 115/5/3 142/5/25 143/5/26 144/5/19 
f 122/3/2 113/4/27 145/4/8 146/3/8 
f 113/4/27 116/4/2 147/4/1 148/4/28 
f 113/4/27 148/4/28 149/4/29 150/4/18 
f 113/4/27 150/4/18 151/4/18 125/4/16 
f 113/4/27 125/4/16 128/4/18 152/4/18 
f 113/4/27 152/4/18 153/4/16 145/4/8 
f 116/4/2 123/3/2 154/3/1 147/4/1 
f 123/3/2 122/3/2 146/3/8 155/3/30 
f 123/3/2 155/3/30 156/3/17 127/3/17 
f 123/3/2 127/3/17 126/3/17 157/3/31 
f 123/3/2 157/3/31 158/3/17 159/3/32 
f 123/3/2 159/3/32 160/3/33 154/3/1 
f 134/6/12 141/5/13 140/5/13 135/6/12 
f 148/4/28 160/3/33 159/3/32 149/4/29 
f 150/4/18 158/3/17 157/3/31 151/4/18 
f 138/5/24 137/6/23 136/6/23 139/5/13 
f 155/3/30 153/4/16 152/4/18 156/3/17 
s 1
f 132/6/7 131/6/7 154/3/7 160/3/7 
s 4
f 131/6/34 144/5/34 147/4/34 154/3/34 
s 1
f 144/5/5 143/5/5 148/4/5 147/4/5 
f 134/6/11 133/6/11 159/3/11 158/3/10 
s 4
f 133/6/34 142/5/34 149/4/34 159/3/34 
s 1
f 142/5/5 141/5/15 150/4/5 149/4/5 
s 4
f 141/5/6 134/6/6 158/3/6 150/4/6 
s 1
f 117/6/7 135/6/7 157/3/7 126/3/7 
s 4
f 135/6/34 140/5/34 151/4/34 157/3/34 
s 1
f 140/5/5 118/5/5 125/4/5 151/4/5 
s 4
f 118/5/35 117/6/35 126/3/35 125/4/35 
s 1
f 138/5/36 130/5/36 145/4/37 153/4/37 
s 4
f 130/5/6 129/6/6 146/3/6 145/4/6 
s 1
f 129/6/7 137/6/7 155/3/38 146/3/38 
s 4
f 137/6/34 138/5/34 153/4/34 155/3/34 
s 1
f 136/6/7 120/6/7 127/3/7 156/3/7 
s 4
f 120/6/4 119/5/4 128/4/4 127/3/4 
s 1
f 119/5/5 139/5/5 152/4/5 128/4/5 
s 4
f 139/5/6 136/6/39 156/3/39 152/4/6 
f 115/5/35 124/6/35 123/3/35 116/4/35 
f 143/5/35 132/6/35 160/3/35 148/4/35 
s 2
f 143/5/26 142/5/25 133/6/22 132/6/21 
f 115/5/3 144/5/19 131/6/19 124/6/19 
# 140 polygons

