# 3ds Max Wavefront OBJ Exporter v0.97b - (c)2007 guruware
# File Created: 22.06.2017 02:57:12

#
# object bowl
#

v  -7.3569 6.9186 9.2813
v  -4.0535 5.5806 9.2813
v  -7.6524 6.8957 9.0942
v  -7.5260 6.9386 9.2176
v  -5.4988 1.6594 2.4479
v  -10.4619 3.0843 0.7239
v  -0.5356 4.0348 9.0816
v  -0.7501 4.2391 9.2813
v  -0.6085 4.1417 9.2134
v  -0.5356 0.2308 4.1488
v  -5.4988 1.6594 -2.4480
v  -7.5260 6.9386 -9.2176
v  -7.6524 6.8957 -9.0942
v  -10.4619 3.0843 -0.7241
v  -4.0535 5.5806 -9.2814
v  -7.3569 6.9186 -9.2814
v  -0.7501 4.2391 -9.2814
v  -0.5356 0.2308 -4.1489
v  -0.5356 4.0348 -9.0816
v  -0.6085 4.1417 -9.2134
v  0.0000 0.1251 4.1488
v  0.0000 0.1251 -4.1489
v  7.6524 6.8957 9.0942
v  5.4988 1.6594 2.4479
v  4.0535 5.5806 9.2813
v  7.3569 6.9186 9.2813
v  7.5260 6.9386 9.2176
v  10.4619 3.0843 0.7239
v  0.5356 0.2308 4.1488
v  0.5356 4.0348 9.0816
v  0.6085 4.1417 9.2134
v  0.7501 4.2391 9.2813
v  4.0535 5.5806 -9.2814
v  5.4988 1.6594 -2.4480
v  7.5260 6.9386 -9.2176
v  7.3569 6.9186 -9.2814
v  7.6524 6.8957 -9.0942
v  10.4619 3.0843 -0.7241
v  0.5356 4.0348 -9.0816
v  0.5356 0.2308 -4.1489
v  0.7501 4.2391 -9.2814
v  0.6085 4.1417 -9.2134
v  -10.5612 2.8806 0.7258
v  -7.7250 6.7282 9.1623
v  -7.4267 6.7513 9.3512
v  -4.0920 5.4006 9.3512
v  -0.7572 4.0463 9.3512
v  -0.5407 3.8402 9.1497
v  -0.5407 0.0000 4.1592
v  0.0000 0.0000 4.1592
v  0.5407 0.0000 4.1592
v  0.5407 3.8402 9.1497
v  0.7572 4.0463 9.3512
v  4.0920 5.4006 9.3512
v  7.4267 6.7513 9.3512
v  7.7250 6.7282 9.1623
v  10.5612 2.8806 0.7258
v  10.5612 2.8806 -0.7259
v  7.7250 6.7282 -9.1625
v  7.4267 6.7513 -9.3512
v  4.0920 5.4006 -9.3512
v  0.7572 4.0463 -9.3512
v  0.5407 3.8402 -9.1497
v  0.5407 0.0000 -4.1593
v  0.0000 0.0000 -4.1593
v  -0.5407 0.0000 -4.1593
v  -0.5407 3.8402 -9.1497
v  -0.7572 4.0463 -9.3512
v  -4.0920 5.4006 -9.3512
v  -7.4267 6.7513 -9.3512
v  -7.7250 6.7282 -9.1625
v  -10.5612 2.8806 -0.7259
v  -5.5510 1.4403 2.4541
v  -7.5974 6.7715 9.2871
v  5.5510 1.4403 -2.4542
v  5.5510 1.4403 2.4541
v  -5.5510 1.4403 -2.4542
v  -7.5974 6.7715 -9.2871
v  7.5974 6.7715 9.2871
v  0.6143 3.9481 -9.2828
v  0.6143 3.9481 9.2827
v  7.5974 6.7715 -9.2871
v  -0.6143 3.9481 -9.2828
v  -0.6143 3.9481 9.2827
# 84 vertices

vn 0.3067 0.7572 -0.5767
vn 0.3298 0.7760 -0.5377
vn 0.3306 0.7784 -0.5336
vn 0.3834 0.7733 -0.5050
vn 0.3931 0.7799 -0.4871
vn 0.3097 0.7758 -0.5497
vn 0.3306 0.8141 -0.4775
vn 0.3692 0.7583 -0.5373
vn 0.3745 0.7698 0.5169
vn 0.3028 0.8034 0.5127
vn 0.1388 0.8829 0.4486
vn 0.3916 0.7794 0.4890
vn 0.3199 0.7907 0.5219
vn 0.3067 0.7572 0.5767
vn 0.3095 0.8013 0.5119
vn 0.4006 0.7256 0.5595
vn 0.3249 0.7899 0.5202
vn 0.3306 0.8141 0.4775
vn 0.2763 0.9611 -0.0000
vn 0.2759 0.9612 -0.0000
vn 0.2306 0.9730 -0.0000
vn 0.0000 1.0000 -0.0000
vn -0.3073 0.7899 -0.5307
vn -0.3834 0.7732 -0.5052
vn -0.3328 0.7752 -0.5369
vn -0.2991 0.7904 -0.5347
vn -0.3067 0.7572 -0.5767
vn -0.3931 0.7799 -0.4871
vn -0.3691 0.7588 -0.5367
vn -0.0573 0.7906 -0.6097
vn -0.2729 0.7742 -0.5711
vn -0.3306 0.8141 -0.4775
vn -0.3199 0.7907 0.5219
vn -0.3756 0.7699 0.5159
vn -0.3028 0.8034 0.5127
vn -0.3067 0.7572 0.5767
vn -0.1388 0.8829 0.4486
vn -0.3916 0.7794 0.4890
vn -0.1966 0.7832 0.5898
vn -0.3958 0.7317 0.5549
vn -0.3109 0.7783 0.5456
vn -0.3306 0.8141 0.4775
vn -0.2759 0.9612 -0.0000
vn -0.2763 0.9611 -0.0000
vn -0.2306 0.9730 -0.0000
vn -0.8972 0.4379 0.0576
vn -0.8980 0.4381 0.0413
vn -0.8262 0.4790 0.2965
vn -0.8004 0.4885 0.3475
vn 0.1353 0.3337 0.9329
vn -0.0573 0.4055 0.9123
vn -0.0733 0.4107 0.9088
vn 0.1354 0.3337 0.9329
vn 0.3089 0.3145 0.8976
vn 0.4025 0.2992 0.8651
vn 0.9996 -0.0213 0.0164
vn 0.9647 0.0641 0.2554
vn 0.9837 0.0358 0.1760
vn -0.0071 0.0784 0.9969
vn 0.0089 0.0449 0.9990
vn 0.0076 0.0505 0.9987
vn -0.0061 0.0781 0.9969
vn 0.0000 0.0451 0.9990
vn -0.0025 0.0509 0.9987
vn -0.9996 -0.0213 0.0164
vn -0.9837 0.0358 0.1760
vn -0.9647 0.0641 0.2554
vn -0.3089 0.3145 0.8976
vn -0.4025 0.2992 0.8651
vn -0.1354 0.3337 0.9329
vn -0.1353 0.3337 0.9329
vn 0.0733 0.4107 0.9088
vn 0.0573 0.4055 0.9123
vn 0.8972 0.4379 0.0576
vn 0.8004 0.4885 0.3475
vn 0.8262 0.4790 0.2965
vn 0.8980 0.4381 0.0413
vn 0.8980 0.4381 -0.0413
vn 0.8972 0.4379 -0.0576
vn 0.8262 0.4790 -0.2965
vn 0.8004 0.4885 -0.3475
vn -0.1353 0.3337 -0.9329
vn 0.0573 0.4055 -0.9123
vn 0.0733 0.4107 -0.9088
vn -0.1354 0.3337 -0.9329
vn -0.3089 0.3145 -0.8976
vn -0.4025 0.2992 -0.8651
vn -0.9996 -0.0213 -0.0164
vn -0.9647 0.0641 -0.2554
vn -0.9837 0.0358 -0.1760
vn 0.0071 0.0784 -0.9969
vn -0.0089 0.0449 -0.9990
vn -0.0076 0.0505 -0.9987
vn 0.0061 0.0781 -0.9969
vn 0.0000 0.0451 -0.9990
vn 0.0025 0.0509 -0.9987
vn 0.9996 -0.0213 -0.0164
vn 0.9837 0.0358 -0.1760
vn 0.9647 0.0641 -0.2554
vn 0.3089 0.3145 -0.8976
vn 0.4025 0.2992 -0.8651
vn 0.1354 0.3337 -0.9329
vn 0.1353 0.3337 -0.9329
vn -0.0733 0.4107 -0.9088
vn -0.0573 0.4055 -0.9123
vn -0.8972 0.4379 -0.0576
vn -0.8003 0.4885 -0.3475
vn -0.8262 0.4790 -0.2965
vn -0.8980 0.4381 -0.0413
vn -0.3072 -0.7897 0.5310
vn -0.3826 -0.7733 0.5056
vn -0.3326 -0.7754 0.5368
vn -0.2991 -0.7902 0.5349
vn -0.3067 -0.7572 0.5767
vn -0.3924 -0.7799 0.4876
vn -0.1239 -0.9923 -0.0000
vn 0.0000 -1.0000 -0.0000
vn 0.1239 -0.9923 -0.0000
vn 0.2763 -0.9611 -0.0000
vn -0.2763 -0.9611 -0.0000
vn -0.3067 -0.7572 -0.5767
vn -0.3186 -0.7907 -0.5228
vn -0.3305 -0.7784 -0.5338
vn -0.3740 -0.7710 -0.5154
vn -0.3924 -0.7799 -0.4876
vn 0.3067 -0.7572 0.5767
vn 0.3186 -0.7907 0.5228
vn 0.3305 -0.7784 0.5338
vn 0.3740 -0.7710 0.5154
vn 0.3924 -0.7799 0.4876
vn 0.3306 -0.8141 -0.4775
vn 0.3195 -0.7915 -0.5210
vn 0.3427 -0.7840 -0.5175
vn 0.3992 -0.7266 -0.5592
vn 0.3745 -0.7691 -0.5179
vn 0.1978 -0.7836 0.5889
vn 0.3944 -0.7327 0.5546
vn 0.3108 -0.7785 0.5453
vn 0.3306 -0.8141 0.4775
vn 0.2376 -0.8454 -0.4784
vn 0.3896 -0.7791 -0.4912
vn 0.3113 -0.8035 -0.5075
vn 0.3067 -0.7572 -0.5767
vn -0.1978 -0.7836 -0.5889
vn -0.3944 -0.7327 -0.5546
vn -0.3108 -0.7785 -0.5453
vn -0.3306 -0.8141 -0.4775
vn -0.3682 -0.7592 0.5367
vn -0.0597 -0.7911 0.6088
vn -0.2734 -0.7746 0.5703
vn -0.3306 -0.8141 0.4775
vn -0.5139 0.5070 0.6921
vn -0.4666 0.5018 0.7283
vn 0.5589 0.2647 0.7859
vn 0.9064 0.1182 0.4056
vn -0.9064 0.1182 0.4056
vn -0.5589 0.2647 0.7859
vn 0.4666 0.5018 0.7283
vn 0.5139 0.5070 0.6921
vn 0.5139 0.5070 -0.6921
vn 0.4666 0.5018 -0.7283
vn -0.5589 0.2647 -0.7859
vn -0.9064 0.1182 -0.4056
vn 0.9064 0.1182 -0.4056
vn 0.5589 0.2647 -0.7859
vn -0.4666 0.5018 -0.7283
vn -0.5139 0.5070 -0.6921
# 167 vertex normals

vt 0.3759 0.6731 0.0000
vt 0.4276 0.6734 0.0000
vt 0.3720 0.6764 0.0000
vt 0.3735 0.6742 0.0000
vt 0.4288 0.7897 0.0000
vt 0.3539 0.8148 0.0000
vt 0.4834 0.6769 0.0000
vt 0.4794 0.6736 0.0000
vt 0.4818 0.6747 0.0000
vt 0.5038 0.7650 0.0000
vt 0.4289 0.8609 0.0000
vt 0.3735 0.9765 0.0000
vt 0.3732 0.9741 0.0000
vt 0.3539 0.8358 0.0000
vt 0.4277 0.9772 0.0000
vt 0.3759 0.9776 0.0000
vt 0.4794 0.9769 0.0000
vt 0.5039 0.8855 0.0000
vt 0.4834 0.9736 0.0000
vt 0.4819 0.9758 0.0000
vt 0.5118 0.7650 0.0000
vt 0.5119 0.8855 0.0000
vt 0.6514 0.6762 0.0000
vt 0.5947 0.7896 0.0000
vt 0.5958 0.6733 0.0000
vt 0.6475 0.6729 0.0000
vt 0.6499 0.6740 0.0000
vt 0.6697 0.8146 0.0000
vt 0.5197 0.7650 0.0000
vt 0.5416 0.6747 0.0000
vt 0.5440 0.6736 0.0000
vt 0.5962 0.9771 0.0000
vt 0.5948 0.8608 0.0000
vt 0.6503 0.9763 0.0000
vt 0.6479 0.9774 0.0000
vt 0.6698 0.8356 0.0000
vt 0.5404 0.9736 0.0000
vt 0.5198 0.8855 0.0000
vt 0.5444 0.9768 0.0000
vt 0.5420 0.9757 0.0000
vt 0.3342 0.8202 0.0000
vt 0.3287 0.8213 0.0000
vt 0.3103 0.6858 0.0000
vt 0.3148 0.6819 0.0000
vt 0.2579 0.6778 0.0000
vt 0.3097 0.6776 0.0000
vt 0.3069 0.6827 0.0000
vt 0.2561 0.6831 0.0000
vt 0.2022 0.6784 0.0000
vt 0.2051 0.6835 0.0000
vt 0.1785 0.7661 0.0000
vt 0.1981 0.6808 0.0000
vt 0.2026 0.6848 0.0000
vt 0.1815 0.7733 0.0000
vt 0.1739 0.7682 0.0000
vt 0.1740 0.7739 0.0000
vt 0.1665 0.7737 0.0000
vt 0.1695 0.7666 0.0000
vt 0.1456 0.6879 0.0000
vt 0.1503 0.6834 0.0000
vt 0.1453 0.6797 0.0000
vt 0.1422 0.6850 0.0000
vt 0.0919 0.6849 0.0000
vt 0.0901 0.6797 0.0000
vt 0.0413 0.6851 0.0000
vt 0.0385 0.6800 0.0000
vt 0.0154 0.8214 0.0000
vt 0.0335 0.6843 0.0000
vt 0.0379 0.6881 0.0000
vt 0.0209 0.8225 0.0000
vt 0.0209 0.8426 0.0000
vt 0.0155 0.8437 0.0000
vt 0.0390 0.9770 0.0000
vt 0.0346 0.9809 0.0000
vt 0.0909 0.9849 0.0000
vt 0.0397 0.9851 0.0000
vt 0.0425 0.9800 0.0000
vt 0.0927 0.9797 0.0000
vt 0.1463 0.9843 0.0000
vt 0.1433 0.9791 0.0000
vt 0.1697 0.8976 0.0000
vt 0.1514 0.9806 0.0000
vt 0.1468 0.9761 0.0000
vt 0.1669 0.8904 0.0000
vt 0.1743 0.8958 0.0000
vt 0.1743 0.8902 0.0000
vt 0.1818 0.8907 0.0000
vt 0.1788 0.8979 0.0000
vt 0.2027 0.9776 0.0000
vt 0.1981 0.9823 0.0000
vt 0.2031 0.9859 0.0000
vt 0.2063 0.9805 0.0000
vt 0.2571 0.9806 0.0000
vt 0.2589 0.9859 0.0000
vt 0.3082 0.9805 0.0000
vt 0.3110 0.9856 0.0000
vt 0.3343 0.8427 0.0000
vt 0.3161 0.9812 0.0000
vt 0.3116 0.9774 0.0000
vt 0.3288 0.8417 0.0000
vt 0.2551 0.7972 0.0000
vt 0.3090 0.6840 0.0000
vt 0.0938 0.8667 0.0000
vt 0.0937 0.7979 0.0000
vt 0.2554 0.8664 0.0000
vt 0.3103 0.9793 0.0000
vt 0.0392 0.6862 0.0000
vt 0.1454 0.9779 0.0000
vt 0.1442 0.6862 0.0000
vt 0.0403 0.9788 0.0000
vt 0.2042 0.9794 0.0000
vt 0.2029 0.6844 0.0000
vt 0.3127 0.6791 0.0000
vt 0.1997 0.6796 0.0000
vt 0.1481 0.6810 0.0000
vt 0.0355 0.6815 0.0000
vt 0.0367 0.9836 0.0000
vt 0.1491 0.9830 0.0000
vt 0.2004 0.9846 0.0000
vt 0.3140 0.9840 0.0000
# 120 texture coords

g bowl
s 1
f 1/1/1 2/2/2 3/3/3 4/4/1 
f 5/5/4 6/6/5 3/3/3 2/2/2 
f 7/7/6 2/2/2 8/8/7 9/9/7 
f 10/10/8 5/5/4 2/2/2 7/7/6 
f 11/11/9 12/12/10 13/13/11 14/14/12 
f 15/15/13 16/16/14 12/12/10 11/11/9 
f 17/17/15 11/11/9 18/18/16 19/19/17 
f 19/19/17 20/20/18 17/17/15 
f 15/15/13 11/11/9 17/17/15 
s 2
f 11/11/19 14/14/20 6/6/20 5/5/19 
f 18/18/21 11/11/19 5/5/19 10/10/21 
f 18/18/21 10/10/21 21/21/22 22/22/22 
s 1
f 23/23/23 24/24/24 25/25/25 26/26/26 
f 26/26/26 27/27/27 23/23/23 
f 28/28/28 24/24/24 23/23/23 
f 25/25/25 29/29/29 30/30/30 31/30/31 
f 31/30/31 32/31/32 25/25/25 
f 24/24/24 29/29/29 25/25/25 
f 33/32/33 34/33/34 35/34/35 36/35/36 
f 37/34/37 35/34/35 34/33/34 38/36/38 
f 39/37/39 40/38/40 41/39/41 42/40/42 
f 33/32/33 41/39/41 40/38/40 34/33/34 
s 2
f 28/28/43 38/36/43 34/33/44 24/24/44 
f 24/24/44 34/33/44 40/38/45 29/29/45 
f 21/21/22 29/29/45 40/38/45 22/22/22 
s 4
f 6/41/46 43/42/47 44/43/48 3/44/49 
f 2/45/50 1/46/51 45/47/52 46/48/53 
f 8/49/54 2/45/50 46/48/53 47/50/55 
s 8
f 10/51/56 7/52/57 48/53/58 49/54/56 
s 4
f 21/55/59 10/51/60 49/54/61 50/56/62 
f 21/55/59 50/56/62 51/57/63 29/58/64 
s 8
f 29/58/65 51/57/65 52/59/66 30/60/67 
s 4
f 32/61/68 53/62/69 54/63/70 25/64/71 
f 25/64/71 54/63/70 55/65/72 26/66/73 
f 28/67/74 23/68/75 56/69/76 57/70/77 
f 28/67/74 57/70/77 58/71/78 38/72/79 
f 38/72/79 58/71/78 59/73/80 37/74/81 
f 33/75/82 36/76/83 60/77/84 61/78/85 
f 41/79/86 33/75/82 61/78/85 62/80/87 
s 8
f 40/81/88 39/82/89 63/83/90 64/84/88 
s 4
f 22/85/91 40/81/92 64/84/93 65/86/94 
f 22/85/91 65/86/94 66/87/95 18/88/96 
s 8
f 18/88/97 66/87/97 67/89/98 19/90/99 
s 4
f 17/91/100 68/92/101 69/93/102 15/94/103 
f 15/94/103 69/93/102 70/95/104 16/96/105 
f 14/97/106 13/98/107 71/99/108 72/100/109 
f 14/97/106 72/100/109 43/42/47 6/41/46 
s 1
f 44/43/110 73/101/111 46/48/112 45/47/113 
f 45/47/113 74/102/114 44/43/110 
f 43/42/115 73/101/111 44/43/110 
s 2
f 66/87/116 65/86/117 50/56/117 49/54/116 
f 64/84/118 75/103/119 76/104/119 51/57/118 
f 65/86/117 64/84/118 51/57/118 50/56/117 
f 43/42/120 72/100/120 77/105/120 73/101/120 
s 1
f 70/95/121 69/93/122 71/99/123 78/106/121 
f 77/105/124 72/100/125 71/99/123 69/93/122 
f 55/65/126 54/63/127 56/69/128 79/107/126 
f 76/104/129 57/70/130 56/69/128 54/63/127 
f 62/80/131 61/78/132 63/83/133 80/108/131 
f 64/84/134 63/83/133 61/78/132 75/103/135 
s 2
f 75/103/119 58/71/119 57/70/119 76/104/119 
f 77/105/120 66/87/116 49/54/116 73/101/120 
s 1
f 52/59/136 51/57/137 53/62/138 81/109/139 
f 54/63/127 53/62/138 51/57/137 76/104/129 
f 59/73/140 58/71/141 60/77/142 82/110/143 
f 75/103/135 61/78/132 60/77/142 58/71/141 
f 67/89/144 66/87/145 68/92/146 83/111/147 
f 69/93/122 68/92/146 66/87/145 77/105/124 
f 46/48/112 49/54/148 48/53/149 84/112/150 
f 84/112/150 47/50/151 46/48/112 
f 73/101/111 49/54/148 46/48/112 
s 4
f 74/102/152 4/113/153 3/44/49 44/43/48 
f 4/113/153 74/102/152 45/47/52 1/46/51 
f 9/114/154 8/49/54 47/50/55 84/112/154 
s 8
f 84/112/155 48/53/58 7/52/57 9/114/155 
f 81/109/156 31/115/156 30/60/67 52/59/66 
s 4
f 31/115/157 81/109/157 53/62/69 32/61/68 
f 27/116/158 26/66/73 55/65/72 79/107/159 
f 79/107/159 56/69/76 23/68/75 27/116/158 
f 82/110/160 35/117/161 37/74/81 59/73/80 
f 35/117/161 82/110/160 60/77/84 36/76/83 
f 42/118/162 41/79/86 62/80/87 80/108/162 
s 8
f 80/108/163 63/83/90 39/82/89 42/118/163 
f 83/111/164 20/119/164 19/90/99 67/89/98 
s 4
f 20/119/165 83/111/165 68/92/101 17/91/100 
f 12/120/166 16/96/105 70/95/104 78/106/167 
f 78/106/167 71/99/108 13/98/107 12/120/166 
# 77 polygons - 10 triangles

